<svg xmlns="http://www.w3.org/2000/svg" viewBox="0 0 151.891 131.818"><circle cx="75.945" cy="75.449" r="55.536" transform="translate(-11.282 13.388) rotate(-9.381)" fill="#efca70"/><path d="M136.14,25.051c25.5-1.383,17,47.589-4.15,58.568-15.081,7.83-22.807-40.1-18.282-62.527C114.494,17.2,128.739,24.808,136.14,25.051Z" fill="#381c0a" fill-rule="evenodd"/><path d="M136.139,25.033c4.669-.254,8.2,1.18,10.722,3.759,2.692,2.751,4.236,6.8,4.791,11.5a45.157,45.157,0,0,1-1.136,15.372c-2.758,11.665-9.484,23.28-18.517,27.971a7.024,7.024,0,0,1-3.22.857c-3.03.011-5.7-2.311-7.952-6.142a55.467,55.467,0,0,1-5.473-15.182c-3.147-13.728-3.9-31.013-1.664-42.082.248-1.233,1.821-1.329,4.091-.87a69.806,69.806,0,0,1,6.956,2.018c4.008,1.3,8.306,2.694,11.4,2.8Zm10.7,3.785c-2.517-2.571-6.038-4-10.7-3.748h0c-3.1-.1-7.4-1.5-11.413-2.8a70.2,70.2,0,0,0-6.953-2.018c-2.248-.453-3.8-.363-4.046.841-2.234,11.065-1.482,28.344,1.664,42.067,1.379,6.015,3.218,11.346,5.468,15.17s4.905,6.136,7.92,6.124a6.987,6.987,0,0,0,3.2-.852c9.024-4.685,15.743-16.29,18.5-27.946A45.138,45.138,0,0,0,151.615,40.3C151.06,35.608,149.52,31.563,146.835,28.818Z" fill="#20201e" fill-rule="evenodd"/><path d="M109.078,100.132a33.113,33.113,0,0,0-33.244,30.853h66.489a32.828,32.828,0,0,0-17.576-27A33.516,33.516,0,0,0,109.078,100.132Z" fill="#5c4a60" fill-rule="evenodd"/><path d="M101.7,111.676c-3.021.4-8.607,8.511-9.462,10.772s-.591-20.215,6.778-23.673,5.455,1.6,5.455,1.6Z" fill="#423447" fill-rule="evenodd"/><path d="M104.456,112.474c6.3-1.037,10.773,8.671,11.3,10.931s14.309-22.289,3.537-25.747-8.139,2.873-8.139,2.873Z" fill="#423447" fill-rule="evenodd"/><path d="M97.6,91.425c3.648,10.172,2.213,17.671,5.142,20.265a5.081,5.081,0,0,0,3.954.96c8.165-.624,16.278-23.06,16.278-23.06Z" fill="#e4ae91" fill-rule="evenodd"/><path d="M97.6,91.425a63,63,0,0,1,2.953,13.8,33.444,33.444,0,0,0,15.365-.911,90.53,90.53,0,0,0,7.056-14.728Z" fill="#b77a65" fill-rule="evenodd"/><path d="M75.262,48.776c1.482,22.385.956,32.28,6.984,40.1,10.972,14.231,22.531,13.389,33.6,7.772,2.8-1.419,7.355-.157,9.766-2.531,6.028-5.935,10.6-14.659,12.477-25.181,2.61-14.636.848-34.522.848-34.522s-16.6-12.766-25.854-13.724-34.79,8.937-34.79,8.937S67.761,33.137,75.262,48.776Z" fill="#e4ae91" fill-rule="evenodd"/><path d="M75.262,48.776l.032.486A21.276,21.276,0,0,0,78.34,52.1c3.491-8.876,7.381-11.47,10.373-12.966l2.992-1.5-3.392,5.087a156.876,156.876,0,0,1,25.435-4.887c14.961-1.7,15.56-2.594,15.36.6s3.69,9.077,6.982,14.063.518-6.962.518-6.962.011-12.292-.319-12.787-.091-.215-.11-.362c-1.576-1.122-3.716-2.6-6.125-4.12a39.039,39.039,0,0,0-4.337-.105c-12.269.3-37.2,1.994-40.295,3.19s-8.978.9-10.175,4.789A34.289,34.289,0,0,0,73.4,44.021,32.065,32.065,0,0,0,75.262,48.776Z" fill="#b77a65" fill-rule="evenodd"/><path d="M70.713,34.254c-4.381,5.279-3.652,9.335-2.234,15.719l1.277-3.032a96.115,96.115,0,0,0,6.423,15.7s3.072-11.072,3.072-15.3-.319-5.266,0-6.543,8.219-6.862,8.219-6.862L82.123,39.76l13.725-4.708-6.622,7.18s9.175-5.345,23.538-7.421,12.926.879,12.926.879c-1.726,5.415,2.908,14.118,5.84,23.138.331,1.018,1.9,4.863,2.823,2.4.736-1.964,3.941-4.761,7.786-6.084,8.729-3,4.484-21.169-1.128-23.328-.36-.138,6.25,1.66,6.144,1.357-1.961-5.629-4.779-6.44-8.458-6.463a29.7,29.7,0,0,0-1.436-6.385l-1.2-3.51a9.459,9.459,0,0,1-.079,3.829,6.091,6.091,0,0,1-1.2,2.793S131.914,12.989,122.34,9.957c-16.891-5.349-34.933,11.077-50.909,9.057-.955-.121-1.64-.42-1.648.038-.018,1.217,1.431,3.653,3.015,5.23a8.392,8.392,0,0,0,2.49,1.628c-1.92,2.278-10.121,2.468-11.677,2.239C63.611,28.149,66.4,33.177,70.713,34.254Z" fill="#381c0a" fill-rule="evenodd"/><path d="M135.092,24.352a23.808,23.808,0,0,0-1.168-3.024c-.269-.584-13.237,4.507-31.6-6.528-6.356-3.82-2.505-1.645-3.578-2.365-5.694,2.029-11.355,4.423-16.863,5.747,14.4,10.865,33.84,10.951,43.282,9.135C132.592,25.89,134.5,25,135.092,24.352Z" fill="#734434" fill-rule="evenodd"/><path d="M85.734,55.057c1.846,0,3.342,2.273,3.342,5.078s-1.5,5.079-3.342,5.079-3.34-2.275-3.34-5.079S83.89,55.057,85.734,55.057Z" fill="#381c0a" fill-rule="evenodd"/><path d="M114.244,53.62c2.181,0,3.949,2.275,3.949,5.079s-1.768,5.077-3.949,5.077-3.95-2.272-3.95-5.077S112.062,53.62,114.244,53.62Z" fill="#381c0a" fill-rule="evenodd"/><path d="M87.185,46.4c-5.492,1.443-7.859,4.3-7.859,4.3l10.666-.4S89.674,45.42,87.185,46.4Z" fill="#381c0a" fill-rule="evenodd"/><path d="M111.042,44.718c6.057,1.118,8.668,3.834,8.668,3.834l-11.765.227S108.3,43.885,111.042,44.718Z" fill="#381c0a" fill-rule="evenodd"/><path d="M84.17,56.61a1.163,1.163,0,1,1-.971,1.147A1.069,1.069,0,0,1,84.17,56.61Z" fill="#fff" fill-rule="evenodd"/><path d="M112.391,55.014a1.148,1.148,0,1,1-1.148,1.147A1.147,1.147,0,0,1,112.391,55.014Z" fill="#fff" fill-rule="evenodd"/><path d="M98.106,93a20.219,20.219,0,0,0,8.088-.938c-1.288,1.668-2,2.615-3.246,2.92C101.657,95.3,99.887,94.8,98.106,93Z" fill="#b77a65" fill-rule="evenodd"/><path d="M131.683,24.2c.155-.205,2.816.151,3.366.212.823,8.253,8.446,11.011,15.557,11a32.689,32.689,0,0,1,1.181,11.725C140.239,45.068,132.2,32.663,131.683,24.2Z" fill="#734434" fill-rule="evenodd"/><path d="M127.372,67.667a.939.939,0,0,1-1.185-1.458c.693-.563,1.626-1.39,2.66-2.3,2.8-2.478,6.3-5.576,7.963-6.045a6.661,6.661,0,0,1,3.9-.157c1.764.6,2.452,2.182,2.371,4.4a23.154,23.154,0,0,1-1.736,6.918c-3.463,9.017-11.687,20.7-13.754,23.064a.939.939,0,1,1-1.413-1.238c2.008-2.3,10.027-13.676,13.415-22.5a21.367,21.367,0,0,0,1.61-6.316c.049-1.34-.268-2.263-1.1-2.547a4.936,4.936,0,0,0-2.79.188c-1.253.352-4.571,3.29-7.225,5.64C129.031,66.249,128.073,67.1,127.372,67.667Z" fill="#5c968b" fill-rule="evenodd"/><path d="M135.692,59.737a10.012,10.012,0,0,1,5.431-4.122c4.189-.978,5.8,2.788,4.754,7.035-1.514,6.173-8.044,12.245-11.85,7.351C131.793,67.129,135.692,59.737,135.692,59.737Z" fill="#e4ae91" fill-rule="evenodd"/><path d="M138.229,61.414a5.472,5.472,0,0,1,2.9-2.533c2.543-.594,3.517,1.693,2.886,4.271-.919,3.748-4.883,7.434-7.194,4.462C135.469,65.87,138.229,61.414,138.229,61.414Z" fill="#b77a65" fill-rule="evenodd"/><path d="M82.026,71.109a.939.939,0,1,1-1.251,1.4,22.433,22.433,0,0,1-4.253-4.987,10.836,10.836,0,0,1-1.808-5.128.943.943,0,1,1,1.885,0,8.957,8.957,0,0,0,1.529,4.149A20.522,20.522,0,0,0,82.026,71.109Z" fill="#5c968b" fill-rule="evenodd"/><path d="M128.476,90.618c-.368-3.954-1.293-23.223-.791-24.477.283-.708-5.122,1.109-15.961.9-4.719-.091-9.35-.918-12.776-.691-7.47.5-12.207,2.412-20.762,2.555.024,12.251.711,24.873,11.152,30.034C102.417,105.408,120.218,103.431,128.476,90.618Z" fill="#5c968b" fill-rule="evenodd"/><path d="M81.694,77.631a.94.94,0,0,1,.531-1.8c4.928,1.446,11.791,1.779,18.388,1.458,8.081-.393,15.7-1.758,18.847-3.253a.94.94,0,1,1,.8,1.7c-3.337,1.586-11.249,3.026-19.561,3.43C93.924,79.493,86.84,79.142,81.694,77.631Z" fill="#467164" fill-rule="evenodd"/><path d="M81.694,84.147a.94.94,0,0,1,.531-1.8c4.928,1.446,11.791,1.779,18.388,1.458,8.081-.394,15.7-1.759,18.847-3.254a.941.941,0,1,1,.8,1.7c-3.337,1.586-11.249,3.025-19.561,3.43C93.924,86.009,86.84,85.657,81.694,84.147Z" fill="#467164" fill-rule="evenodd"/><path d="M82.777,91.31a.941.941,0,0,1,.56-1.8c4.631,1.444,11.084,1.776,17.287,1.455,7.6-.393,14.765-1.753,17.717-3.242a.94.94,0,1,1,.846,1.678C116.032,91,108.562,92.44,100.72,92.846,94.322,93.176,87.636,92.824,82.777,91.31Z" fill="#467164" fill-rule="evenodd"/><path d="M89.509,106.113c.159-3.036.176-6.622.274-8.812.092-2.036-2.68-.613-3.283.5a13.641,13.641,0,0,0-1.3,3.866c-.063.093-.131.184-.2.273.159-5.488-.1-9.4.137-15.466.084-2.174.386-5.029-1.036-5.442-3.928-1.142-3.79,6.151-3.79,6.151s.1-6.031-2.5-5.843-2.35,4.225-2.439,5.885c-.079,1.478.252-5.3-2.4-3.814s-2.284,6.556-2.284,6.556c-.752-2.84-3.281-2.372-3.424,1.394-.2,5.312.016,16.78.123,18,.5,5.712,2.428,8.457,5.579,10.136l7.94,11.492h21.158L88.513,115.854l-1.3-1.448A18.379,18.379,0,0,0,89.509,106.113Z" fill="#d6947c" fill-rule="evenodd"/><path d="M67.259,105.556c.04,1.962.086,3.41.12,3.8.5,5.712,2.428,8.457,5.579,10.136l7.94,11.492h6.121l-10.884-12.9c-1.109-1.313-2.394-1.306-3.384-1.992C70.337,114.422,68.552,112.517,67.259,105.556Z" fill="#b77a65" fill-rule="evenodd"/><path d="M71.335,97.937a.471.471,0,1,1-.942,0v-8.5a.471.471,0,1,1,.942,0Z" fill="#b77a65" fill-rule="evenodd"/><path d="M75.645,96.659a.472.472,0,1,1-.944,0V85.129a.472.472,0,0,1,.944,0Z" fill="#b77a65" fill-rule="evenodd"/><path d="M80.512,94.983a.472.472,0,1,1-.943,0V84.053a.472.472,0,1,1,.943,0Z" fill="#b77a65" fill-rule="evenodd"/><path d="M85.3,102.524a.472.472,0,0,1-.943,0v-3.51a.472.472,0,0,1,.943,0Z" fill="#b77a65" fill-rule="evenodd"/><path d="M61.941,3.77V0H60.057V3.77ZM61,131.818h.942v-1.761H60.057v1.761Zm.942-3.646V124.4H60.057v3.77Zm0-5.654v-3.771H60.057v3.771Zm0-5.656v-3.769H60.057v3.769Zm0-5.654v-3.769H60.057v3.769Zm0-5.655v-3.77H60.057v3.77Zm0-5.655V96.129H60.057V99.9Zm0-5.654v-3.77H60.057v3.77Zm0-5.654V84.819H60.057V88.59Zm0-5.655v-3.77H60.057v3.77Zm0-5.655V73.511H60.057V77.28Zm0-5.655v-3.77H60.057v3.77Zm0-5.654V62.2H60.057v3.77Zm0-5.655v-3.77H60.057v3.77Zm0-5.654V50.893H60.057v3.769Zm0-5.655v-3.77H60.057v3.77Zm0-5.654v-3.77H60.057v3.77Zm0-5.656V33.928H60.057V37.7Zm0-5.654v-3.77H60.057v3.77Zm0-5.654V22.618H60.057v3.771Zm0-5.655V16.965H60.057v3.769Zm0-5.655V11.31H60.057v3.769Zm0-5.654V5.655H60.057v3.77Z" fill="#b94b22" fill-rule="evenodd"/><path d="M26.647,83.1C16.48,83.1,8.169,90.444,7.569,99.71H45.726C45.126,90.444,36.814,83.1,26.647,83.1Z" fill="#5c968b" fill-rule="evenodd"/><path d="M17.142,99.71H45.726A17.8,17.8,0,0,0,34.354,84.6C34.29,89.775,32.444,97.189,17.142,99.71Z" fill="#548b80" fill-rule="evenodd"/><path d="M19.64,95.152c3.168-3.329,5.637-4.242,8.483-3.006a18.246,18.246,0,0,1,4.779,3.06s.268-6.658-1.289-7.839-5.637-1.4-6.175-1.181S18.728,88.816,19.64,95.152Z" fill="#548b80" fill-rule="evenodd"/><path d="M26.29,89.4c-2.793.215-6.228,4.582-6.516,5.8s-5.3-10.882.932-12.743,5.584.858,5.584.858Z" fill="#467164" fill-rule="evenodd"/><path d="M26.327,89.4c2.792.215,6.229,4.582,6.515,5.8s5.3-10.882-.931-12.743-5.584.858-5.584.858Z" fill="#467164" fill-rule="evenodd"/><path d="M19.03,78.414c2.491,7,3.007,10.825,7.6,10.825s6.056-11.813,6.056-11.813Z" fill="#e4ae91" fill-rule="evenodd"/><path d="M19.03,78.414c1.1,3.1,1.817,5.569,2.669,7.366a16.932,16.932,0,0,0,6.352.141c.666-.142,1.577-.34,2.613-.637a33.831,33.831,0,0,0,2.025-7.858Z" fill="#b77a65" fill-rule="evenodd"/><path d="M7.776,63.359A4.855,4.855,0,0,0,5.2,61.113c-2.255-.526-3.119,1.5-2.558,3.787.814,3.324,4.329,6.592,6.378,3.957C10.225,67.311,7.776,63.359,7.776,63.359Z" fill="#e4ae91" fill-rule="evenodd"/><path d="M41.166,62.3a5.383,5.383,0,0,1,2.924-2.22c2.255-.526,3.119,1.5,2.558,3.788-.814,3.322-4.33,6.591-6.378,3.956C39.067,66.28,41.166,62.3,41.166,62.3Z" fill="#e4ae91" fill-rule="evenodd"/><path d="M7,55.456c.8,12.05,1.374,18.836,4.619,23.046,3.113,4.038,11.644,6.232,16.429,5.218,2.835-.6,12.026-3.866,13.143-11s.086-25,.086-25-8.934-6.873-13.917-7.389S8.636,45.147,8.636,45.147,2.966,47.037,7,55.456Z" fill="#e4ae91" fill-rule="evenodd"/><path d="M8.66,59.173c.7-1.913,1.292-8.747,3.439-8.784,7.617-.133,7.918.824,22.938-1.59.811-.13,1.245,2.145,2.059,4.527.729,2.136,4.436,9.256,4.477,10.2,0,0-1.4-15.085-1.718-15.608a.545.545,0,0,1-.059-.21c-.849-.653-2-1.511-3.3-2.4a19.732,19.732,0,0,0-2.334-.062c-6.6.175-20.027,1.161-21.691,1.858S7.641,47.626,7,49.89a21.271,21.271,0,0,0-1,4.582C6.616,56.729,6.909,57.772,8.66,59.173Z" fill="#b77a65" fill-rule="evenodd"/><path d="M7.5,65.3s1.654-6.441,1.654-8.9c0-2.032-.486-5.745,1.9-6.732,3.227-1.332,9.888.325,16.135-.65,7.732-1.207,10.483-1.746,10.483-1.746-1.545,3.721,1.477,9.451,3.055,14.7.179.593,1.023,2.83,1.52,1.4,8.134-23.436-9.668-33.152-23.892-29.134C8.087,37.138-1.5,46.88,7.5,65.3Z" fill="#381c0a" fill-rule="evenodd"/><path d="M39.554,39.378c-4.534.534-13.09.732-19.687-3.912-.592-.416-1.146-.81-1.667-1.184a21.445,21.445,0,0,0-9.948,5.961c9.855,6.235,21.837,6.17,27.952,4.9a32.966,32.966,0,0,0,6.156-1.678A16.906,16.906,0,0,0,39.554,39.378Z" fill="#734434" fill-rule="evenodd"/><path d="M18.222,55.665a10.486,10.486,0,0,0-5.452.8l6.568,1.72S19.891,55.609,18.222,55.665Z" fill="#381c0a" fill-rule="evenodd"/><path d="M29.961,54.424a8.981,8.981,0,0,1,5.1-.193l-5.638,2.888S28.436,54.669,29.961,54.424Z" fill="#381c0a" fill-rule="evenodd"/><path d="M7.046,64.171a2.941,2.941,0,0,0-1.564-1.364c-1.368-.32-1.893.911-1.553,2.3.5,2.018,2.629,4,3.873,2.4C8.532,66.569,7.046,64.171,7.046,64.171Z" fill="#b77a65" fill-rule="evenodd"/><path d="M42.532,63.2A2.937,2.937,0,0,1,44.1,61.841c1.369-.32,1.894.911,1.553,2.3-.494,2.017-2.628,4-3.872,2.4C41.046,65.6,42.532,63.2,42.532,63.2Z" fill="#b77a65" fill-rule="evenodd"/><path d="M23.669,72.674c-1.661,1.917-2.7,5.665,2.371,5.383S29.676,73.823,27.6,72.1C26.013,70.773,24.87,71.288,23.669,72.674Z" fill="#381c0a" fill-rule="evenodd"/><path d="M23.081,68.031a10.869,10.869,0,0,0,4.354-.5c-.694.9-1.075,1.408-1.748,1.573A2.875,2.875,0,0,1,23.081,68.031Z" fill="#b77a65" fill-rule="evenodd"/><path d="M33.643,64.285c1.721-.374,3.266.008,3.451.855s-1.063,1.836-2.784,2.211-3.267-.009-3.452-.855S31.921,64.66,33.643,64.285Z" fill="#dd9989" fill-rule="evenodd"/><path d="M15.587,65.455c-1.76-.092-3.223.536-3.267,1.4s1.345,1.64,3.105,1.731,3.222-.537,3.267-1.4S17.347,65.546,15.587,65.455Z" fill="#dd9989" fill-rule="evenodd"/><path d="M52.865,99.809c-4.415-9.388-6.682-13.645-13.219-19.97a64.246,64.246,0,0,0-6.672-4.286c-1.648-.373-2.952,2.209-4.387,4.333a3.542,3.542,0,0,0-1.422-.943c-1.5-.424-3.147.451-2.078,1.656.983,1.108,2.107,2.053,2.916,3.177,1.547,2.15,3.479,2.79,5.335,3.52,1.543.606,4.137,1.211,4.648,1.9,1.756,2.382,3.889,9.233,4.277,10.489Z" fill="#d6947c" fill-rule="evenodd"/><path d="M33.209,85.593c5.249,1.925,5.686-3.062,3.654-5.923,0,0-7.278-1.751-8.937-.365-.044.036-.451-.317-.395-.185.093.22.5,2.405.6,2.667C29,84.089,30.214,84.494,33.209,85.593Z" fill="#b87c68" fill-rule="evenodd"/><path d="M29.826,74.626a9.032,9.032,0,0,0-1.4,1.2c-1.4,1.537-.1,6.643.68,6.815a1.228,1.228,0,0,0,1.436-.905c-.36,2.985,3.175,2.632,3.077,1.338,0,0,.164,1.959,1.38,1.758s1.237-2.938,1.555-3.5,3.366-1.326,3.366-1.326-6.392-6.041-7.289-6.35S29.826,74.626,29.826,74.626Z" fill="#d6947c" fill-rule="evenodd"/><polygon points="1.168 72.218 5.489 76.021 7.356 74.342 11.689 78.475 11.041 79.155 7.338 75.623 5.496 77.281 0.545 72.925 1.168 72.218" fill="#673d2e" fill-rule="evenodd"/><polygon points="0.048 83.381 5.678 83.679 6.159 80.688 12.048 80.357 12.1 81.296 6.967 81.583 6.471 84.662 0 84.319 0.048 83.381" fill="#673d2e" fill-rule="evenodd"/><polygon points="51.147 66.664 46.196 71.021 44.354 69.362 40.651 72.895 40.003 72.214 44.336 68.081 46.203 69.76 50.524 65.957 51.147 66.664" fill="#673d2e" fill-rule="evenodd"/><polygon points="51.692 78.059 45.222 78.402 44.727 75.322 39.593 75.035 39.645 74.097 45.533 74.427 46.015 77.418 51.645 77.12 51.692 78.059" fill="#673d2e" fill-rule="evenodd"/><path d="M30.84,82.576a.472.472,0,0,1-.943,0V79.065a.472.472,0,0,1,.943,0Z" fill="#b77a65" fill-rule="evenodd"/><path d="M33.952,83.933a.471.471,0,0,1-.942,0V80.422a.471.471,0,1,1,.942,0Z" fill="#b77a65" fill-rule="evenodd"/><polygon points="15.176 59.09 20.015 61.084 16.895 63.907 16.141 63.072 17.936 61.447 14.747 60.133 15.176 59.09" fill="#381c0a" fill-rule="evenodd"/><polygon points="34.46 58.605 31.443 60.42 33.693 61.611 33.168 62.609 29.152 60.483 33.882 57.638 34.46 58.605" fill="#381c0a" fill-rule="evenodd"/></svg>