<svg xmlns="http://www.w3.org/2000/svg" viewBox="0 0 111.072 122.105"><circle cx="55.536" cy="66.569" r="55.536" transform="translate(-28.132 89.269) rotate(-65.342)" fill="#efca70"/><path d="M60.248,91.251c-18.886,0-34.325,13.642-35.44,30.854H95.689C94.574,104.893,79.135,91.251,60.248,91.251Z" fill="#5c4a60" fill-rule="evenodd"/><path d="M42.59,122.105h53.1c-.814-12.569-9.268-23.234-21.125-28.072C74.445,103.649,71.017,117.422,42.59,122.105Z" fill="#534259" fill-rule="evenodd"/><path d="M47.231,113.638c5.885-6.184,10.473-7.88,15.759-5.586a33.961,33.961,0,0,1,8.877,5.686s.5-12.368-2.393-14.562S59,96.582,58,96.981,45.535,101.869,47.231,113.638Z" fill="#534259" fill-rule="evenodd"/><path d="M59.583,102.954c-5.187.4-11.569,8.512-12.1,10.773s-9.84-20.215,1.729-23.673,10.373,1.6,10.373,1.6Z" fill="#423447" fill-rule="evenodd"/><path d="M59.653,102.954c5.188.4,11.571,8.512,12.1,10.773S81.6,93.512,70.027,90.054s-10.374,1.6-10.374,1.6Z" fill="#423447" fill-rule="evenodd"/><path d="M46.1,82.544c4.628,13.007,5.585,20.109,14.123,20.109S71.473,80.709,71.473,80.709Z" fill="#e4ae91" fill-rule="evenodd"/><path d="M46.1,82.544c2.046,5.751,3.375,10.346,4.959,13.685a31.467,31.467,0,0,0,11.8.26c1.238-.263,2.931-.631,4.855-1.183a62.972,62.972,0,0,0,3.763-14.6Z" fill="#b77a65" fill-rule="evenodd"/><path d="M25.192,54.578c-1.378-2.176-3.152-3.791-4.782-4.173-4.187-.978-5.794,2.789-4.753,7.036,1.513,6.173,8.043,12.244,11.85,7.35C29.74,61.919,25.192,54.578,25.192,54.578Z" fill="#e4ae91" fill-rule="evenodd"/><path d="M87.22,52.613a9.992,9.992,0,0,1,5.43-4.122c4.188-.979,5.795,2.788,4.754,7.035-1.513,6.173-8.044,12.244-11.85,7.35C83.32,60,87.22,52.613,87.22,52.613Z" fill="#e4ae91" fill-rule="evenodd"/><path d="M23.756,39.9c1.483,22.384,2.552,34.992,8.581,42.811,5.783,7.5,21.63,11.579,30.518,9.693,5.266-1.117,22.342-7.182,24.416-20.427s.161-46.44.161-46.44-16.6-12.767-25.854-13.724-34.79,8.937-34.79,8.937S16.256,24.256,23.756,39.9Z" fill="#e4ae91" fill-rule="evenodd"/><path d="M23.756,39.9l.032.485a21.313,21.313,0,0,0,3.047,2.84c3.49-8.876,7.381-11.47,10.373-12.966l2.992-1.5-3.391,5.087a156.816,156.816,0,0,1,25.434-4.887c14.961-1.7,15.56-2.593,15.36.6s3.691,9.077,6.982,14.064S87.977,50.7,87.977,50.7s-2.594-25.934-3.193-26.832a.841.841,0,0,1-.11-.362c-1.576-1.122-3.716-2.6-6.126-4.12a39.507,39.507,0,0,0-4.336-.105c-12.269.3-37.2,2-40.3,3.191s-8.977.9-10.173,4.788a34.236,34.236,0,0,0-1.851,7.877A32.089,32.089,0,0,0,23.756,39.9Z" fill="#b77a65" fill-rule="evenodd"/><path d="M19.208,25.373c-4.381,5.28-3.652,9.335-2.234,15.719l1.277-3.031a96.013,96.013,0,0,0,6.423,15.7s3.072-11.071,3.072-15.3-.319-5.265,0-6.543,8.219-6.862,8.219-6.862l-5.347,5.825,13.725-4.708L37.72,33.352s9.176-5.346,23.539-7.421,19.31-1.037,19.31-1.037c-1.726,5.415,2.907,14.119,5.84,23.139.331,1.017,1.9,4.863,2.821,2.4,2.547-6.79,8.493-23.5.595-26.54-.36-.138,6.25,1.66,6.144,1.357-1.96-5.629-4.779-6.439-8.458-6.464a29.669,29.669,0,0,0-1.436-6.383L84.878,8.9a9.5,9.5,0,0,1-.08,3.83,6.107,6.107,0,0,1-1.2,2.793S80.409,4.109,70.834,1.077C53.944-4.272,35.9,12.154,19.926,10.133c-.955-.121-1.641-.42-1.648.038-.018,1.217,1.431,3.654,3.014,5.231a8.4,8.4,0,0,0,2.491,1.628c-1.92,2.277-10.121,2.467-11.677,2.239C12.106,19.269,14.9,24.3,19.208,25.373Z" fill="#381c0a" fill-rule="evenodd"/><path d="M83.588,15.471A26.264,26.264,0,0,0,81.46,10.55c-4.442.755-19.528,2.607-30.637-4.631-1.318-.858-2.506-1.644-3.578-2.365C41.551,5.583,35.891,7.978,30.381,9.3c14.4,10.865,33.84,10.951,43.283,9.136C81.087,17.009,82.993,16.119,83.588,15.471Z" fill="#734434" fill-rule="evenodd"/><path d="M41.115,44.261c2.182,0,3.95,2.274,3.95,5.078s-1.768,5.079-3.95,5.079-3.949-2.274-3.949-5.079S38.934,44.261,41.115,44.261Z" fill="#381c0a" fill-rule="evenodd"/><path d="M71.676,42.825c2.181,0,3.95,2.274,3.95,5.079s-1.769,5.078-3.95,5.078-3.949-2.274-3.949-5.078S69.5,42.825,71.676,42.825Z" fill="#381c0a" fill-rule="evenodd"/><path d="M42.829,35.606c-6.491,1.443-9.289,4.3-9.289,4.3L46.148,39.5S45.771,34.624,42.829,35.606Z" fill="#381c0a" fill-rule="evenodd"/><path d="M68.474,33.922c6.057,1.118,8.668,3.834,8.668,3.834l-11.764.228S65.728,33.089,68.474,33.922Z" fill="#381c0a" fill-rule="evenodd"/><path d="M42.1,45.814a1.148,1.148,0,1,1-1.148,1.147A1.146,1.146,0,0,1,42.1,45.814Z" fill="#fff" fill-rule="evenodd"/><path d="M73.015,44.218a1.147,1.147,0,1,1-1.148,1.148A1.147,1.147,0,0,1,73.015,44.218Z" fill="#fff" fill-rule="evenodd"/><path d="M23.835,56.084a5.479,5.479,0,0,0-2.9-2.533c-2.543-.594-3.518,1.693-2.886,4.272.918,3.747,4.883,7.433,7.193,4.463C26.6,60.541,23.835,56.084,23.835,56.084Z" fill="#b77a65" fill-rule="evenodd"/><path d="M89.757,54.289a5.479,5.479,0,0,1,2.9-2.533c2.542-.594,3.518,1.693,2.886,4.272-.919,3.747-4.883,7.432-7.194,4.462C87,58.746,89.757,54.289,89.757,54.289Z" fill="#b77a65" fill-rule="evenodd"/><path d="M54.716,70.409c-3.087,3.56-5.017,10.523,4.405,10s6.753-7.864,2.9-11.074C59.069,66.879,56.947,67.834,54.716,70.409Z" fill="#381c0a" fill-rule="evenodd"/><path d="M53.623,61.458a20.187,20.187,0,0,0,8.089-.937c-1.288,1.669-2,2.615-3.247,2.921C57.174,63.756,55.4,63.255,53.623,61.458Z" fill="#b77a65" fill-rule="evenodd"/><path d="M73.243,54.5c3.2-.7,6.069.014,6.41,1.586S77.68,59.5,74.481,60.192s-6.068-.015-6.41-1.586S70.045,55.2,73.243,54.5Z" fill="#dd9989" fill-rule="evenodd"/><path d="M39.7,56.67c-3.269-.169-5.986,1-6.069,2.6s2.5,3.046,5.768,3.215,5.987-1,6.07-2.6S42.971,56.839,39.7,56.67Z" fill="#dd9989" fill-rule="evenodd"/><path d="M8.233,122.105,26.931,87.1l-3.219-8.172,1.549-9.2c4.263-2.26,4.618,2.285,4.587,6.168-.008.962.821,2.151,1.236,1.635L42,63.92c1.674-2.086,2.657-1.938,3.4-1.412a1.973,1.973,0,0,1,1.026,2.1,13.68,13.68,0,0,1-1.986,4.347s2.962-4.509,5.05-2.783-.712,4.746-1.464,5.97c-.471.768,1.2-1.5,2.79-1.886a1.961,1.961,0,0,1,1.839,1.04c1.293,2.109-2.3,5.76-2.3,5.76s1.592-1.6,2.694-1.343a1.994,1.994,0,0,1,1.214,2.067,4.923,4.923,0,0,1-1.56,3.509L41.754,92.937,29.242,122.014Z" fill="#d6947c" fill-rule="evenodd"/><path d="M55.538,82.205a20.206,20.206,0,0,0,8.089-.938c-1.288,1.669-2,2.615-3.247,2.921C59.089,84.5,57.318,84,55.538,82.205Z" fill="#b77a65" fill-rule="evenodd"/><path d="M46.44,81.967a.47.47,0,1,1-.717-.608l5.116-6.054a.471.471,0,0,1,.719.608Z" fill="#b77a65" fill-rule="evenodd"/><path d="M43.554,78.619a.47.47,0,0,1-.733-.589l6.418-7.986a.47.47,0,0,1,.733.59Z" fill="#b77a65" fill-rule="evenodd"/><path d="M40.565,74.617a.47.47,0,0,1-.733-.589L46.187,66.1a.47.47,0,0,1,.732.589Z" fill="#b77a65" fill-rule="evenodd"/></svg>