<svg xmlns="http://www.w3.org/2000/svg" viewBox="0 0 121.028 110.715"><path d="M65.671,110.715A55.358,55.358,0,1,0,10.314,55.357,55.464,55.464,0,0,0,65.671,110.715Z" fill="#efca70" fill-rule="evenodd"/><path d="M67.213,30.751l1.923,4.281,4.375-4.68s.129,5.781,3.83,8.66,6.828,2.611,5.553,1.919-4.389-3.067-4.738-6.359-.636-8.44-.636-8.44S69.727,25.809,67.213,30.751Z" fill="#374762" fill-rule="evenodd"/><rect x="82.07" y="18.994" width="3.081" height="6.882" transform="translate(-0.418 1.622) rotate(-1.109)" fill="#374762"/><path d="M49.341,47.848,46.664,97.169c-.258,4.743,2.431,7.016,8.826,6.886,4.329-.087,13.566-.453,21.178-.608,4.054-.08,8.718.07,11.841-3.058,3.1-3.1,6.416-8.733,3.584-17.513-4.709-14.6-18.445-11.62-21.313-26.256s-1.477-13.9-5.46-15.259c-1.389-.473-13.073.186-14.25,1.034C49.444,43.569,49.468,45.507,49.341,47.848Z" fill="#5c4a60" fill-rule="evenodd"/><path d="M49.341,47.848,48.035,71.894,74.6,71.308S87.009,77.83,85.418,90.557c-.746,5.965-4.5,10.045-9.44,12.906.231-.006.46-.009.69-.016,4.054-.08,8.718.07,11.841-3.058,3.1-3.1,6.416-8.733,3.584-17.513-4.709-14.6-18.445-11.62-21.313-26.256s-1.477-13.9-5.46-15.259c-1.389-.473-13.073.186-14.25,1.034C49.444,43.569,49.468,45.507,49.341,47.848Z" fill="#4f4054" fill-rule="evenodd"/><path d="M59.913,18.64c24.05-.486,22.45-.486,22.45-.486q.059,2.93.118,5.863c.016.848.035,1.7.051,2.547l-5.59.113-11.2,6.771q.048,2.409.1,4.819c-4.358.088-8.478.135-12.838.224L49.51,26.53a2.527,2.527,0,0,1,.932-2.712L55.661,19.5C56.728,18.616,58.1,18.677,59.913,18.64Z" fill="#b94b22" fill-rule="evenodd"/><path d="M78.736,18.246c4.158-.092,3.627-.092,3.627-.092q.059,2.93.118,5.863c.016.848.035,1.7.051,2.547l-5.59.113-11.2,6.771q.048,2.409.1,4.819c-.929.019-1.847.035-2.759.05V32.005l13.5-7.842,2.155-.577Z" fill="#924020" fill-rule="evenodd"/><path d="M49.823,35.722l18.992-.384a.423.423,0,0,1,.431.415l.106,5.232a.426.426,0,0,1-.414.432L49.945,41.8a.421.421,0,0,1-.429-.414l-.108-5.234A.425.425,0,0,1,49.823,35.722Z" fill="#374762" fill-rule="evenodd"/><path d="M89.2,21.175a.658.658,0,1,0,0,1.315h1.483a.658.658,0,1,0,0-1.315Zm22.233,1.315a.658.658,0,0,0,0-1.315h-1.483a.658.658,0,0,0,0,1.315Zm-5.928,0a.658.658,0,0,0,0-1.315h-2.965a.658.658,0,1,0,0,1.315Zm-7.411,0a.658.658,0,0,0,0-1.315H95.131a.658.658,0,0,0,0,1.315Z" fill="#89b1bb" fill-rule="evenodd"/><path d="M88.873,18.221a.658.658,0,1,0,.659,1.139l1.282-.741a.657.657,0,1,0-.657-1.139l-1.284.741Zm19.912-9.976,0,0h0l.033-.02h0a.657.657,0,0,0-.657-1.136h0a.141.141,0,0,1-.024.013h0l-.014.007,0,0-.005,0,0,0-.006,0,0,0-1.278.738a.658.658,0,0,0,.658,1.14q.57-.33,1.14-.658l.134-.079v0l.008-.006,0,0,0,0-.006,0,.008,0v0l-.011.008.011-.006-.006,0,.006,0Zm0,0h0Zm-.657-1.138h0l-.038.023.038-.023Zm.328.571.327.566-.033.021-.294-.587Zm-4.807,3.532a.657.657,0,1,0-.656-1.139l-2.567,1.483a.657.657,0,1,0,.658,1.137l2.565-1.481Zm-6.417,3.706a.657.657,0,0,0-.657-1.139l-2.566,1.483a.657.657,0,1,0,.656,1.138Z" fill="#89b1bb" fill-rule="evenodd"/><path d="M89.532,23.827a.658.658,0,1,0-.659,1.14l1.284.741a.658.658,0,0,0,.657-1.14l-1.282-.741Zm18.594,12.256h0l.009.006,0,0,.027.016a.658.658,0,0,0,.657-1.138h0l-.031-.02-.661,1.139Zm.661-1.139-.661,1.139,0,0,0,0-.005,0,0,0-.006,0h0l-.021-.013-1.257-.725A.658.658,0,1,1,107.5,34.2l.873.5c.134.079.269.155.4.234v0l.009.006-.006,0,.008,0h0l-.011,0,.013.006Zm0,0-.327.567.294-.588.033.021Zm-.655,1.138h0l-.038-.023.038.023Zm-5.135-2.964a.658.658,0,1,0,.656-1.14L101.084,30.5a.657.657,0,1,0-.658,1.138l2.567,1.483Zm-6.418-3.707a.657.657,0,1,0,.657-1.138l-2.567-1.483a.657.657,0,1,0-.656,1.139Z" fill="#89b1bb" fill-rule="evenodd"/><path d="M0,42.873l36.268-.4,6.8-12.555,6.427-3.578,2.572,8.766c.232,1.058.743,2.537,1.615,2.515l27.2-.65c4.346-.105,5.193,1.277,5.312,2.748a3.205,3.205,0,0,1-1.539,3.473,22.152,22.152,0,0,1-7.489,2.079s8.713-1.033,8.751,3.372-6.651,4.082-8.962,4.426c-1.449.217,3.131-.073,5.266,1.5.9.661,1.007,2.247.632,3.377-1.27,3.815-9.574,3.166-9.574,3.166s3.661.3,4.491,1.948c.494.977.073,2.512-1.3,3.671-1.152.975-2.915,1.661-6,1.734L.358,70.134Z" fill="#d6947c" fill-rule="evenodd"/><path d="M61.441,60.481a.606.606,0,0,0,0,1.212l13.374-.007a.6.6,0,1,0,0-1.208Z" fill="#b77a65" fill-rule="evenodd"/><path d="M61.128,52.1a.606.606,0,1,0,0,1.212l18.146-.006a.606.606,0,1,0,0-1.211Z" fill="#b77a65" fill-rule="evenodd"/><path d="M60.431,44.156a.6.6,0,1,0-.01,1.208l21.12.138a.6.6,0,1,0,.01-1.207Z" fill="#b77a65" fill-rule="evenodd"/><path d="M65.5,79.96a4.561,4.561,0,0,0-2.239.928l-1.274-1.274a1.046,1.046,0,1,0-.81.812L62.445,81.7a4.574,4.574,0,0,0-.927,2.237h-1.8a1.047,1.047,0,1,0,0,1.15h1.8a4.567,4.567,0,0,0,.927,2.236L61.173,88.6a1.047,1.047,0,1,0,.81.811l1.274-1.273a4.559,4.559,0,0,0,2.239.926v1.8a1.047,1.047,0,1,0,1.148,0v-1.8a4.556,4.556,0,0,0,2.237-.926l1.273,1.273a1.062,1.062,0,0,0,.284.955,1.048,1.048,0,1,0,.528-1.766l-1.274-1.275a4.559,4.559,0,0,0,.928-2.236h1.8a1.046,1.046,0,1,0,0-1.15h-1.8a4.566,4.566,0,0,0-.928-2.237l1.274-1.273a1.049,1.049,0,1,0-.528-1.768,1.064,1.064,0,0,0-.284.956l-1.273,1.274a4.558,4.558,0,0,0-2.237-.928v-1.8a1.048,1.048,0,1,0-1.148,0Z" fill="#fff" fill-rule="evenodd"/><path d="M67.02,81.091a3.5,3.5,0,0,0-1.874-.009l-.529-1.289a.812.812,0,1,0-.823.335l.529,1.292a3.515,3.515,0,0,0-1.332,1.32L61.7,82.2a.808.808,0,1,0-.343.82l1.287.538a3.528,3.528,0,0,0-.008,1.874l-1.289.529a.812.812,0,1,0,.335.822l1.292-.527A3.522,3.522,0,0,0,64.3,87.59l-.538,1.285a.811.811,0,1,0,.819.343l.538-1.286a3.525,3.525,0,0,0,1.876.007l.528,1.291a.812.812,0,1,0,.822-.336L67.815,87.6a3.508,3.508,0,0,0,1.332-1.32l1.286.538a.821.821,0,0,0,.484.6A.812.812,0,1,0,70.778,86l-1.287-.538a3.544,3.544,0,0,0,.008-1.873l1.29-.529a.809.809,0,1,0-.338-.824l-1.289.53a3.552,3.552,0,0,0-1.322-1.333l.54-1.286a.811.811,0,1,0-.9-1.111.818.818,0,0,0,.077.768Z" fill="#fff" fill-rule="evenodd"/><path d="M64.434,81.185c-1.12.482-1.759,1.5-1.428,2.264s1.507,1,2.626.514,1.759-1.495,1.43-2.264S65.555,80.7,64.434,81.185Z" fill="#fff" fill-rule="evenodd"/><path d="M58.115,78.374,74.942,89.23A10.047,10.047,0,0,0,58.115,78.374Zm15.91,12.274a10.271,10.271,0,0,1-.851.967A10.048,10.048,0,0,1,57.2,79.793L74.025,90.648ZM57.768,76.209a11.744,11.744,0,1,1-3.438,8.3A11.707,11.707,0,0,1,57.768,76.209Z" fill="#fff" fill-rule="evenodd"/><polygon points="58.922 80.906 72.76 89.828 72.141 90.791 58.303 81.87 58.922 80.906" fill="#5c4a60" fill-rule="evenodd"/></svg>