<svg xmlns="http://www.w3.org/2000/svg" viewBox="0 0 443.524 473.212"><path d="M364.488,500h-189.4c.042-1.444.084-28.176.151-29.62.227-4.627.42-9.254.622-13.881q.465-10.518,1.268-21.019c.109-1.478.2-2.956.31-4.433.017-.219.034-.437.067-.647.177-1.109.672-1.5,1.789-1.369a33.339,33.339,0,0,1,4.14.865c4.8,1.235,9.607,2.4,14.5,3.225,3.384.571,6.785,1.041,10.169,1.629a139.227,139.227,0,0,0,14.326,1.679c3.611.252,7.23.37,10.841.571,7.088.4,14.183.1,21.271-.109,3.905-.117,7.784-.621,11.664-1.108,5.2-.647,10.4-1.31,15.594-2.074,5.08-.739,10.135-1.638,15.191-2.52,9.715-1.688,19.095-4.635,28.525-7.415a192.239,192.239,0,0,0,22.035-8.212c1.428-.613,2.771-1.411,4.249-1.923,1.3-.454,1.487-.378,1.806.94,1.024,4.249,1.881,8.541,2.695,12.84,1.235,6.508,2.452,13.007,3.6,19.524.814,4.593,1.494,9.212,2.258,13.813C362.926,465.409,363.723,495.348,364.488,500Z" transform="translate(-38.866 -26.788)" fill="#4e4d4a"/><path d="M173.61,383.7c-.215-8.87.058-17.73.491-26.587.3-6.073.669-12.14,1.188-18.2a304.67,304.67,0,0,1,4.005-30.76c1.857-9.806,3.765-19.6,5.916-29.349,1.9-8.588,4.414-17.007,7-25.406,4.03-13.1,8.334-26.111,13.61-38.778,2.351-5.645,4.891-11.2,7.711-16.628.3-.577.578-1.167.863-1.752a2.444,2.444,0,0,1,1.254-1.3,1.579,1.579,0,0,0,.829-.8c.29-.541.607-1.071.949-1.581a3.873,3.873,0,0,1,3.487-1.821c3.33.059,6.653.253,9.974.479,2.455.167,4.907.391,7.37.335a3.368,3.368,0,0,1,1.755.433,39.162,39.162,0,0,0,13.635,4.441,22.684,22.684,0,0,0,5.412-.078,45.069,45.069,0,0,0,11.716-2.595,42.414,42.414,0,0,0,5.518-2.772c1.478-.839,2.972-1.648,4.446-2.5a4.831,4.831,0,0,1,1.623-.573c5.42-.922,10.792-2.081,16.178-3.175a71.093,71.093,0,0,1,8.466-1.29,8.047,8.047,0,0,1,7.106,2.913,159.392,159.392,0,0,1,12.018,14.552c2.952,4.249,5.95,8.467,8.538,12.954a105,105,0,0,1,8.382,19.27,236.589,236.589,0,0,1,7.2,26.8c1.858,8.885,3.535,17.805,5.114,26.743,1.435,8.12,2.719,16.263,3.629,24.463.531,4.781,1.176,9.549,1.736,14.327.628,5.354,1.109,10.722,1.525,16.1q1.082,13.971,1,27.982c-.02,4.922-.157,9.841-.638,14.744-.843,8.61.27,18.475-3.8,26.093a31.114,31.114,0,0,1-14.168,13.291,67.6,67.6,0,0,1-12.753,4.527c-6.146,1.64-12.311,3.216-18.543,4.5-8.568,1.772-20.782,1.77-29.4,3.264-4.456.773-8.954,1.244-13.462,1.622-4.074.342-8.146.7-12.227.953a139.945,139.945,0,0,1-15.079.212c-7.375-.341-14.732-.933-22.094-1.45-3.569-.251-7.121-.757-10.681-1.141-5.323-.573-10.618-1.355-15.922-2.068a108.378,108.378,0,0,1-13.692-2.833,14.212,14.212,0,0,1-2.536-.95,5.827,5.827,0,0,1-3.257-3.847,34.194,34.194,0,0,1-1.052-6.851c-.3-5.1-.209-10.2-.228-15.3C173.685,397.451,173.773,390.575,173.61,383.7Z" transform="translate(-38.866 -26.788)" fill="#0085c2"/><path d="M243.944,422.2a4.825,4.825,0,0,1,.108,2.654,10.787,10.787,0,0,1-.646,2.363,10.574,10.574,0,0,1-1.16,2.159,7.5,7.5,0,0,1-1.844,1.885,7.5,7.5,0,0,1-.036-2.637,10.6,10.6,0,0,1,.65-2.363,10.77,10.77,0,0,1,1.162-2.157A18.591,18.591,0,0,1,243.944,422.2Z" transform="translate(-38.866 -26.788)" fill="#174991"/><path d="M249.207,421.638a9.3,9.3,0,0,1-.124,2.95,13.9,13.9,0,0,1-.8,2.672,13.715,13.715,0,0,1-1.313,2.465,9.349,9.349,0,0,1-2,2.192,9.149,9.149,0,0,1,.12-2.947,13.7,13.7,0,0,1,.806-2.674,13.928,13.928,0,0,1,1.318-2.468A9.423,9.423,0,0,1,249.207,421.638Z" transform="translate(-38.866 -26.788)" fill="#174991"/><path d="M254.269,420.972a11.283,11.283,0,0,1-.387,3.151,17.159,17.159,0,0,1-2.184,5.718,10.976,10.976,0,0,1-2.042,2.506,10.914,10.914,0,0,1,.151-3.231,16.783,16.783,0,0,1,.842-2.971,17.1,17.1,0,0,1,1.364-2.783A10.717,10.717,0,0,1,254.269,420.972Z" transform="translate(-38.866 -26.788)" fill="#174991"/><path d="M259.041,420.278a12.619,12.619,0,0,1-.262,3.438,19.544,19.544,0,0,1-.939,3.167,19.1,19.1,0,0,1-1.453,2.965,12.348,12.348,0,0,1-2.141,2.7,12.31,12.31,0,0,1,.255-3.437,19.188,19.188,0,0,1,.944-3.169,19.512,19.512,0,0,1,1.458-2.967A12.313,12.313,0,0,1,259.041,420.278Z" transform="translate(-38.866 -26.788)" fill="#174991"/><path d="M264.808,419.228a14.348,14.348,0,0,1-.314,3.686,22.759,22.759,0,0,1-.994,3.42,22.2,22.2,0,0,1-1.511,3.222,14.045,14.045,0,0,1-2.2,2.963,14.081,14.081,0,0,1,.309-3.684,22.384,22.384,0,0,1,1-3.423,22.634,22.634,0,0,1,1.516-3.225A14.1,14.1,0,0,1,264.808,419.228Z" transform="translate(-38.866 -26.788)" fill="#174991"/><path d="M269.225,418.346a19.407,19.407,0,0,1-1.337,7.258,23.142,23.142,0,0,1-1.518,3.3,14.59,14.59,0,0,1-2.21,3.047,14.625,14.625,0,0,1,.315-3.759,23.406,23.406,0,0,1,1.007-3.5,23.643,23.643,0,0,1,1.524-3.309A13.7,13.7,0,0,1,269.225,418.346Z" transform="translate(-38.866 -26.788)" fill="#174991"/><path d="M272.942,417.537a18.7,18.7,0,0,1-.409,3.97,26.73,26.73,0,0,1-1.061,3.718,26.218,26.218,0,0,1-1.579,3.525,16.4,16.4,0,0,1-2.273,3.274,16.393,16.393,0,0,1,.373-3.974,27.081,27.081,0,0,1,2.653-7.255A14.906,14.906,0,0,1,272.942,417.537Z" transform="translate(-38.866 -26.788)" fill="#174991"/><path d="M277.518,416.466a17.6,17.6,0,0,1-.382,4.089,28.541,28.541,0,0,1-1.073,3.851,28.016,28.016,0,0,1-1.595,3.668,17.367,17.367,0,0,1-2.289,3.419,17.444,17.444,0,0,1,.38-4.094,28.069,28.069,0,0,1,1.075-3.846,28.494,28.494,0,0,1,1.6-3.663A17.7,17.7,0,0,1,277.518,416.466Z" transform="translate(-38.866 -26.788)" fill="#174991"/><path d="M281.742,415.4a17.6,17.6,0,0,1-.369,4.1,28.709,28.709,0,0,1-1.061,3.866,28.23,28.23,0,0,1-1.583,3.686,17.506,17.506,0,0,1-2.279,3.44,17.5,17.5,0,0,1,.367-4.106,28.185,28.185,0,0,1,1.063-3.862,28.7,28.7,0,0,1,1.585-3.68A17.85,17.85,0,0,1,281.742,415.4Z" transform="translate(-38.866 -26.788)" fill="#174991"/><path d="M286.566,414.1a18.656,18.656,0,0,1-.376,4.216,30.413,30.413,0,0,1-1.068,3.982,29.728,29.728,0,0,1-1.592,3.8,18.4,18.4,0,0,1-2.289,3.565,18.376,18.376,0,0,1,.373-4.218,29.685,29.685,0,0,1,1.071-3.979,30.36,30.36,0,0,1,1.594-3.8A18.706,18.706,0,0,1,286.566,414.1Z" transform="translate(-38.866 -26.788)" fill="#174991"/><path d="M291.661,412.65a16.3,16.3,0,0,1-.419,4.2,29.949,29.949,0,0,1-1.16,3.928,29.437,29.437,0,0,1-1.68,3.737,18.146,18.146,0,0,1-2.371,3.48,18.224,18.224,0,0,1,.473-4.183,29.288,29.288,0,0,1,1.163-3.926,29.97,29.97,0,0,1,1.682-3.734A21.257,21.257,0,0,1,291.661,412.65Z" transform="translate(-38.866 -26.788)" fill="#174991"/><path d="M298.632,410.48a21.949,21.949,0,0,1-.6,4.544,35.438,35.438,0,0,1-1.278,4.276,42.561,42.561,0,0,1-1.572,4.17,21.565,21.565,0,0,1-2.262,3.978,21.531,21.531,0,0,1,.333-4.594,30.2,30.2,0,0,1,1.066-4.386,36.166,36.166,0,0,1,1.815-4.129A21.748,21.748,0,0,1,298.632,410.48Z" transform="translate(-38.866 -26.788)" fill="#174991"/><path d="M304.814,408.439l-.149,2.32c-.081.763-.165,1.527-.3,2.274a36.571,36.571,0,0,1-1.056,4.4,35.784,35.784,0,0,1-1.584,4.24,21.862,21.862,0,0,1-2.29,4.025,21.922,21.922,0,0,1,.355-4.621,36.089,36.089,0,0,1,1.061-4.408,36.46,36.46,0,0,1,1.589-4.243c.307-.694.665-1.372,1.024-2.049.2-.332.38-.67.592-1A8.55,8.55,0,0,1,304.814,408.439Z" transform="translate(-38.866 -26.788)" fill="#174991"/><path d="M311.241,406.2a22.988,22.988,0,0,1-.521,4.666,42.02,42.02,0,0,1-1.2,4.419,36.97,36.97,0,0,1-1.458,4.355,22.687,22.687,0,0,1-2.173,4.173,22.637,22.637,0,0,1,.223-4.718,37.577,37.577,0,0,1,.939-4.536,34.58,34.58,0,0,1,1.742-4.307A22.909,22.909,0,0,1,311.241,406.2Z" transform="translate(-38.866 -26.788)" fill="#174991"/><path d="M316.394,404.7a3.282,3.282,0,0,1,.364,1.179c0,.434-.033.791-.062,1.188-.092.764-.209,1.516-.348,2.232-.262,1.381-.5,2.891-.888,4.309a34.631,34.631,0,0,1-1.386,4.228,21.248,21.248,0,0,1-2.1,4.047,21.27,21.27,0,0,1,.143-4.562,34.875,34.875,0,0,1,.859-4.382,25.792,25.792,0,0,1,1.456-4.27c.325-.694.708-1.337,1.068-1.985l.564-.947A6.24,6.24,0,0,0,316.394,404.7Z" transform="translate(-38.866 -26.788)" fill="#174991"/><path d="M321.89,403.328a6.656,6.656,0,0,1,.116,2.284c-.055.738-.112,1.475-.219,2.2a33.985,33.985,0,0,1-.9,4.266,36.9,36.9,0,0,1-1.415,4.125,20.441,20.441,0,0,1-2.111,3.939,20.4,20.4,0,0,1,.158-4.47,30.288,30.288,0,0,1,.886-4.276,33.976,33.976,0,0,1,1.439-4.124c.283-.675.617-1.336.952-2C321.145,404.577,321.6,404.03,321.89,403.328Z" transform="translate(-38.866 -26.788)" fill="#174991"/><path d="M326.8,402.346a17.087,17.087,0,0,1-.138,4.248,34.679,34.679,0,0,1-.844,4.022c-.351,1.316-.764,2.584-1.218,3.892a18.581,18.581,0,0,1-1.845,3.809,18.381,18.381,0,0,1-.131-4.251,20.821,20.821,0,0,1,.708-4.12,27.325,27.325,0,0,1,1.391-3.91A20.675,20.675,0,0,1,326.8,402.346Z" transform="translate(-38.866 -26.788)" fill="#174991"/><path d="M332.49,399.009a22.049,22.049,0,0,1-.125,4.622,36.442,36.442,0,0,1-.835,4.446,35.83,35.83,0,0,1-1.37,4.311,21.877,21.877,0,0,1-2.086,4.13,21.871,21.871,0,0,1,.122-4.625,35.855,35.855,0,0,1,.838-4.444,36.469,36.469,0,0,1,1.374-4.308A22.173,22.173,0,0,1,332.49,399.009Z" transform="translate(-38.866 -26.788)" fill="#174991"/><path d="M337.986,396.85a1.9,1.9,0,0,1,.116.3,2.369,2.369,0,0,1,.014.333l-.018.6c-.013.4-.056.795-.082,1.193-.09.784-.182,1.568-.324,2.336a38.933,38.933,0,0,1-1.109,4.531c-.233.741-.479,1.479-.752,2.209-.233.737-.478,1.471-.76,2.2a23.358,23.358,0,0,1-2.1,4.276,23.224,23.224,0,0,1,.145-4.792c.093-.786.221-1.564.365-2.337.187-.758.4-1.508.628-2.255a39.356,39.356,0,0,1,1.649-4.395c.318-.719.686-1.424,1.056-2.127.2-.346.39-.7.607-1.039l.327-.512c.056-.087.127-.169.158-.231C337.937,397.058,337.95,396.948,337.986,396.85Z" transform="translate(-38.866 -26.788)" fill="#174991"/><path d="M343.091,394.3a22.706,22.706,0,0,1-.17,4.972,42.213,42.213,0,0,1-1.019,4.744,41.293,41.293,0,0,1-1.554,4.6,24.916,24.916,0,0,1-2.263,4.4,24.946,24.946,0,0,1,.311-4.939,41.366,41.366,0,0,1,1.023-4.74,41.93,41.93,0,0,1,1.555-4.594A28.545,28.545,0,0,1,343.091,394.3Z" transform="translate(-38.866 -26.788)" fill="#174991"/><path d="M348.784,392.728a10.182,10.182,0,0,1,.138,4.794c-.123.776-.261,1.5-.4,2.239s-.324,1.5-.511,2.25a37.312,37.312,0,0,1-1.424,4.4,22.64,22.64,0,0,1-2.136,4.208,22.728,22.728,0,0,1,.176-4.713,37.157,37.157,0,0,1,.888-4.523c.2-.742.407-1.48.644-2.211a22.57,22.57,0,0,1,.822-2.2C347.6,395.548,348.239,394.254,348.784,392.728Z" transform="translate(-38.866 -26.788)" fill="#174991"/><path d="M355.065,391.746a2.4,2.4,0,0,1,.12.273,1.424,1.424,0,0,1,.009.327l-.04.57c-.031.381-.1.749-.146,1.124-.139.734-.285,1.462-.469,2.164-.369,1.429-.756,2.694-1.109,4.126a32.891,32.891,0,0,1-1.415,4.108,20.7,20.7,0,0,1-2.133,3.933,20.468,20.468,0,0,1,.184-4.483,33.946,33.946,0,0,1,.9-4.307,16.86,16.86,0,0,1,1.7-4.13c.359-.648.77-1.263,1.174-1.879l.649-.908.341-.452a1.781,1.781,0,0,0,.154-.2C355.016,391.942,355.029,391.837,355.065,391.746Z" transform="translate(-38.866 -26.788)" fill="#174991"/><path d="M269.764,248.012a55.5,55.5,0,0,1,8.144,1.209c8.556,1.8,17.028,3.962,25.518,6.047,2.6.638,5.168,1.366,7.747,2.066.813.221,1.024.516.787,1.343a56.923,56.923,0,0,1-3.554,9.765c-.527,1.065-.814,1.182-2,.82-2.969-.912-5.913-1.909-8.894-2.783-5.546-1.624-11.122-3.146-16.663-4.787-3.67-1.088-7.307-2.292-10.887-3.656a25.269,25.269,0,0,1-4.571-2.231,5.286,5.286,0,0,1-2.071-2.307,3.525,3.525,0,0,1,1.856-4.873A10.712,10.712,0,0,1,269.764,248.012Z" transform="translate(-38.866 -26.788)" fill="#fff"/><path d="M311.165,262.21a28.793,28.793,0,0,1-1.1,3.695c-.3.617-.713.745-1.575.531-1.086-.27-2.172-.543-3.241-.872q-11.9-3.659-23.8-7.343a5.628,5.628,0,0,1-.613-.215.961.961,0,0,1-.672-1.288c.156-.778.337-1.554.567-2.313.313-1.029.638-1.222,1.678-.958,1.924.489,3.833,1.036,5.754,1.534,5.591,1.449,11.188,2.87,16.774,4.335,1.71.448,3.395.991,5.085,1.511C310.887,261.091,311.184,261.444,311.165,262.21Z" transform="translate(-38.866 -26.788)" fill="#ff3200"/><path d="M152.391,470.839c-3.45-.107-6.217-1.231-8.032-4.156a46.748,46.748,0,0,1-5.246-10.919c-1.151-3.77-2.541-7.46-3.682-11.232a18.692,18.692,0,0,1-.829-4.793,4.4,4.4,0,0,1,1.955-3.891,18.274,18.274,0,0,1,3.481-1.984c5.748-2.559,11.588-4.886,17.552-6.9,4.421-1.49,8.892-2.8,13.405-3.979s8.852-2.919,13.278-4.379c8.514-2.81,16.913-5.936,25.262-9.2a17.055,17.055,0,0,1,2.164-.7,1.706,1.706,0,0,1,2.195.912,20.434,20.434,0,0,1,1.277,2.512c2.65,5.514,4.786,11.243,7.05,16.917,1.165,2.92,2.2,5.894,3.25,8.858a13.467,13.467,0,0,1,.841,3.91,3.9,3.9,0,0,1-1.24,3.119,10.591,10.591,0,0,1-2.944,2c-2.818,1.318-5.732,2.4-8.627,3.535-8.35,3.259-16.558,6.873-24.96,10a243.548,243.548,0,0,1-25.125,8.237,65.93,65.93,0,0,1-9.221,1.952C153.548,470.739,152.9,470.792,152.391,470.839Z" transform="translate(-38.866 -26.788)" fill="#c1c1c1"/><path d="M218.011,437.4a6.089,6.089,0,0,1-12.175.218c-.066-3.137,2.818-5.84,6.168-5.858A5.685,5.685,0,0,1,218.011,437.4Z" transform="translate(-38.866 -26.788)" fill="#fff"/><path d="M174.722,451.681a6.088,6.088,0,0,1-12.174.218c-.067-3.137,2.818-5.84,6.168-5.858A5.683,5.683,0,0,1,174.722,451.681Z" transform="translate(-38.866 -26.788)" fill="#fff"/><path d="M203.411,442.636a6.088,6.088,0,0,1-12.174.218c-.067-3.137,2.818-5.84,6.168-5.859A5.684,5.684,0,0,1,203.411,442.636Z" transform="translate(-38.866 -26.788)" fill="#fff"/><path d="M151.735,452.757a5.515,5.515,0,0,1,5.7,5.55,6.2,6.2,0,0,1-6.009,6.395,5.793,5.793,0,0,1-5.73-5.627C145.656,456.055,147.97,452.66,151.735,452.757Z" transform="translate(-38.866 -26.788)" fill="#fff"/><path d="M211.123,419.984a5.466,5.466,0,0,1-5.687,5.672,5.569,5.569,0,0,1-5.618-5.558c-.125-3.366,3.2-5.677,5.96-5.621A5.325,5.325,0,0,1,211.123,419.984Z" transform="translate(-38.866 -26.788)" fill="#fff"/><path d="M140.239,441.523c-.275-2.375,2.558-5.211,5.491-5.2a5.345,5.345,0,0,1,5.515,5.488A5.285,5.285,0,0,1,146,447.444,5.661,5.661,0,0,1,140.239,441.523Z" transform="translate(-38.866 -26.788)" fill="#fff"/><path d="M157.053,435.96c-.275-2.375,2.558-5.211,5.491-5.2a5.346,5.346,0,0,1,5.515,5.488,5.285,5.285,0,0,1-5.249,5.637A5.661,5.661,0,0,1,157.053,435.96Z" transform="translate(-38.866 -26.788)" fill="#fff"/><path d="M184.189,425.3c-.275-2.374,2.558-5.21,5.491-5.2a5.344,5.344,0,0,1,5.515,5.487,5.285,5.285,0,0,1-5.249,5.637A5.661,5.661,0,0,1,184.189,425.3Z" transform="translate(-38.866 -26.788)" fill="#fff"/><path d="M188.068,417.5a2.277,2.277,0,0,0,.29,1.2,49.031,49.031,0,0,0,5.946,11.415,81.294,81.294,0,0,1,5.376,8.913,18.49,18.49,0,0,1,1.517,3.707,4.061,4.061,0,0,1,.145,1.61,1.366,1.366,0,0,1-1.438,1.319,3.927,3.927,0,0,1-2.25-.679,14.386,14.386,0,0,1-3.806-3.354c-2.771-3.394-5.274-6.984-7.74-10.6a3,3,0,0,0-.849-1.037,2.262,2.262,0,0,0,.407,1.136c1.5,3.011,3.211,5.91,4.873,8.833,1.234,2.17,2.457,4.345,3.474,6.627a10.154,10.154,0,0,1,1.04,3.517c.042.722.15,1.519-.6,1.958-.77.454-1.48.033-2.117-.387a17.782,17.782,0,0,1-3.389-3.188,104.364,104.364,0,0,1-7.137-9.289c-1.186-1.686-2.392-3.359-3.6-5.029a2.167,2.167,0,0,0-.7-.775,4.05,4.05,0,0,0,.416,1.323,58.542,58.542,0,0,0,2.882,5.951c1.616,3.031,3.308,6.024,4.742,9.148a15.9,15.9,0,0,1,1.533,4.838,2.774,2.774,0,0,1-.057,1.182,1.318,1.318,0,0,1-1.685.947,4.945,4.945,0,0,1-1.86-1.081,30.41,30.41,0,0,1-6.269-7.01c-2.189-3.325-4.122-6.8-6.121-10.243a6.375,6.375,0,0,0-.75-1.086,2.18,2.18,0,0,0,.264,1.124c1.428,3.827,2.817,7.668,4.079,11.554a28.523,28.523,0,0,1,.917,3.457,5.417,5.417,0,0,1,.1,2.049,1.537,1.537,0,0,1-2.152,1.139,3.288,3.288,0,0,1-1.029-.782,20.658,20.658,0,0,1-2.53-3.382,84.443,84.443,0,0,1-10.357-23.3c-.874-3.133-1.941-6.212-2.524-9.422-.11-.6-.232-1.21-.288-1.82-.072-.77.141-1.039.882-1.254a17.376,17.376,0,0,1,2.791-.38,90.874,90.874,0,0,0,15.492-3.165,62.005,62.005,0,0,0,12.81-5.812,6.126,6.126,0,0,1,1.563-.731c.785-.195,1.038-.146,1.413.583.661,1.285,1.281,2.592,1.88,3.908.389.855,1.233,2.812,1.546,3.7Z" transform="translate(-38.866 -26.788)" fill="#ffc4a8"/><path d="M126.346,316.763a141.933,141.933,0,0,1,8.526-50.424c1.962-5.71,3.85-11.448,6.272-16.986a125.285,125.285,0,0,1,14.872-25.909,82.889,82.889,0,0,1,9.4-10.5c2.566-2.393,4.977-4.946,7.6-7.282a58.879,58.879,0,0,1,7.526-5.681,102.042,102.042,0,0,1,17.71-9.133,82.884,82.884,0,0,1,12.1-3.392,59.033,59.033,0,0,1,15.091-1.322,7.292,7.292,0,0,1,1.925.3,1.193,1.193,0,0,1,.789,1.928,35.508,35.508,0,0,1-2.9,4.32c-2.691,3.458-5.589,6.738-8.545,9.967a25.529,25.529,0,0,0-3.53,4.92c-4.846,8.772-9.5,17.641-13.483,26.844a144.513,144.513,0,0,0-5.345,14.091c-.39,1.24-.831,2.465-1.28,3.685a70.02,70.02,0,0,0-3.1,10.357c-1.374,6.84-2.8,13.67-4.094,20.526a178.894,178.894,0,0,0-2.412,23.727c-.358,6.616-.555,13.232-.4,19.855.136,5.717.629,11.412,1.2,17.1a153.387,153.387,0,0,0,2.25,15.342c1.241,6.093,2.239,12.24,3.729,18.276,1.118,4.53,2.117,9.083,3.077,13.644a29.468,29.468,0,0,1,.385,11c-.095.57-.237,1.132-.37,1.695a10.6,10.6,0,0,1-4.121,6.189,30.926,30.926,0,0,1-7.671,4A60.937,60.937,0,0,1,168.28,417.5a19.259,19.259,0,0,1-2.481.261,41.021,41.021,0,0,0-5.057.59,18.326,18.326,0,0,1-6.264-.081,10.338,10.338,0,0,1-7.431-5.455c-1.405-2.7-2.493-5.536-3.657-8.341-2.245-5.412-4.4-10.857-6.1-16.468a167.507,167.507,0,0,1-4.345-18.244c-1-5.439-2.084-10.865-2.96-16.327a236.459,236.459,0,0,1-2.995-23.667C126.733,325.436,126.449,321.105,126.346,316.763Z" transform="translate(-38.866 -26.788)" fill="#56caf4"/><path d="M159.464,237.24a8.089,8.089,0,0,1-1.654,2.2,12.083,12.083,0,0,1-2.052,1.585,11.931,11.931,0,0,1-2.347,1.116,8.166,8.166,0,0,1-2.73.486,8.174,8.174,0,0,1,1.661-2.206,11.812,11.812,0,0,1,2.045-1.575,12.025,12.025,0,0,1,2.338-1.107A8.483,8.483,0,0,1,159.464,237.24Z" transform="translate(-38.866 -26.788)" fill="#3a6ebc"/><path d="M157.87,242.246a10.181,10.181,0,0,1-1.961,2.343,23.27,23.27,0,0,1-2.26,1.805,14.657,14.657,0,0,1-2.539,1.379,10.015,10.015,0,0,1-2.965.778,9.806,9.806,0,0,1,1.843-2.463,15.059,15.059,0,0,1,2.268-1.859,11.391,11.391,0,0,1,2.6-1.359A9.876,9.876,0,0,1,157.87,242.246Z" transform="translate(-38.866 -26.788)" fill="#3a6ebc"/><path d="M156.579,247.133a11.612,11.612,0,0,1-2.1,2.555,17.892,17.892,0,0,1-2.493,1.938,17.484,17.484,0,0,1-2.79,1.47,11.353,11.353,0,0,1-3.19.851,11.418,11.418,0,0,1,2.1-2.557,17.607,17.607,0,0,1,2.5-1.936,17.826,17.826,0,0,1,2.8-1.47A11.435,11.435,0,0,1,156.579,247.133Z" transform="translate(-38.866 -26.788)" fill="#3a6ebc"/><path d="M155.171,252.744a12.98,12.98,0,0,1-2.312,2.653,20.4,20.4,0,0,1-2.7,2.035,20.092,20.092,0,0,1-3,1.566,12.792,12.792,0,0,1-3.39.943,12.842,12.842,0,0,1,2.31-2.655,20.1,20.1,0,0,1,2.7-2.032,20.4,20.4,0,0,1,3-1.564A12.957,12.957,0,0,1,155.171,252.744Z" transform="translate(-38.866 -26.788)" fill="#3a6ebc"/><path d="M153.983,258.2a15.586,15.586,0,0,1-2.542,2.918,25.036,25.036,0,0,1-2.947,2.31,24.586,24.586,0,0,1-3.254,1.85,15.369,15.369,0,0,1-3.665,1.238,15.35,15.35,0,0,1,2.539-2.92,24.578,24.578,0,0,1,2.95-2.308,25.154,25.154,0,0,1,3.257-1.849A15.513,15.513,0,0,1,153.983,258.2Z" transform="translate(-38.866 -26.788)" fill="#3a6ebc"/><path d="M152.817,264.219a17.676,17.676,0,0,1-2.739,3.066,28.5,28.5,0,0,1-3.147,2.459,27.951,27.951,0,0,1-3.455,2,17.363,17.363,0,0,1-3.867,1.389,17.371,17.371,0,0,1,2.736-3.068,27.851,27.851,0,0,1,3.149-2.457,28.512,28.512,0,0,1,3.458-2A17.556,17.556,0,0,1,152.817,264.219Z" transform="translate(-38.866 -26.788)" fill="#3a6ebc"/><path d="M151.672,271.11a20.217,20.217,0,0,1-2.908,3.309,32.886,32.886,0,0,1-3.327,2.71,32.129,32.129,0,0,1-3.646,2.259,19.794,19.794,0,0,1-4.076,1.66,19.788,19.788,0,0,1,2.9-3.309,32.227,32.227,0,0,1,3.332-2.711,33.067,33.067,0,0,1,3.652-2.259A20.036,20.036,0,0,1,151.672,271.11Z" transform="translate(-38.866 -26.788)" fill="#3a6ebc"/><path d="M150.829,277.434a21.375,21.375,0,0,1-3.026,3.378,34.981,34.981,0,0,1-3.446,2.781,34.324,34.324,0,0,1-3.765,2.329,21.031,21.031,0,0,1-4.192,1.727,21.045,21.045,0,0,1,3.023-3.38,34.393,34.393,0,0,1,3.449-2.779,35.023,35.023,0,0,1,3.769-2.327A21.158,21.158,0,0,1,150.829,277.434Z" transform="translate(-38.866 -26.788)" fill="#3a6ebc"/><path d="M150.266,283.451a24.577,24.577,0,0,1-3.237,3.659,40.707,40.707,0,0,1-3.67,3.071,39.917,39.917,0,0,1-4,2.626,24.235,24.235,0,0,1-4.439,2.035,24.249,24.249,0,0,1,3.233-3.661,40.121,40.121,0,0,1,3.673-3.069,40.841,40.841,0,0,1,4-2.624A24.539,24.539,0,0,1,150.266,283.451Z" transform="translate(-38.866 -26.788)" fill="#3a6ebc"/><path d="M149.828,290.139a30.178,30.178,0,0,1-3.518,4.129,51.507,51.507,0,0,1-8.3,6.689,29.9,29.9,0,0,1-4.785,2.555,29.743,29.743,0,0,1,3.515-4.132,49.925,49.925,0,0,1,3.978-3.558,50.818,50.818,0,0,1,4.324-3.126A30.169,30.169,0,0,1,149.828,290.139Z" transform="translate(-38.866 -26.788)" fill="#3a6ebc"/><path d="M147.74,298.081a24.76,24.76,0,0,1-3.089,3.8,41.022,41.022,0,0,1-3.549,3.231,40.383,40.383,0,0,1-3.9,2.8,24.466,24.466,0,0,1-4.361,2.228,24.4,24.4,0,0,1,3.087-3.8,40.259,40.259,0,0,1,3.551-3.229,40.983,40.983,0,0,1,3.9-2.8A24.694,24.694,0,0,1,147.74,298.081Z" transform="translate(-38.866 -26.788)" fill="#3a6ebc"/><path d="M149.549,302.717a31.6,31.6,0,0,1-3.509,4.3,53.348,53.348,0,0,1-3.983,3.748,52.361,52.361,0,0,1-4.341,3.326,31.268,31.268,0,0,1-4.818,2.764,31.229,31.229,0,0,1,3.507-4.307,52.53,52.53,0,0,1,3.985-3.745,53.365,53.365,0,0,1,4.343-3.323A31.689,31.689,0,0,1,149.549,302.717Z" transform="translate(-38.866 -26.788)" fill="#3a6ebc"/><path d="M149.7,308.5A45.061,45.061,0,0,1,146,312.738q-1.934,1.984-3.99,3.82c-1.374,1.226-2.8,2.4-4.286,3.515a31.955,31.955,0,0,1-4.774,3.012,32.644,32.644,0,0,1,3.405-4.5,47.5,47.5,0,0,1,3.942-3.946,42.445,42.445,0,0,1,4.41-3.447A25.653,25.653,0,0,1,149.7,308.5Z" transform="translate(-38.866 -26.788)" fill="#3a6ebc"/><path d="M150,315.127a32.721,32.721,0,0,1-3.544,4.4,54.783,54.783,0,0,1-4.019,3.845,54.172,54.172,0,0,1-4.38,3.427,32.341,32.341,0,0,1-4.863,2.869,32.215,32.215,0,0,1,3.539-4.4,54.21,54.21,0,0,1,4.023-3.844A55.2,55.2,0,0,1,145.137,318,32.6,32.6,0,0,1,150,315.127Z" transform="translate(-38.866 -26.788)" fill="#3a6ebc"/><path d="M150.382,321.022a51.809,51.809,0,0,1-3.607,4.51q-1.923,2.121-4.037,4.026a56.949,56.949,0,0,1-4.406,3.614,33.914,33.914,0,0,1-4.9,3.068,33.753,33.753,0,0,1,3.547-4.573,56.659,56.659,0,0,1,4.043-4.026q2.115-1.91,4.412-3.615A25.673,25.673,0,0,1,150.382,321.022Z" transform="translate(-38.866 -26.788)" fill="#3a6ebc"/><path d="M151.054,327.956a35.38,35.38,0,0,1-3.611,4.647q-1.959,2.164-4.117,4.119t-4.492,3.713a35.172,35.172,0,0,1-4.986,3.165,35.238,35.238,0,0,1,3.617-4.657q1.958-2.161,4.111-4.109t4.487-3.7A35.994,35.994,0,0,1,151.054,327.956Z" transform="translate(-38.866 -26.788)" fill="#3a6ebc"/><path d="M151.842,334.694a38.716,38.716,0,0,1-3.716,4.72q-2,2.2-4.2,4.184t-4.569,3.773a36.351,36.351,0,0,1-5.066,3.228A36.5,36.5,0,0,1,138,345.871q2-2.2,4.2-4.182t4.573-3.773A35.368,35.368,0,0,1,151.842,334.694Z" transform="translate(-38.866 -26.788)" fill="#3a6ebc"/><path d="M152.652,340.819a37.355,37.355,0,0,1-3.817,4.665q-2.054,2.166-4.3,4.113t-4.657,3.695a36.7,36.7,0,0,1-5.142,3.14,36.613,36.613,0,0,1,3.813-4.667q2.054-2.166,4.3-4.112t4.661-3.694A37.053,37.053,0,0,1,152.652,340.819Z" transform="translate(-38.866 -26.788)" fill="#3a6ebc"/><path d="M153.589,346.816a38.95,38.95,0,0,1-3.9,4.78q-2.1,2.223-4.384,4.23t-4.748,3.815a38.518,38.518,0,0,1-5.237,3.261,38.437,38.437,0,0,1,3.9-4.782q2.1-2.223,4.387-4.228t4.752-3.813A38.871,38.871,0,0,1,153.589,346.816Z" transform="translate(-38.866 -26.788)" fill="#3a6ebc"/><path d="M154.61,352.76a39.708,39.708,0,0,1-3.8,4.94q-2.05,2.308-4.3,4.406t-4.678,4a39.11,39.11,0,0,1-5.181,3.463,39.205,39.205,0,0,1,3.8-4.942q2.052-2.309,4.3-4.4t4.68-4A39.72,39.72,0,0,1,154.61,352.76Z" transform="translate(-38.866 -26.788)" fill="#3a6ebc"/><path d="M155.975,360.079a39.3,39.3,0,0,1-3.538,5.09q-1.929,2.391-4.063,4.581t-4.459,4.2a38.9,38.9,0,0,1-4.989,3.682,38.887,38.887,0,0,1,3.536-5.093q1.929-2.391,4.066-4.578t4.462-4.194A39.367,39.367,0,0,1,155.975,360.079Z" transform="translate(-38.866 -26.788)" fill="#3a6ebc"/><path d="M157.442,367.214a36.37,36.37,0,0,1-3.423,4.875q-1.868,2.281-3.939,4.358t-4.329,3.966a35.66,35.66,0,0,1-4.852,3.446,35.782,35.782,0,0,1,3.419-4.876q1.869-2.281,3.943-4.357t4.333-3.965A36.091,36.091,0,0,1,157.442,367.214Z" transform="translate(-38.866 -26.788)" fill="#3a6ebc"/><path d="M158.928,373.432a44.01,44.01,0,0,1-3.742,5.5c-1.341,1.748-2.776,3.408-4.264,5.021s-3.04,3.164-4.681,4.634a43.165,43.165,0,0,1-5.211,4.144,43.075,43.075,0,0,1,3.737-5.51c1.342-1.747,2.777-3.408,4.267-5.018s3.042-3.162,4.684-4.631A43.083,43.083,0,0,1,158.928,373.432Z" transform="translate(-38.866 -26.788)" fill="#3a6ebc"/><path d="M160.719,379.989a32.849,32.849,0,0,1-3.649,4.946q-1.995,2.3-4.195,4.4t-4.583,4a44.291,44.291,0,0,1-4.864,3.71,33.647,33.647,0,0,1,3.442-5.152q2-2.3,4.2-4.393A55,55,0,0,1,160.719,379.989Z" transform="translate(-38.866 -26.788)" fill="#3a6ebc"/><path d="M162.547,385.854a26.708,26.708,0,0,1-3.2,5.07q-1.878,2.268-3.963,4.336t-4.354,3.946a35.821,35.821,0,0,1-4.874,3.423,35.666,35.666,0,0,1,3.441-4.853q1.877-2.268,3.96-4.329t4.353-3.94A57.091,57.091,0,0,1,162.547,385.854Z" transform="translate(-38.866 -26.788)" fill="#3a6ebc"/><path d="M175.817,306.01c-.947.255-1.3,1.572-1.393,2.622a197.6,197.6,0,0,0,2.024,46.5c1.339,8.808,3.69,17.459,4.525,26.344a54.744,54.744,0,0,1-.2,13.151c-.472,3.176-4.61,9.623-.292,11.815,4.121,2.091,6-3.5,6.3-6.42,1.536-14.692-3.2-29.587-5.249-44.03a373.141,373.141,0,0,1-3.67-47.032c-.019-1.305-.48-3.064-1.783-2.99A1.206,1.206,0,0,0,175.817,306.01Z" transform="translate(-38.866 -26.788)" fill="#18b9f4"/><path d="M268.728,135.663c.378-.421.737-.86,1.136-1.258,2.859-2.854,6.222-4.144,10.264-3.229a8.491,8.491,0,0,1,4.934,3.382,11.588,11.588,0,0,1,2.273,6.143,15.821,15.821,0,0,1-3.073,11.26,8.528,8.528,0,0,1-6.305,3.495c-1.336.116-1.15.061-1.236,1.216a54.618,54.618,0,0,1-4.393,16.616,58.332,58.332,0,0,1-10.287,16.642,24.821,24.821,0,0,1-10.578,7.092,35.067,35.067,0,0,1-16.728,1.823,28.922,28.922,0,0,1-16.649-8.689,63.69,63.69,0,0,1-12.036-16.595,137.528,137.528,0,0,1-7.126-16.575,75.694,75.694,0,0,1-3.38-15.4c-.241-1.931-.362-3.877-.509-5.819a5.621,5.621,0,0,1,.132-1.978,1.978,1.978,0,0,1,1.641-1.542c5.83-1.016,10.776-3.871,15.4-7.393a47.266,47.266,0,0,0,10.146-10.978c.98-1.421,1.885-2.892,2.843-4.328.873-1.31,1.907-1.582,3.138-.636,5.145,3.952,11.08,6.221,17.163,8.191a57.7,57.7,0,0,1,9.427,3.9A29.835,29.835,0,0,1,268,134.514C268.192,134.9,268.273,135.363,268.728,135.663Z" transform="translate(-38.866 -26.788)" fill="#ffc4a8"/><path d="M227.9,181.66a10.419,10.419,0,0,1-4.533-.811,6.039,6.039,0,0,1-2.055-1.421,4.2,4.2,0,0,1-.284-5.982,8.587,8.587,0,0,1,1.911-1.822,22.742,22.742,0,0,1,8.848-3.728,12.262,12.262,0,0,1,5.761.366c3.312.97,3.889,3.47,3.408,6.089a6.414,6.414,0,0,1-2.837,4.166A17.943,17.943,0,0,1,227.9,181.66Z" transform="translate(-38.866 -26.788)" fill="#ff3200"/><path d="M227.036,160.68a11.837,11.837,0,0,1,.036,2.266,1.51,1.51,0,0,1-1.457,1.588,32.274,32.274,0,0,1-6.042.607c-1.953-.007-2.445-.744-1.674-2.514a72.369,72.369,0,0,0,5.33-20.362,4.546,4.546,0,0,1,.178-.908.838.838,0,0,1,.792-.561.773.773,0,0,1,.806.521,3.344,3.344,0,0,1,.241,1.1c.334,4.49,1.011,8.945,1.394,13.431C226.778,157.46,226.905,159.07,227.036,160.68Z" transform="translate(-38.866 -26.788)" fill="#e46c44"/><path d="M247.5,160.148c-4.986-.211-9.552-1.378-13.489-4.433a15.973,15.973,0,0,1-1.7-1.474,3.405,3.405,0,0,1-.947-2.928,2.944,2.944,0,0,1,4.341-2.342c.86.455,1.691.964,2.553,1.414a22.817,22.817,0,0,0,7.905,2.108c1.448.18,2.913.284,4.34.572a3.215,3.215,0,0,1,2.875,3.666,3.513,3.513,0,0,1-2.453,2.879A10.332,10.332,0,0,1,247.5,160.148Z" transform="translate(-38.866 -26.788)" fill="#ffaa92"/><path d="M236.945,125.673a22.329,22.329,0,0,1,16.079,6.84,4.2,4.2,0,0,1,.71.955,1,1,0,0,1-.858,1.522,2.625,2.625,0,0,1-1.167-.2c-.912-.339-1.844-.629-2.74-1a33.88,33.88,0,0,0-12.046-2.352c-.884-.033-1.765-.118-2.647-.193a1.713,1.713,0,0,1-1.545-1.263,11.084,11.084,0,0,1-.478-2.6c-.081-.793.186-1.08,1.015-1.289C234.351,125.807,235.474,125.921,236.945,125.673Z" transform="translate(-38.866 -26.788)" fill="#4e4d4a"/><path d="M206.3,162.273a2.664,2.664,0,0,1-2.718-1.9,2.6,2.6,0,0,1,1.3-3.045,11.939,11.939,0,0,1,1.857-.7,16.559,16.559,0,0,0,8.326-5.866,4.051,4.051,0,0,1,.435-.5,2.592,2.592,0,0,1,3.29-.333,2.621,2.621,0,0,1,.986,3.268,5.513,5.513,0,0,1-.756,1.24,22.5,22.5,0,0,1-11.939,7.721A5.079,5.079,0,0,1,206.3,162.273Z" transform="translate(-38.866 -26.788)" fill="#ffaa92"/><path d="M215.179,130.33c1.7-.059,2.4.54,2.637,2.136a2.088,2.088,0,0,1-1.689,2.7c-1.533.417-3.094.728-4.617,1.195a42.814,42.814,0,0,0-10.544,5.2,9.6,9.6,0,0,1-1.259.73.99.99,0,0,1-1.211-.247.919.919,0,0,1-.091-1.106,4.045,4.045,0,0,1,.729-1.1,41.531,41.531,0,0,1,7.085-6.17,24.289,24.289,0,0,1,7.681-3.16A11.43,11.43,0,0,1,215.179,130.33Z" transform="translate(-38.866 -26.788)" fill="#4e4d4a"/><path d="M238.808,143.893c2.631.544,5.278.752,7.907,1.088,1.294.165,1.84.625,1.761,1.511-.077.861-.743,1.308-2.015,1.178a81.242,81.242,0,0,1-9.316-1.325,5.053,5.053,0,0,1-1.843-.714,1.721,1.721,0,0,1-.311-2.825,4.808,4.808,0,0,1,1.278-.938c2.568-1.386,5.193-2.658,7.859-3.844a3.219,3.219,0,0,1,1.146-.291,1.191,1.191,0,0,1,1.249.8,1.228,1.228,0,0,1-.44,1.533,6.393,6.393,0,0,1-.946.466l-5.972,2.876A.487.487,0,0,0,238.808,143.893Z" transform="translate(-38.866 -26.788)" fill="#333230"/><path d="M211.154,147.01c-1.542-.31-3.083-.624-4.626-.927-.607-.119-1.228-.176-1.826-.328a1.38,1.38,0,0,1-1.179-1.52,1.317,1.317,0,0,1,1.55-1.105,13.132,13.132,0,0,1,1.835.267c2.3.457,4.595.912,6.882,1.411.819.179,1.692.408,1.921,1.4a2.054,2.054,0,0,1-1.127,2.215,69.917,69.917,0,0,1-7.759,4.313,1.32,1.32,0,0,1-1.331-2.279,10.7,10.7,0,0,1,1.265-.721q2.21-1.19,4.423-2.372Z" transform="translate(-38.866 -26.788)" fill="#333230"/><path d="M226.8,111.648c-.256.121-.355.377-.5.59a66.889,66.889,0,0,1-12.287,13.343,58.006,58.006,0,0,1-17.671,10.59,33.416,33.416,0,0,1-16.336,1.683,18.706,18.706,0,0,1-6.224-2.21c-3.806-2.072-5.652-5.45-6.4-9.578a19.773,19.773,0,0,1,2.535-13.42c3.782-6.836,9.646-10.917,17.156-12.761a24.693,24.693,0,0,1,4.436-.8,1.3,1.3,0,0,0,1.353-1.127,32.11,32.11,0,0,1,4.039-8.915c4.758-7.342,11.383-11.96,20.079-13.231A29.994,29.994,0,0,1,232.605,77.9a36.511,36.511,0,0,1,4.574,2.116,2,2,0,0,0,1.631.183,43.832,43.832,0,0,1,27.11,1.5c1.109.417.943.629,1.6-.717,3.464-7.1,8.471-12.718,15.753-16.069a26.143,26.143,0,0,1,10.918-2.5,22.92,22.92,0,0,1,11.16,3,33.2,33.2,0,0,1,8.86,7.327c2.266,2.547,4.489,5.134,6.784,7.654a25.789,25.789,0,0,0,5.1,4.431,13.466,13.466,0,0,0,17.621-2.286,13.133,13.133,0,0,0,1.254-1.711,1.972,1.972,0,0,1,1.988-1.061c.851.127,1.229.769,1.468,1.536a20.585,20.585,0,0,1,.829,7.218,27.8,27.8,0,0,1-8.344,18.447,21.21,21.21,0,0,1-12.5,6.183,25.6,25.6,0,0,1-16.016-3.04,42.453,42.453,0,0,1-13.209-11.337c-2.276-2.829-4.382-5.791-6.75-8.548a26.205,26.205,0,0,0-5.262-4.842,13.978,13.978,0,0,0-10.555-2.553,11.147,11.147,0,0,0-4.254,1.754.388.388,0,0,0,.229.423,48.263,48.263,0,0,1,12.465,11.627,52.959,52.959,0,0,1,11.1,26.209,53.5,53.5,0,0,1-1.748,23.38,43.805,43.805,0,0,1-4.569,9.707,20.134,20.134,0,0,1-2.53,3.239,3.06,3.06,0,0,1-3.015.948,64.83,64.83,0,0,1-7.67-2.117,2.476,2.476,0,0,1-1.9-2.562c0-.176-.014-.353-.02-.53-.084-2.512.094-2.778,2.393-3.785,5.519-2.417,6.933-7.4,5.744-12.271a8.5,8.5,0,0,0-1.457-3.248,5.57,5.57,0,0,0-6.02-2.058,10.265,10.265,0,0,0-5.228,3.462,9.676,9.676,0,0,1-1.064,1.181,1.778,1.778,0,0,1-2.94-.686,5.948,5.948,0,0,1-.26-.751c-1.736-5.661-5.532-9.465-10.793-11.927a50.126,50.126,0,0,0-7.909-2.672,86.812,86.812,0,0,1-9.764-2.982,25.759,25.759,0,0,1-10-7.036C227.234,111.949,227.1,111.7,226.8,111.648Z" transform="translate(-38.866 -26.788)" fill="#4e4d4a"/><path d="M182.129,132.283a14.507,14.507,0,0,1-3.168-.311,9.152,9.152,0,0,1-7.075-7.855,12.992,12.992,0,0,1,.949-6.494,22.885,22.885,0,0,1,9.13-10.421,31.009,31.009,0,0,1,12.2-4.611,6.5,6.5,0,0,1,1.454-.072c.682.049,1.069.445,1.023.976-.051.6-.463.808-1,.841a23.64,23.64,0,0,0-7.209,1.654c-4.968,1.944-9.268,4.8-12.289,9.309a13.472,13.472,0,0,0-2.475,6.641,7.769,7.769,0,0,0,2.17,6.316,7.564,7.564,0,0,0,5.139,2.141,23.811,23.811,0,0,0,9.859-1.746,66.392,66.392,0,0,0,16.1-8.892,82.038,82.038,0,0,0,13.336-12.7c.729-.833,1.428-1.69,2.149-2.53.471-.548.966-.672,1.363-.327a1,1,0,0,1,.165,1.327,2.805,2.805,0,0,1-.39.535c-4.029,4.655-8.079,9.291-12.92,13.146a67.38,67.38,0,0,1-20.44,11.6A25.571,25.571,0,0,1,182.129,132.283Z" transform="translate(-38.866 -26.788)" fill="#333230"/><path d="M333.384,92.658a17.293,17.293,0,0,1-9.09-2.353,46,46,0,0,1-10.074-8.166,60.13,60.13,0,0,0-9.557-8.4,22.97,22.97,0,0,0-13.209-4.162,19.75,19.75,0,0,0-11.576,4.075c-.931.675-1.833,1.39-2.746,2.09-.633.485-1.022.52-1.4.116a1.042,1.042,0,0,1,.118-1.436,1.5,1.5,0,0,1,.191-.183c4.58-3.767,9.569-6.566,15.723-6.516a25.036,25.036,0,0,1,13.939,4.507,61.849,61.849,0,0,1,9.023,7.808c1.256,1.249,2.5,2.513,3.779,3.734A32.231,32.231,0,0,0,325,88.586c5.965,3.337,11.856,2.949,17.622-.543a7.422,7.422,0,0,0,2.31-2.165,8.534,8.534,0,0,1,.82-1.043.853.853,0,0,1,1.188-.207.906.906,0,0,1,.221,1.293,4.4,4.4,0,0,1-.386.539c-2.553,3.607-6.3,5.143-10.439,5.951A12.494,12.494,0,0,1,333.384,92.658Z" transform="translate(-38.866 -26.788)" fill="#333230"/><path d="M289.047,145.963c-.077,1.506-.149,2.921-.224,4.335a2.571,2.571,0,0,1-.055.528c-.14.516-.428.9-1.024.824a.843.843,0,0,1-.764-.929c0-.53.027-1.062.07-1.591a34.193,34.193,0,0,0-1.95-15.016,22.961,22.961,0,0,0-8-10.682,40.309,40.309,0,0,0-11.736-5.773,109.965,109.965,0,0,1-12.617-4.484,94.385,94.385,0,0,1-14.189-7.763,23.775,23.775,0,0,1-4.155-3.5,3.567,3.567,0,0,1-.82-1.2.837.837,0,0,1,.314-1.056.825.825,0,0,1,1.1.1c.466.47.848,1.025,1.322,1.485a27.807,27.807,0,0,0,4.731,3.636,91.9,91.9,0,0,0,22.88,10.4,50.331,50.331,0,0,1,11.48,4.793c7.563,4.438,11.644,11.15,13.105,19.63A39.422,39.422,0,0,1,289.047,145.963Z" transform="translate(-38.866 -26.788)" fill="#333230"/><path d="M243.614,87.543a43.245,43.245,0,0,0-5.429.374,4.426,4.426,0,0,1-1.054.022.74.74,0,0,1-.68-.7.771.771,0,0,1,.473-.867,4.945,4.945,0,0,1,1.154-.284,41.073,41.073,0,0,1,16.969,1.148c18.76,5.443,30.727,17.662,36.121,36.385a39.9,39.9,0,0,1,1.406,7.559,4.375,4.375,0,0,1-.028,1.453.841.841,0,0,1-.955.723.774.774,0,0,1-.749-.787c-.1-1.147-.178-2.293-.376-3.429-2.163-12.416-7.765-22.868-17.63-30.884A48.571,48.571,0,0,0,249.963,88,33.551,33.551,0,0,0,243.614,87.543Z" transform="translate(-38.866 -26.788)" fill="#333230"/><path d="M333.634,97.264c-6.06.164-11.217-1.768-16.08-4.686a99.208,99.208,0,0,1-8.126-5.738c-2.058-1.533-4.176-2.975-6.375-4.305a32.746,32.746,0,0,0-13.759-4.467c-1.451-.152-2.9-.351-4.361-.371-.717-.01-1.112-.361-1.1-.869a1.065,1.065,0,0,1,1.081-.964,10.587,10.587,0,0,1,1.455.062,69.231,69.231,0,0,1,7.1.935,34.349,34.349,0,0,1,12.154,5.095c3.264,2.052,6.241,4.5,9.376,6.732a37.731,37.731,0,0,0,10.879,5.695,25.367,25.367,0,0,0,11.806.711,17.459,17.459,0,0,0,4.122-1.436,6.155,6.155,0,0,1,.849-.371.845.845,0,0,1,1.085.517.809.809,0,0,1-.338,1.044,7.642,7.642,0,0,1-1.045.569A17.8,17.8,0,0,1,333.634,97.264Z" transform="translate(-38.866 -26.788)" fill="#333230"/><path d="M227.3,99.8a.917.917,0,0,1,.815.593c3.4,7.578,9.908,11.38,17.229,14.18a64.373,64.373,0,0,0,6.59,2.029,35.112,35.112,0,0,1,12.529,6.181A33.136,33.136,0,0,1,271,129.893c.341.47.483.973,0,1.432-.391.372-.962.221-1.473-.372-.26-.3-.492-.627-.723-.951a29.768,29.768,0,0,0-16.127-11.26c-2.624-.794-5.28-1.483-7.863-2.405a35.56,35.56,0,0,1-13.992-8.633,19.865,19.865,0,0,1-4.073-5.855,3.844,3.844,0,0,1-.338-1.134A.83.83,0,0,1,227.3,99.8Z" transform="translate(-38.866 -26.788)" fill="#333230"/><path d="M328.39,105.932a27.2,27.2,0,0,1-18.08-6.561c-2.59-2.149-5.01-4.484-7.478-6.767a78.765,78.765,0,0,0-8.136-6.6,4.21,4.21,0,0,1-.435-.3.871.871,0,0,1-.272-1.175.835.835,0,0,1,1.157-.329,9.463,9.463,0,0,1,1.458.909,109.353,109.353,0,0,1,10.775,9.232,44.357,44.357,0,0,0,7.874,6.272,24.272,24.272,0,0,0,17.626,2.972,19.306,19.306,0,0,0,6.977-3.124c.839-.568,1.22-.637,1.589-.176.4.5.24,1.184-.508,1.676a22.6,22.6,0,0,1-9.27,3.74A15.3,15.3,0,0,1,328.39,105.932Z" transform="translate(-38.866 -26.788)" fill="#333230"/><path d="M232.943,92.95a38,38,0,0,1,13.192,2.605,77.709,77.709,0,0,1,24.305,14.094,4.446,4.446,0,0,1,.4.346.886.886,0,1,1-1.134,1.361c-.578-.406-1.124-.858-1.669-1.309a74.752,74.752,0,0,0-25.391-13.724,31.765,31.765,0,0,0-10.711-1.541,13.963,13.963,0,0,1-1.724-.032c-.535-.047-.948-.326-.912-.927a.9.9,0,0,1,.989-.867C231.173,92.933,232.058,92.95,232.943,92.95Z" transform="translate(-38.866 -26.788)" fill="#333230"/><path d="M183.8,120.558a5.545,5.545,0,0,1-2.32-.5,1.526,1.526,0,0,1-.86-.782.87.87,0,0,1,.142-.988.717.717,0,0,1,.956-.2c1.589,1.053,3.254.559,4.884.225a40.046,40.046,0,0,0,15.407-7.133c4.673-3.37,8.934-7.235,13.269-11.012q1.15-1,2.262-2.047c.434-.409.878-.624,1.4-.209.393.31.373.883-.05,1.424a5.762,5.762,0,0,1-.75.748c-3.957,3.471-7.869,7-12,10.266-4.67,3.7-9.62,6.915-15.358,8.745A29.158,29.158,0,0,1,183.8,120.558Z" transform="translate(-38.866 -26.788)" fill="#333230"/><path d="M235.439,83.348a.813.813,0,0,1-.96.836,3.564,3.564,0,0,1-1.09-.466,26.067,26.067,0,0,0-19.14-1.375,19.833,19.833,0,0,0-13.231,12.794c-.241.665-.445,1.345-.707,2-.3.747-.774,1.038-1.284.8-.6-.282-.612-.784-.456-1.352a22.685,22.685,0,0,1,19.487-16.978,29.667,29.667,0,0,1,15.567,2.2,13.3,13.3,0,0,1,1.292.672A.959.959,0,0,1,235.439,83.348Z" transform="translate(-38.866 -26.788)" fill="#333230"/><path d="M223.052,85.176a26.687,26.687,0,0,1,5.407.578c.585.106,1.024.346,1.011,1-.011.547-.555.884-1.3.8-.615-.068-1.224-.19-1.833-.3A15.175,15.175,0,0,0,216.9,88.5a24.174,24.174,0,0,0-9.967,8.512,34.182,34.182,0,0,0-3.59,6.641,6.776,6.776,0,0,1-.434.967.842.842,0,0,1-1.107.471.885.885,0,0,1-.5-1.206q.078-.253.175-.5a33.22,33.22,0,0,1,7.018-11.168,24.008,24.008,0,0,1,11.805-6.785A15.373,15.373,0,0,1,223.052,85.176Z" transform="translate(-38.866 -26.788)" fill="#333230"/><path d="M314.859,184.1a25.113,25.113,0,0,0-3.545-9.916,30.09,30.09,0,0,0-7.009-7.553,46.223,46.223,0,0,0-19.946-8.848,28.593,28.593,0,0,0-6.042-.791,2,2,0,0,0-2.281,2.045c-.062.38.031.812-.319,1.11a5.976,5.976,0,0,0-1.51,2.9c-1.048,2.969-1.994,5.96-3.176,8.878a35.557,35.557,0,0,1-2.558,5.672c-1.264,2.035-2.6,4.018-3.843,6.053-3.124,5.087-7.646,8.529-12.928,11.067a26.284,26.284,0,0,1-8.847,2.2,36.987,36.987,0,0,1-9.937.02,25.81,25.81,0,0,1-15.332-8.837,63.385,63.385,0,0,1-9.053-13.534,19.072,19.072,0,0,0-1.675-2.867,1.675,1.675,0,0,0-2.333-.586,4.632,4.632,0,0,0-1.356,1.038,63.912,63.912,0,0,0-4.8,5.508,37.451,37.451,0,0,0-6.978,14.047c-.257,1.049-.472,2.1-.657,3.145a2.08,2.08,0,0,1,1.048,1.85,12.192,12.192,0,0,1-.37,3.288c-.463,2.384-.977,4.747-1.459,7.121a25.293,25.293,0,0,0,1.4,5.878c.5-1.212,1.028-2.415,1.583-3.607-.525-.555-1.069-1.1-1.593-1.654a6.408,6.408,0,0,1-.617-.689.788.788,0,0,1,.1-1.089.761.761,0,0,1,1.079-.113,19.645,19.645,0,0,1,1.644,1.541c.072.072.144.155.216.227.4-.843.822-1.686,1.254-2.518.524-1.007,1.068-1.994,1.664-2.949-.555-.309-1.11-.627-1.664-.946-.771-.442-1.5-.945-2.23-1.438a2.947,2.947,0,0,1-.607-.514.832.832,0,0,1-.041-1.1.781.781,0,0,1,.946-.277,3.414,3.414,0,0,1,.7.36q1.928,1.233,3.905,2.363c.535-.781,1.121-1.541,1.737-2.271a5.845,5.845,0,0,1,1.151-1.1,1.849,1.849,0,0,1,2.857.843,3.7,3.7,0,0,1,.195,2.086,16.537,16.537,0,0,1-.822,3.176c1.367.688,2.754,1.335,4.151,1.952.011-.01.021-.031.031-.041a16.515,16.515,0,0,1,2.518-2.9,2.012,2.012,0,0,1,2.178-.606,2.112,2.112,0,0,1,1.182,2.065,8.526,8.526,0,0,1-.5,3.124c-.052.164-.1.329-.155.493,2.919,1.079,5.889,2.015,8.93,2.826A85.178,85.178,0,0,0,238,213.04c7.687.452,15.055-1.049,22.279-3.515a55,55,0,0,0,19.637-11.334,76.511,76.511,0,0,0,12.116-14.9,66.2,66.2,0,0,0,6.073-12.959,27.077,27.077,0,0,0,1.243-3.637,1.926,1.926,0,0,1,.154-.5.9.9,0,0,1,1.079-.555.835.835,0,0,1,.637,1.028,13.97,13.97,0,0,1-.554,2.045c-1.038,2.723-2.087,5.456-3.176,8.159a57.306,57.306,0,0,1-6.5,11.242,61.186,61.186,0,0,1-16.247,16.431,64.5,64.5,0,0,1-18.887,8.252,53.367,53.367,0,0,1-15.065,2.137,83.3,83.3,0,0,1-22.474-3.576q-3.422-.986-6.73-2.23a45.124,45.124,0,0,1-2.241,4.861q-1.233,2.328-2.271,4.727c.987.555,1.994,1.079,3.022,1.562a85.431,85.431,0,0,0,21.559,7.245,58.677,58.677,0,0,0,13.359.77A88.4,88.4,0,0,0,265,224.919a51.131,51.131,0,0,0,17.007-8.766,84.028,84.028,0,0,0,17.829-18.825,52.461,52.461,0,0,0,4.347-7.749c1.531-3.237,2.99-6.5,4.295-9.854a11.824,11.824,0,0,0,.822-2.652.905.905,0,0,1,.936-.924c.5-.011.863.462.873,1.12a4.018,4.018,0,0,1-.339,1.551c-2.939,7.5-5.95,14.993-10.821,21.518A82.714,82.714,0,0,1,280.331,219.6a53.454,53.454,0,0,1-16.7,7.614,92.212,92.212,0,0,1-22.536,3.021,60.3,60.3,0,0,1-14.735-1.983,97.794,97.794,0,0,1-10.04-3.288,4.675,4.675,0,0,1-.267,1.428,13.1,13.1,0,0,1-1.634,3.031c-.761,1.141-1.521,2.282-2.323,3.4l-.431.617q2.542,1.216,5.241,2.2a77.167,77.167,0,0,0,25.587,4.254,90.052,90.052,0,0,0,16.472-1.408,86.439,86.439,0,0,0,39.327-17.9,50.555,50.555,0,0,0,7.861-7.676,38.366,38.366,0,0,0,5.631-9.3,37.928,37.928,0,0,0,3.4-15.547A31.091,31.091,0,0,0,314.859,184.1Zm-24.293-22.6a9.306,9.306,0,0,1-.308,1.285,55.992,55.992,0,0,1-5.785,13.348,97.455,97.455,0,0,1-12.517,16.791,42.352,42.352,0,0,1-19.051,11.325,42.9,42.9,0,0,1-13.431,1.664,40.374,40.374,0,0,1-18.384-3.689,88.835,88.835,0,0,1-19.3-12.567c-2-1.686-3.854-3.525-5.734-5.334a3.17,3.17,0,0,1-.36-.39.866.866,0,0,1,.082-1.2.787.787,0,0,1,1.089-.072,9.656,9.656,0,0,1,1.1.955,88.607,88.607,0,0,0,20.593,15.312,37.953,37.953,0,0,0,13.462,4.675c9.248,1.213,18.281.555,26.851-3.535a41.7,41.7,0,0,0,14.315-11.19,106.94,106.94,0,0,0,10.8-15.579,52.062,52.062,0,0,0,4.593-11.417,7.858,7.858,0,0,1,.288-.883.847.847,0,0,1,1.079-.545A.876.876,0,0,1,290.566,161.505Z" transform="translate(-38.866 -26.788)" fill="#f56c00"/><path d="M191.413,199.989c-.463,2.384-.977,4.747-1.459,7.121a25.685,25.685,0,0,1-.114-5.045,67.772,67.772,0,0,1,.9-7.214,2.08,2.08,0,0,1,1.048,1.85A12.192,12.192,0,0,1,191.413,199.989Z" transform="translate(-38.866 -26.788)" fill="#ff8600"/><path d="M195.7,183.938a.866.866,0,0,1,.082-1.2.787.787,0,0,1,1.089-.072,9.656,9.656,0,0,1,1.1.955,88.607,88.607,0,0,0,20.593,15.312,37.953,37.953,0,0,0,13.462,4.675c9.248,1.213,18.281.555,26.851-3.535a41.7,41.7,0,0,0,14.315-11.19,106.94,106.94,0,0,0,10.8-15.579,52.062,52.062,0,0,0,4.593-11.417,7.858,7.858,0,0,1,.288-.883.847.847,0,0,1,1.079-.545.876.876,0,0,1,.616,1.048,9.306,9.306,0,0,1-.308,1.285,55.992,55.992,0,0,1-5.785,13.348,97.455,97.455,0,0,1-12.517,16.791,42.352,42.352,0,0,1-19.051,11.325,42.9,42.9,0,0,1-13.431,1.664,40.374,40.374,0,0,1-18.384-3.689,88.835,88.835,0,0,1-19.3-12.567c-2-1.686-3.854-3.525-5.734-5.334A3.17,3.17,0,0,1,195.7,183.938Z" transform="translate(-38.866 -26.788)" fill="#ff8600"/><path d="M311.108,177.269a4.018,4.018,0,0,1-.339,1.551c-2.939,7.5-5.95,14.993-10.821,21.518A82.714,82.714,0,0,1,280.331,219.6a53.454,53.454,0,0,1-16.7,7.614,92.212,92.212,0,0,1-22.536,3.021,60.3,60.3,0,0,1-14.735-1.983,97.794,97.794,0,0,1-10.04-3.288,4.675,4.675,0,0,1-.267,1.428,13.1,13.1,0,0,1-1.634,3.031c-.761,1.141-1.521,2.282-2.323,3.4l-.431.617a46.8,46.8,0,0,1-6.114-3.453q-1.019-.663-1.973-1.388a39.366,39.366,0,0,1-6.32-5.908c-.38-.422-.74-.864-1.079-1.305-.175-.206-.329-.411-.494-.627a30.161,30.161,0,0,1-4.336-7.769c.5-1.212,1.028-2.415,1.583-3.607-.525-.555-1.069-1.1-1.593-1.654a6.408,6.408,0,0,1-.617-.689.788.788,0,0,1,.1-1.089.761.761,0,0,1,1.079-.113,19.645,19.645,0,0,1,1.644,1.541c.072.072.144.155.216.227.4-.843.822-1.686,1.254-2.518.524-1.007,1.068-1.994,1.664-2.949-.555-.309-1.11-.627-1.664-.946-.771-.442-1.5-.945-2.23-1.438a2.947,2.947,0,0,1-.607-.514.832.832,0,0,1-.041-1.1.781.781,0,0,1,.946-.277,3.414,3.414,0,0,1,.7.36q1.928,1.233,3.905,2.363c.535-.781,1.121-1.541,1.737-2.271a5.845,5.845,0,0,1,1.151-1.1,1.849,1.849,0,0,1,2.857.843,3.7,3.7,0,0,1,.195,2.086,16.537,16.537,0,0,1-.822,3.176c1.367.688,2.754,1.335,4.151,1.952.011-.01.021-.031.031-.041a16.515,16.515,0,0,1,2.518-2.9,2.012,2.012,0,0,1,2.178-.606,2.112,2.112,0,0,1,1.182,2.065,8.526,8.526,0,0,1-.5,3.124c-.052.164-.1.329-.155.493,2.919,1.079,5.889,2.015,8.93,2.826A85.178,85.178,0,0,0,238,213.04c7.687.452,15.055-1.049,22.279-3.515a55,55,0,0,0,19.637-11.334,76.511,76.511,0,0,0,12.116-14.9,66.2,66.2,0,0,0,6.073-12.959,27.077,27.077,0,0,0,1.243-3.637,1.926,1.926,0,0,1,.154-.5.9.9,0,0,1,1.079-.555.835.835,0,0,1,.637,1.028,13.97,13.97,0,0,1-.554,2.045c-1.038,2.723-2.087,5.456-3.176,8.159a57.306,57.306,0,0,1-6.5,11.242,61.186,61.186,0,0,1-16.247,16.431,64.5,64.5,0,0,1-18.887,8.252,53.367,53.367,0,0,1-15.065,2.137,83.3,83.3,0,0,1-22.474-3.576q-3.422-.986-6.73-2.23a45.124,45.124,0,0,1-2.241,4.861q-1.233,2.328-2.271,4.727c.987.555,1.994,1.079,3.022,1.562a85.431,85.431,0,0,0,21.559,7.245,58.677,58.677,0,0,0,13.359.77A88.4,88.4,0,0,0,265,224.919a51.131,51.131,0,0,0,17.007-8.766,84.028,84.028,0,0,0,17.829-18.825,52.461,52.461,0,0,0,4.347-7.749c1.531-3.237,2.99-6.5,4.295-9.854a11.824,11.824,0,0,0,.822-2.652.905.905,0,0,1,.936-.924C310.738,176.138,311.1,176.611,311.108,177.269Z" transform="translate(-38.866 -26.788)" fill="#ff8600"/><path d="M311.108,177.269a4.018,4.018,0,0,1-.339,1.551c-2.939,7.5-5.95,14.993-10.821,21.518A82.714,82.714,0,0,1,280.331,219.6a53.454,53.454,0,0,1-16.7,7.614,92.212,92.212,0,0,1-22.536,3.021,60.3,60.3,0,0,1-14.735-1.983,97.794,97.794,0,0,1-10.04-3.288c-1.4-.535-2.785-1.11-4.152-1.706-.668-.3-1.336-.586-1.993-.894-1.316-.6-2.579-1.254-3.813-1.963a50.839,50.839,0,0,1-6.011-4.038c-.678-.524-1.336-1.069-1.983-1.624a59.453,59.453,0,0,1-4.553-4.419c-.287-.318-.585-.626-.883-.935-.525-.555-1.069-1.1-1.593-1.654a6.408,6.408,0,0,1-.617-.689.788.788,0,0,1,.1-1.089.761.761,0,0,1,1.079-.113,19.645,19.645,0,0,1,1.644,1.541c.072.072.144.155.216.227,1.716,1.819,3.453,3.617,5.3,5.292q.355.339.709.647c.463.411.946.812,1.429,1.192a42.03,42.03,0,0,0,5.867,3.977c.987.555,1.994,1.079,3.022,1.562a85.431,85.431,0,0,0,21.559,7.245,58.677,58.677,0,0,0,13.359.77A88.4,88.4,0,0,0,265,224.919a51.131,51.131,0,0,0,17.007-8.766,84.028,84.028,0,0,0,17.829-18.825,52.461,52.461,0,0,0,4.347-7.749c1.531-3.237,2.99-6.5,4.295-9.854a11.824,11.824,0,0,0,.822-2.652.905.905,0,0,1,.936-.924C310.738,176.138,311.1,176.611,311.108,177.269Z" transform="translate(-38.866 -26.788)" fill="#a93e00"/><path d="M301.222,166.664a13.97,13.97,0,0,1-.554,2.045c-1.038,2.723-2.087,5.456-3.176,8.159a57.306,57.306,0,0,1-6.5,11.242,61.186,61.186,0,0,1-16.247,16.431,64.5,64.5,0,0,1-18.887,8.252,53.367,53.367,0,0,1-15.065,2.137,83.3,83.3,0,0,1-22.474-3.576q-3.422-.986-6.73-2.23-2.883-1.064-5.693-2.332c-1.254-.555-2.5-1.151-3.731-1.747-1.849-.925-3.668-1.891-5.477-2.908-.555-.309-1.11-.627-1.664-.946-.771-.442-1.5-.945-2.23-1.438a2.947,2.947,0,0,1-.607-.514.832.832,0,0,1-.041-1.1.781.781,0,0,1,.946-.277,3.414,3.414,0,0,1,.7.36q1.928,1.233,3.905,2.363,2.513,1.449,5.118,2.734c1.367.688,2.754,1.335,4.151,1.952q2.59,1.14,5.251,2.137c2.919,1.079,5.889,2.015,8.93,2.826A85.178,85.178,0,0,0,238,213.04c7.687.452,15.055-1.049,22.279-3.515a55,55,0,0,0,19.637-11.334,76.511,76.511,0,0,0,12.116-14.9,66.2,66.2,0,0,0,6.073-12.959,27.077,27.077,0,0,0,1.243-3.637,1.926,1.926,0,0,1,.154-.5.9.9,0,0,1,1.079-.555A.835.835,0,0,1,301.222,166.664Z" transform="translate(-38.866 -26.788)" fill="#a93e00"/><path d="M290.566,161.505a9.306,9.306,0,0,1-.308,1.285,55.992,55.992,0,0,1-5.785,13.348,97.455,97.455,0,0,1-12.517,16.791,42.352,42.352,0,0,1-19.051,11.325,42.9,42.9,0,0,1-13.431,1.664,40.374,40.374,0,0,1-18.384-3.689,88.835,88.835,0,0,1-19.3-12.567c-2-1.686-3.854-3.525-5.734-5.334a3.17,3.17,0,0,1-.36-.39.866.866,0,0,1,.082-1.2.787.787,0,0,1,1.089-.072,9.656,9.656,0,0,1,1.1.955,88.607,88.607,0,0,0,20.593,15.312,37.953,37.953,0,0,0,13.462,4.675c9.248,1.213,18.281.555,26.851-3.535a41.7,41.7,0,0,0,14.315-11.19,106.94,106.94,0,0,0,10.8-15.579,52.062,52.062,0,0,0,4.593-11.417,7.858,7.858,0,0,1,.288-.883.847.847,0,0,1,1.079-.545A.876.876,0,0,1,290.566,161.505Z" transform="translate(-38.866 -26.788)" fill="#a93e00"/><path d="M235.218,217.8a3.786,3.786,0,0,1-.218,1.167,10.656,10.656,0,0,1-1.335,2.477c-.621.932-1.243,1.865-1.9,2.78l-.352.5a36.509,36.509,0,0,0-6,15.921q-.063.479-.151.957a1.192,1.192,0,0,1-.042.193,2.466,2.466,0,0,1-2.418,2.108,69.345,69.345,0,0,0-7.079,1.05,49.226,49.226,0,0,0-10.623,3.7c-1.293.621-2.485,1.47-3.745,2.175-1.377.764-2.234.848-2.855.092a4.31,4.31,0,0,1-.722-1.477,59.4,59.4,0,0,1-2.545-11.522,74.614,74.614,0,0,1,.235-18.507,78.463,78.463,0,0,1,4.543-18.055,22.788,22.788,0,0,1,1.781-3.711,6.387,6.387,0,0,1,1.394-1.646,1.632,1.632,0,0,1,1.813-.328,1.594,1.594,0,0,1,.966,1.562,18.052,18.052,0,0,1-.395,3.552c-.587,3.166-1.2,6.323-1.763,9.489a41.212,41.212,0,0,0-.5,5.442,1.754,1.754,0,0,0,.428-1.042,80.683,80.683,0,0,1,4.081-13.133,43.1,43.1,0,0,1,3.066-5.979,9.617,9.617,0,0,1,1.528-1.965,1.628,1.628,0,0,1,1.789-.47.494.494,0,0,1,.117.059,1.7,1.7,0,0,1,.857,1.511,9.943,9.943,0,0,1-.3,2.687c-.378,1.948-.8,3.88-1.192,5.82-.437,2.133-.857,4.266-1.176,6.424-.3,2.04-.537,4.081-.806,6.121.479-.26.537-.705.663-1.1q1.109-3.375,2.461-6.642.617-1.486,1.293-2.948c.218-.487.445-.974.68-1.452.328-.689.672-1.377,1.025-2.058.428-.823.873-1.629,1.36-2.41.26-.428.538-.856.823-1.268a23.108,23.108,0,0,1,1.419-1.855,4.764,4.764,0,0,1,.941-.9,1.51,1.51,0,0,1,2.334.689,3.018,3.018,0,0,1,.16,1.7,13.533,13.533,0,0,1-.672,2.595c-.168.479-.344.941-.529,1.411-.042.109-.084.227-.126.336-.781,2.032-1.621,4.047-2.4,6.079-.2.5-.394,1-.571,1.5-.394,1.05-.764,2.1-1.108,3.166q-.366,1.122-.68,2.268a46.32,46.32,0,0,0-1.117,4.853,2.1,2.1,0,0,0,.672-1.024c.445-.915.89-1.839,1.326-2.763.832-1.73,1.655-3.468,2.528-5.173.227-.445.462-.89.7-1.327.042-.092.092-.184.143-.277,1.142-2.124,2.343-4.215,3.686-6.214.286-.42.58-.831.874-1.242.008-.009.016-.026.025-.034a13.454,13.454,0,0,1,2.057-2.368,1.646,1.646,0,0,1,1.78-.5,1.727,1.727,0,0,1,.966,1.688,6.96,6.96,0,0,1-.411,2.553l-.126.4c-.16.479-.328.941-.513,1.4a36.9,36.9,0,0,1-1.83,3.972q-1.008,1.9-1.856,3.862c-.21.454-.4.916-.58,1.377a55.076,55.076,0,0,0-2.233,6.534,1.134,1.134,0,0,0-.042.167,21.793,21.793,0,0,0-.672,3.779c.445-.025.521-.394.705-.629.513-.681,1.042-1.352,1.579-2.016q1.512-1.876,3.183-3.619a13.632,13.632,0,0,1,2.049-1.764c.058-.041.117-.083.176-.117a3.123,3.123,0,0,1,1.847-.546,1.411,1.411,0,0,1,1.47,1.193A2.785,2.785,0,0,1,235.218,217.8Z" transform="translate(-38.866 -26.788)" fill="#ffc4a8"/><path d="M370.147,259.346c-.058,4.089-.193,8.179-.629,12.243a110.544,110.544,0,0,1-27.107,61.318,78.808,78.808,0,0,1-12.924,11.537,63.352,63.352,0,0,1-8.145,5.375,69.391,69.391,0,0,1-19.591,6.793,126.044,126.044,0,0,1-16.476,1.772,73.5,73.5,0,0,1-18.835-1.856,67.137,67.137,0,0,1-8.532-2.83,97.137,97.137,0,0,1-29.29-18.02,105.741,105.741,0,0,1-13.763-15.166c-2.864-4.006-5.366-8.246-7.818-12.512a144.076,144.076,0,0,1-9.355-18.7,64.732,64.732,0,0,1-4.081-14.25c-.882-5.971-.814-11.883,1.209-17.668a20.941,20.941,0,0,1,3.687-6.45c.21-.251.428-.5.646-.755a11.778,11.778,0,0,1,2.411-2.007,40.027,40.027,0,0,1,13.545-5.341c2.082-.445,4.165-.882,6.281-1.2a9.191,9.191,0,0,1,3.837.176,8.455,8.455,0,0,1,2.31,1,24.731,24.731,0,0,1,6.776,6.34,58.462,58.462,0,0,1,5,8.246c2.225,4.266,4.417,8.549,6.944,12.646a56.261,56.261,0,0,0,6.365,8.633,53.066,53.066,0,0,0,9.716,8.3,25.579,25.579,0,0,0,9.338,3.93,23.4,23.4,0,0,0,5.727.3,38.246,38.246,0,0,0,8.952-1.57,27.606,27.606,0,0,0,8.557-4.359,42.072,42.072,0,0,0,11.5-13.41,48.838,48.838,0,0,0,6.315-20.574c.235-3.031.319-6.063.311-9.1.167-9.027-1.226-17.878-3.066-26.678-.52-2.5-1-5.013-1.335-7.549a31.352,31.352,0,0,0,4.6-7.6,31,31,0,0,0,2.78-12.705,15.651,15.651,0,0,1,7.347.151,39.435,39.435,0,0,1,14.813,6.71c2.259,1.738,4.669,3.291,6.794,5.214a32.325,32.325,0,0,1,2.485,2.427c.983,1.109,2.209,1.948,3.174,3.1a89.926,89.926,0,0,1,13.117,20.372,73.823,73.823,0,0,1,5.173,17.2A83.226,83.226,0,0,1,370.147,259.346Z" transform="translate(-38.866 -26.788)" fill="#56caf4"/><path d="M363.409,238.457a18.675,18.675,0,0,1-2.32,3.541,30.6,30.6,0,0,1-2.822,3.011,30,30,0,0,1-3.2,2.608,18.476,18.476,0,0,1-3.7,2.068,18.447,18.447,0,0,1,2.32-3.546,29.653,29.653,0,0,1,2.822-3.006,30.267,30.267,0,0,1,3.2-2.6A18.75,18.75,0,0,1,363.409,238.457Z" transform="translate(-38.866 -26.788)" fill="#3a6ebc"/><path d="M364.206,242.452a21.268,21.268,0,0,1-2.535,3.613,33.247,33.247,0,0,1-2.985,3.109,32.485,32.485,0,0,1-3.358,2.7,20.048,20.048,0,0,1-3.856,2.157,20.043,20.043,0,0,1,2.492-3.653,33.661,33.661,0,0,1,6.355-5.81A19.331,19.331,0,0,1,364.206,242.452Z" transform="translate(-38.866 -26.788)" fill="#3a6ebc"/><path d="M364.659,247.227a21.262,21.262,0,0,1-2.641,3.661,34.439,34.439,0,0,1-3.108,3.1,33.756,33.756,0,0,1-3.467,2.679,20.6,20.6,0,0,1-3.955,2.125,20.76,20.76,0,0,1,2.631-3.657,34.891,34.891,0,0,1,6.6-5.787A20.657,20.657,0,0,1,364.659,247.227Z" transform="translate(-38.866 -26.788)" fill="#3a6ebc"/><path d="M364.841,253.438a20.916,20.916,0,0,1-2.823,3.465,33.934,33.934,0,0,1-3.263,2.881,38.149,38.149,0,0,1-3.462,2.634,20.668,20.668,0,0,1-3.951,2.1,20.44,20.44,0,0,1,2.634-3.64,30.168,30.168,0,0,1,3.142-3.083,34.542,34.542,0,0,1,3.641-2.471A20.829,20.829,0,0,1,364.841,253.438Z" transform="translate(-38.866 -26.788)" fill="#3a6ebc"/><path d="M364.724,259.149a20.156,20.156,0,0,1-2.792,3.423,33.361,33.361,0,0,1-3.249,2.853,32.888,32.888,0,0,1-3.59,2.417,20.024,20.024,0,0,1-4.034,1.828,20.172,20.172,0,0,1,2.8-3.433,32.536,32.536,0,0,1,3.243-2.843,33.454,33.454,0,0,1,3.583-2.408A20.6,20.6,0,0,1,364.724,259.149Z" transform="translate(-38.866 -26.788)" fill="#3a6ebc"/><path d="M364.381,264.436a20.106,20.106,0,0,1-2.827,3.392,33.386,33.386,0,0,1-3.282,2.821,32.938,32.938,0,0,1-3.617,2.38,19.987,19.987,0,0,1-4.052,1.785,20.249,20.249,0,0,1,2.836-3.4,32.743,32.743,0,0,1,3.273-2.809,33.162,33.162,0,0,1,3.607-2.369A20.624,20.624,0,0,1,364.381,264.436Z" transform="translate(-38.866 -26.788)" fill="#3a6ebc"/><path d="M363.883,268.959A24.81,24.81,0,0,1,361,272.3a33.157,33.157,0,0,1-3.287,2.788,32.391,32.391,0,0,1-3.615,2.344,19.967,19.967,0,0,1-4.057,1.754,19.972,19.972,0,0,1,2.85-3.379,32.722,32.722,0,0,1,3.292-2.788,33.27,33.27,0,0,1,3.62-2.344A17.213,17.213,0,0,1,363.883,268.959Z" transform="translate(-38.866 -26.788)" fill="#3a6ebc"/><path d="M362.77,275.944a20.3,20.3,0,0,1-2.88,3.388,34.03,34.03,0,0,1-3.333,2.815,33.489,33.489,0,0,1-3.667,2.374,20.351,20.351,0,0,1-4.1,1.775,20.44,20.44,0,0,1,2.892-3.4,33.081,33.081,0,0,1,3.322-2.8,33.926,33.926,0,0,1,3.655-2.36A21.028,21.028,0,0,1,362.77,275.944Z" transform="translate(-38.866 -26.788)" fill="#3a6ebc"/><path d="M361.51,282.141a19.842,19.842,0,0,1-2.939,3.23A32.38,32.38,0,0,1,355.222,288a31.769,31.769,0,0,1-3.66,2.169,19.561,19.561,0,0,1-4.077,1.56,19.544,19.544,0,0,1,2.936-3.232,31.663,31.663,0,0,1,3.352-2.624,32.346,32.346,0,0,1,3.663-2.167A19.758,19.758,0,0,1,361.51,282.141Z" transform="translate(-38.866 -26.788)" fill="#3a6ebc"/><path d="M360.2,287.522a18.245,18.245,0,0,1-2.96,2.942,29.229,29.229,0,0,1-3.32,2.308,28.8,28.8,0,0,1-3.6,1.831,17.954,17.954,0,0,1-3.989,1.2,17.728,17.728,0,0,1,2.947-2.939,28.851,28.851,0,0,1,3.334-2.311,29.325,29.325,0,0,1,3.615-1.834A17.832,17.832,0,0,1,360.2,287.522Z" transform="translate(-38.866 -26.788)" fill="#3a6ebc"/><path d="M358.044,294.708a16.892,16.892,0,0,1-2.97,2.736,27.674,27.674,0,0,1-3.333,2.1,27.347,27.347,0,0,1-3.6,1.618,16.972,16.972,0,0,1-3.948.967,16.935,16.935,0,0,1,2.979-2.745,27.152,27.152,0,0,1,3.325-2.094,27.755,27.755,0,0,1,3.593-1.609A17.378,17.378,0,0,1,358.044,294.708Z" transform="translate(-38.866 -26.788)" fill="#3a6ebc"/><path d="M356.367,299.5a16.626,16.626,0,0,1-3,2.636,26.787,26.787,0,0,1-3.327,1.984,26.273,26.273,0,0,1-3.575,1.489,16.392,16.392,0,0,1-3.906.83,16.487,16.487,0,0,1,3-2.639,26.2,26.2,0,0,1,3.327-1.98,26.777,26.777,0,0,1,3.575-1.486A16.733,16.733,0,0,1,356.367,299.5Z" transform="translate(-38.866 -26.788)" fill="#3a6ebc"/><path d="M354.164,304.906a16.468,16.468,0,0,1-3.009,2.559,25.9,25.9,0,0,1-3.309,1.891,25.375,25.375,0,0,1-3.545,1.392,16.153,16.153,0,0,1-3.875.732,15.9,15.9,0,0,1,3-2.555,25.582,25.582,0,0,1,3.324-1.9,25.952,25.952,0,0,1,3.56-1.395A15.993,15.993,0,0,1,354.164,304.906Z" transform="translate(-38.866 -26.788)" fill="#3a6ebc"/><path d="M351.616,310.286a19.283,19.283,0,0,1-3.075,2.455,31.442,31.442,0,0,1-3.3,1.889,28.343,28.343,0,0,1-3.521,1.467,16.336,16.336,0,0,1-3.859.85A15.911,15.911,0,0,1,340.8,314.3a23.573,23.573,0,0,1,3.3-1.973,22.579,22.579,0,0,1,3.594-1.412A14.149,14.149,0,0,1,351.616,310.286Z" transform="translate(-38.866 -26.788)" fill="#3a6ebc"/><path d="M348.521,315.89a15.5,15.5,0,0,1-2.937,2.48,25.884,25.884,0,0,1-6.693,3.145,15.2,15.2,0,0,1-3.778.67,15.11,15.11,0,0,1,2.914-2.5,23.9,23.9,0,0,1,3.235-1.834,24.643,24.643,0,0,1,3.481-1.314A15.161,15.161,0,0,1,348.521,315.89Z" transform="translate(-38.866 -26.788)" fill="#3a6ebc"/><path d="M344.686,321.83a14.455,14.455,0,0,1-2.679,2.212,22.291,22.291,0,0,1-2.914,1.611,20.534,20.534,0,0,1-3.137,1.153,12.34,12.34,0,0,1-3.457.489,12.866,12.866,0,0,1,2.6-2.324,19.089,19.089,0,0,1,2.921-1.658,18.3,18.3,0,0,1,3.182-1.121A11.454,11.454,0,0,1,344.686,321.83Z" transform="translate(-38.866 -26.788)" fill="#3a6ebc"/><path d="M339.741,328.276a10.661,10.661,0,0,1-2.369,2.084,15.964,15.964,0,0,1-2.635,1.4,15.549,15.549,0,0,1-2.843.891,10.371,10.371,0,0,1-3.132.212,10.374,10.374,0,0,1,2.358-2.083,16.173,16.173,0,0,1,5.5-2.3A10.321,10.321,0,0,1,339.741,328.276Z" transform="translate(-38.866 -26.788)" fill="#3a6ebc"/><path d="M334.291,334.086a6.274,6.274,0,0,1-1.7,1.663,8.547,8.547,0,0,1-1.944.974,7.907,7.907,0,0,1-2.129.441,6.319,6.319,0,0,1-2.376-.263,6.135,6.135,0,0,1,1.707-1.647,8.819,8.819,0,0,1,1.948-.961,8.549,8.549,0,0,1,2.126-.448A6.3,6.3,0,0,1,334.291,334.086Z" transform="translate(-38.866 -26.788)" fill="#3a6ebc"/><path d="M327.878,339.847a3.938,3.938,0,0,1-1.036,1.474,4.175,4.175,0,0,1-1.294.791,4.087,4.087,0,0,1-1.487.272,3.834,3.834,0,0,1-1.744-.419,3.947,3.947,0,0,1,1.037-1.478,4.1,4.1,0,0,1,1.293-.786,4.171,4.171,0,0,1,1.487-.269A3.907,3.907,0,0,1,327.878,339.847Z" transform="translate(-38.866 -26.788)" fill="#3a6ebc"/><path d="M205.992,286.181c-.374.183-.672.717-.845,1.741-.42,2.487,3.3,8.085,4.408,10.311A104.234,104.234,0,0,0,221.85,317.3c18.022,22.235,50.645,43.567,80.4,31.942a27.258,27.258,0,0,0,8.8-6.276c2.049-2.055,2.8-4.66-.569-5.45a9.38,9.38,0,0,0-3.472.089,95.6,95.6,0,0,1-95.928-45.779C210.5,290.856,207.571,285.4,205.992,286.181Z" transform="translate(-38.866 -26.788)" fill="#18b9f4"/><path d="M435.593,232.238c-2.215-.117-4.4-.533-6.6-.722a80.707,80.707,0,0,0-13.125-.48,74.439,74.439,0,0,0-14.431,2.837,181.952,181.952,0,0,0-20.878,7.77,130.707,130.707,0,0,1-24.328,7.868,104.225,104.225,0,0,1-28.643,2.072,81.333,81.333,0,0,1-42.475-15.433c-1.649-1.192-3.225-2.487-4.8-3.775-1.453-1.186-1.273-2.427.435-3.269.714-.353,1.433-.7,2.162-1.016,6.019-2.638,11-6.706,15.665-11.242a74.4,74.4,0,0,0,9.7-10.717c.839-1.213,1.524-1.344,2.853-.7a26.023,26.023,0,0,0,5.774,2.315,25.711,25.711,0,0,0,14.119-1,59.773,59.773,0,0,0,13.666-7.29,145.409,145.409,0,0,0,11.76-9.316,158.671,158.671,0,0,1,23.524-16.584,82.055,82.055,0,0,1,20.151-8.408,57.2,57.2,0,0,1,16.867-1.5,42.812,42.812,0,0,1,14.985,3.177,11.6,11.6,0,0,1,2.245,1.137,2.49,2.49,0,0,1,.66,3.888c-.517.718-1.089,1.4-1.594,2.124a5.03,5.03,0,0,0-.535,5.158,11.23,11.23,0,0,0,1.488,2.5c.544.7,1.1,1.386,1.668,2.068a9.085,9.085,0,0,1,.245,11.211c-.51.669-1.024,1.336-1.508,2.023-1.364,1.933-1.352,3.159.058,5.078a30.066,30.066,0,0,0,2.994,3.2,11.161,11.161,0,0,1,1.97,2.656,5.321,5.321,0,0,1,.408,4.115,9.443,9.443,0,0,1-2.467,4.185c-.883.869-1.812,1.693-2.684,2.574a2.008,2.008,0,0,0-.469,2.748A10.658,10.658,0,0,0,436.174,224a26.61,26.61,0,0,1,2.2,2.83A7.215,7.215,0,0,1,439.35,229a2.409,2.409,0,0,1-2.429,3.238C436.479,232.253,436.036,232.238,435.593,232.238Z" transform="translate(-38.866 -26.788)" fill="#f56c00"/><path d="M427.31,218.277a93.272,93.272,0,0,0-24.247,3.809,118.178,118.178,0,0,0-14.369,5.485c-4.679,1.992-9.279,4.172-13.97,6.136a109.521,109.521,0,0,1-27.764,7.3,104.777,104.777,0,0,1-19.068.967,105.923,105.923,0,0,1-16.67-2.364,82.13,82.13,0,0,1-19.5-6.35c-2.264-1.109-4.488-2.3-6.726-3.461a4.74,4.74,0,0,1-.888-.572.869.869,0,0,1,.9-1.472c.524.233,1.023.525,1.528.8a84.178,84.178,0,0,0,15.776,6.9,133.514,133.514,0,0,0,16.43,3.688,83.977,83.977,0,0,0,19.456.933,127.359,127.359,0,0,0,19.936-2.962,118.571,118.571,0,0,0,23.2-8.274c5.59-2.567,11.241-4.982,17-7.131a91.779,91.779,0,0,1,18.023-4.369,77.871,77.871,0,0,1,15.088-.892,6.23,6.23,0,0,0,1.052-.092.877.877,0,0,1,1.1.7.957.957,0,0,1-.776,1.19,4.7,4.7,0,0,1-1.056.046A40.512,40.512,0,0,0,427.31,218.277Z" transform="translate(-38.866 -26.788)" fill="#a93e00"/><path d="M329,233.205a87.891,87.891,0,0,1-31.514-6.4c-1.23-.5-2.459-1-3.681-1.513a3.95,3.95,0,0,1-.919-.517.778.778,0,0,1-.232-1.065.839.839,0,0,1,1.016-.429,9.135,9.135,0,0,1,.985.392,97.6,97.6,0,0,0,20.094,6.269,79.109,79.109,0,0,0,23.918.777c12.176-1.418,23.6-5.349,34.7-10.339,5.368-2.412,10.548-5.212,15.854-7.753a119.629,119.629,0,0,1,24.909-8.992,75.931,75.931,0,0,1,16.429-2.087,5.491,5.491,0,0,1,.925.053.843.843,0,0,1,.785.909.814.814,0,0,1-.747.8,3.731,3.731,0,0,1-.66.057c-12.19.2-23.646,3.505-34.789,8.172-5.066,2.121-9.93,4.657-14.832,7.116a153.352,153.352,0,0,1-28.6,11.232,89.907,89.907,0,0,1-20.415,3.15C331.121,233.076,330.017,233.151,329,233.205Z" transform="translate(-38.866 -26.788)" fill="#a93e00"/><path d="M430.706,187.044a74.873,74.873,0,0,0-31.182,6.585A84.958,84.958,0,0,0,392,197.85c-3.882,2.3-7.73,4.661-11.52,7.118a131.279,131.279,0,0,1-32.39,15.071,61.987,61.987,0,0,1-12.65,2.282,81.441,81.441,0,0,1-10.738.509,79.059,79.059,0,0,1-21.915-3.7c-.462-.151-.917-.329-1.368-.51a3.837,3.837,0,0,1-.711-.355c-.554-.371-.732-.907-.446-1.351.332-.515.785-.46,1.284-.254a55,55,0,0,0,11.63,3.151,76.313,76.313,0,0,0,21.03.79,66.333,66.333,0,0,0,14.082-2.53,130.916,130.916,0,0,0,22.456-9.5q5.988-3.309,11.714-7.05c4.263-2.782,8.677-5.321,13.081-7.872a63.414,63.414,0,0,1,19.56-6.9,70.283,70.283,0,0,1,14.634-1.514c1.593.016,3.186.111,4.777.195,1,.053,1.488.412,1.455,1s-.524.861-1.548.832q-.93-.027-1.858-.082C431.941,187.145,431.324,187.091,430.706,187.044Z" transform="translate(-38.866 -26.788)" fill="#a93e00"/><path d="M321.354,214.38a40.78,40.78,0,0,1-13.751-2.151,9.459,9.459,0,0,1-1.117-.415c-.485-.232-.79-.611-.571-1.174a.865.865,0,0,1,1.1-.506,11.139,11.139,0,0,1,1.27.378,41.983,41.983,0,0,0,17.034,1.932,53.033,53.033,0,0,0,17.778-4.576,96.039,96.039,0,0,0,18.8-11.154c5.485-4.121,10.87-8.378,16.527-12.266a76.971,76.971,0,0,1,14.085-8.2,65.376,65.376,0,0,1,17.306-4.408,67.1,67.1,0,0,1,14.046-.266c2.12.194,4.213.533,6.3.932.173.033.343.085.514.133.527.147.872.448.8,1.041-.065.518-.534.813-1.223.708-1.311-.2-2.61-.481-3.923-.674a61.221,61.221,0,0,0-15.1-.2,67.594,67.594,0,0,0-16.006,3.632,53.844,53.844,0,0,0-10.736,5.477c-6.317,4.021-12.316,8.489-18.216,13.093A115.02,115.02,0,0,1,347.8,207.681a60.13,60.13,0,0,1-19.871,6.344A40.07,40.07,0,0,1,321.354,214.38Z" transform="translate(-38.866 -26.788)" fill="#a93e00"/><path d="M330.2,49.687c-1.059-.164-2.036-.323-3.015-.464-2.1-.3-4.195-.587-6.291-.89a6,6,0,0,1-.993-.237.641.641,0,0,1-.452-.631.674.674,0,0,1,.334-.633,4.478,4.478,0,0,1,.488-.271c3.677-1.711,7.264-3.638,10.9-5.452q7.875-3.93,15.784-7.77c3.056-1.48,6.047-3.116,9.148-4.483a5.261,5.261,0,0,1,.664-.257.5.5,0,0,1,.622.232.741.741,0,0,1,.011.735,2.072,2.072,0,0,1-.551.6c-3.266,2.814-6.4,5.806-9.686,8.595-2.458,2.086-4.89,4.209-7.383,6.245a.65.65,0,0,0-.3.4c.431.058.851.133,1.273.168,2.839.237,5.674.506,8.5.882a4.117,4.117,0,0,1,.539.1.568.568,0,0,1,.448.528.675.675,0,0,1-.275.666,3.4,3.4,0,0,1-.562.3c-1.071.453-2.136.924-3.219,1.341-6.919,2.67-13.738,5.623-20.52,8.681-3.935,1.774-7.906,3.444-11.9,5.048a1.182,1.182,0,0,1-1.2,0,.649.649,0,0,1-.27-.868,1.505,1.505,0,0,1,.461-.681c.108-.081.218-.158.327-.237q8.1-5.871,16.548-11.136A1.182,1.182,0,0,0,330.2,49.687Z" transform="translate(-38.866 -26.788)" fill="#ca4b76"/><path d="M332.127,154.134c.115-.314-.125-.549-.243-.8-.732-1.562-1.494-3.109-2.224-4.671a8.176,8.176,0,0,1-.556-1.487c-.176-.712.267-1.161,1-1.056a3.065,3.065,0,0,1,.761.223c6.51,2.8,13.407,4.407,20.136,6.529,5.437,1.715,10.876,3.422,16.251,5.328a8.962,8.962,0,0,1,1.695.822.861.861,0,0,1,.5.987.875.875,0,0,1-.9.648,27.369,27.369,0,0,1-3.978-.066q-3.425-.24-6.846-.516c-4.795-.379-9.6-.666-14.381-1.165-.579-.06-1.163-.069-1.761-.1a1.476,1.476,0,0,0,.416.985c1.258,1.991,2.532,3.972,3.8,5.959a12.226,12.226,0,0,1,1.155,2.2,1.135,1.135,0,0,1-.164,1.379c-.416.378-.874.222-1.3.014-2.089-1.013-4.184-2.012-6.255-3.057q-11.768-5.939-23.523-11.9c-1.926-.971-3.856-1.929-5.691-3.065a6.005,6.005,0,0,1-.814-.567.69.69,0,0,1-.222-.808.711.711,0,0,1,.7-.464,13.242,13.242,0,0,1,3.16.333c3.173.7,6.337,1.437,9.5,2.161l9.4,2.153C331.859,154.161,331.982,154.252,332.127,154.134Z" transform="translate(-38.866 -26.788)" fill="#ca4b76"/><path d="M142.155,188.715c.776.977,1.508,1.894,2.234,2.815,1.279,1.623,2.572,3.236,3.695,4.975a6.439,6.439,0,0,1,.78,1.461,1.261,1.261,0,0,1-1.242,1.829,9.113,9.113,0,0,1-1.974-.217c-4.89-.928-9.775-1.891-14.667-2.809-5.545-1.04-11.1-2.04-16.646-3.065-2.322-.429-4.617-.979-6.9-1.563a2.914,2.914,0,0,1-1.223-.488.745.745,0,0,1,.195-1.328,3.054,3.054,0,0,1,1.2-.155c5.5-.161,11-.215,16.5-.195,3.765.014,7.53.112,11.294-.05a2.071,2.071,0,0,0,1.167-.2c-.164-.415-.515-.579-.8-.8-3.594-2.84-6.986-5.914-10.427-8.931a7.48,7.48,0,0,1-.769-.793.92.92,0,0,1-.178-1.122,1,1,0,0,1,1.051-.467,9.037,9.037,0,0,1,1.3.269c3.843,1.044,7.628,2.283,11.443,3.421,6.959,2.077,14.017,3.808,20.96,5.946,1.832.565,3.669,1.114,5.456,1.813a10.931,10.931,0,0,1,1.4.665,1.061,1.061,0,0,1,.652,1.265c-.167.6-.689.625-1.167.61-1.365-.042-2.732-.077-4.092-.195a171.626,171.626,0,0,1-18.826-2.709A2.042,2.042,0,0,0,142.155,188.715Z" transform="translate(-38.866 -26.788)" fill="#ca4b76"/><path d="M133.019,133.854c.6-3.057.973-5.949,1.3-8.848a54.856,54.856,0,0,1,1.094-6.873,5.26,5.26,0,0,1,.217-.8c.371-.876,1.007-1.088,1.769-.53a12.1,12.1,0,0,1,2.094,2.034c3.783,4.531,7.354,9.226,10.843,13.985,3.735,5.1,7.187,10.391,10.821,15.557.907,1.289,1.686,2.669,2.5,4.021.594.983.614,1.485.144,1.874-.491.405-1.165.3-1.973-.451-2.147-1.988-4.385-3.879-6.4-6.012-4.367-4.629-8.809-9.188-13.059-13.928a3.007,3.007,0,0,0-1.188-.971c-.065,1.581-.137,3.053-.184,4.526a62.376,62.376,0,0,1-.812,8.873,10.931,10.931,0,0,1-.719,2.541c-.579,1.311-1.55,1.6-2.663.675-1.536-1.274-3-2.637-4.459-4q-11.955-11.191-23.887-22.407c-2.5-2.356-4.964-4.757-7.319-7.264a7.913,7.913,0,0,1-.868-1.082,1.007,1.007,0,0,1,.084-1.289.943.943,0,0,1,1.265-.165c.491.262.968.553,1.439.85,5.894,3.717,11.58,7.748,17.405,11.568q5.767,3.783,11.547,7.545C132.284,133.452,132.57,133.6,133.019,133.854Z" transform="translate(-38.866 -26.788)" fill="#ca4b76"/><path d="M241.024,45.315a2.314,2.314,0,0,0-1,.386c-2.419,1.228-4.8,2.521-7.277,3.644-.348.159-.705.3-1.059.447a.764.764,0,0,1-.9-.167.7.7,0,0,1-.077-.9c.069-.13.137-.261.212-.388,2.309-3.881,4.29-7.941,6.526-11.863,1.549-2.716,3.06-5.454,4.692-8.122.277-.453.587-.886.905-1.311a.575.575,0,0,1,.709-.208.622.622,0,0,1,.41.706,4.044,4.044,0,0,1-.239.848c-1.447,4.028-2.477,8.184-3.8,12.25a3.431,3.431,0,0,0-.076.36c.309.166.582.008.855-.056,3.127-.738,6.215-1.638,9.365-2.284a2.882,2.882,0,0,1,.871-.125.654.654,0,0,1,.574.953,5.475,5.475,0,0,1-.573.89c-3.563,4.926-7.277,9.739-10.908,14.614-2.4,3.217-4.706,6.5-7.144,9.69a4.519,4.519,0,0,1-.683.809.623.623,0,0,1-.812.075.591.591,0,0,1-.172-.791c.282-.617.577-1.227.86-1.844,2.648-5.765,5.663-11.347,8.463-17.036C240.83,45.737,240.9,45.576,241.024,45.315Z" transform="translate(-38.866 -26.788)" fill="#ca4b76"/><path d="M419.637,467.249c.034,2.068.4,4.106.519,6.164a16.294,16.294,0,0,1-.418,5.569,7.608,7.608,0,0,1-1.022,2.239,3.817,3.817,0,0,1-5.576,1.04,6.376,6.376,0,0,1-2.352-3.037,15.147,15.147,0,0,1-.935-4.738,36.6,36.6,0,0,1,1.029-9.618,29.984,29.984,0,0,0,.56-3.568,7.644,7.644,0,0,0-.1-1.989,2.306,2.306,0,0,0-3.433-1.773A7.411,7.411,0,0,0,406,458.931a15.5,15.5,0,0,0-2.079,2.47c-1.036,1.484-1.956,3.039-2.891,4.586a18.755,18.755,0,0,1-3.068,3.984,7.825,7.825,0,0,1-5.164,2.345,3.977,3.977,0,0,1-4.44-4.2,9.936,9.936,0,0,1,1.481-5.051,23.891,23.891,0,0,1,3.175-4.146c.9-.982,1.82-1.947,2.7-2.944a8.933,8.933,0,0,0,1.8-2.888,1.572,1.572,0,0,0-1.118-2.366,6.947,6.947,0,0,0-2.817-.294c-2.126.141-4.2.627-6.291.974-1.126.187-2.248.4-3.376.562a8.229,8.229,0,0,1-4.3-.473,4.653,4.653,0,0,1-3.161-4.431,4.915,4.915,0,0,1,2.676-4.875,13.74,13.74,0,0,1,4.631-1.351,29.953,29.953,0,0,1,7.3.074c2.434.226,4.828.728,7.262.934a9.641,9.641,0,0,0,3.658-.412,4.037,4.037,0,0,0,2.3-5.282,16.2,16.2,0,0,0-3.533-5.133c-1.171-1.069-2.334-2.148-3.475-3.248a14.563,14.563,0,0,1-2.737-3.516,9.323,9.323,0,0,1-1.142-4.081,5.924,5.924,0,0,1,4.175-6.032,7.126,7.126,0,0,1,6.56.674,12.587,12.587,0,0,1,3.743,3.735,27.408,27.408,0,0,1,3.47,7.27c.477,1.544.917,3.1,1.36,4.654a14.568,14.568,0,0,0,1.63,3.735,4.2,4.2,0,0,0,1.284,1.384,1.354,1.354,0,0,0,2.01-.3,6.106,6.106,0,0,0,1.293-3.992,28.5,28.5,0,0,0-.8-6.307,30.811,30.811,0,0,1-.862-6.969,10.14,10.14,0,0,1,.761-3.609,5.74,5.74,0,0,1,10.041-1.337,7.777,7.777,0,0,1,1.579,4.118,16.549,16.549,0,0,1-.866,6.462c-.656,2.122-1.483,4.181-2.3,6.243a18.9,18.9,0,0,0-1.135,3.723,4.271,4.271,0,0,0,.143,2.253,1.7,1.7,0,0,0,2.088,1.2,3.433,3.433,0,0,0,1.612-.767,12.527,12.527,0,0,0,2.192-2.367c1.466-1.96,2.657-4.095,3.945-6.168a19.444,19.444,0,0,1,3.063-3.868,8.766,8.766,0,0,1,4.872-2.388,7.059,7.059,0,0,1,2.74.131,4.823,4.823,0,0,1,3.762,5.818,7.89,7.89,0,0,1-1.87,3.894,20.6,20.6,0,0,1-3.772,3.328,53.922,53.922,0,0,1-4.688,2.9,16.206,16.206,0,0,0-2.6,1.748,5.776,5.776,0,0,0-1.471,1.728,2.059,2.059,0,0,0,.768,2.958,7.653,7.653,0,0,0,3.822.986,19.038,19.038,0,0,0,4.34-.468,24.473,24.473,0,0,1,5.008-.489,10.156,10.156,0,0,1,4.288,1.119,6.469,6.469,0,0,1,2.608,2.44,4.906,4.906,0,0,1-.268,5.711,8.839,8.839,0,0,1-9.595,3.4,16.377,16.377,0,0,1-3.766-1.559,22.673,22.673,0,0,0-4.593-2.046,5.853,5.853,0,0,0-1.871-.281,2.766,2.766,0,0,0-2.385,4.229,10.785,10.785,0,0,0,2.494,2.973c.848.72,1.753,1.362,2.664,2a14.583,14.583,0,0,1,3.772,3.588,8.526,8.526,0,0,1,.862,8.913,7.18,7.18,0,0,1-1.023,1.6,5.059,5.059,0,0,1-5.886,1.684,8.428,8.428,0,0,1-3.776-2.631,15.954,15.954,0,0,1-3.169-6.013c-.6-2.035-1.144-4.089-1.733-6.129a9.958,9.958,0,0,0-1.827-3.731c-1.653-1.979-3.368-1.873-4.723.322a12.251,12.251,0,0,0-1.583,5.14C419.685,465.6,419.682,466.426,419.637,467.249Z" transform="translate(-38.866 -26.788)" fill="#eb4559"/><path d="M69.423,221.977c-.166-1.634-.6-3.22-.825-4.839a12.9,12.9,0,0,1-.045-4.431,6.011,6.011,0,0,1,.657-1.839,3.03,3.03,0,0,1,4.339-1.2,5.074,5.074,0,0,1,2.064,2.243,12.028,12.028,0,0,1,1.059,3.683,29.087,29.087,0,0,1-.166,7.674,23.762,23.762,0,0,0-.2,2.859,6.046,6.046,0,0,0,.211,1.566,1.83,1.83,0,0,0,2.834,1.171,5.908,5.908,0,0,0,1.421-1.23,12.3,12.3,0,0,0,1.477-2.094c.719-1.242,1.342-2.534,1.977-3.82a14.945,14.945,0,0,1,2.157-3.357,6.209,6.209,0,0,1,3.925-2.2,3.157,3.157,0,0,1,3.795,3.025,7.885,7.885,0,0,1-.831,4.094,18.955,18.955,0,0,1-2.232,3.492c-.645.837-1.307,1.662-1.938,2.51a7.075,7.075,0,0,0-1.231,2.405c-.268,1.01.031,1.531,1.044,1.8a5.5,5.5,0,0,0,2.247.042c1.672-.254,3.277-.778,4.909-1.194.877-.223,1.75-.466,2.631-.671a6.529,6.529,0,0,1,3.431.084,3.694,3.694,0,0,1,2.8,3.291,3.9,3.9,0,0,1-1.788,4.035,10.894,10.894,0,0,1-3.57,1.38,23.739,23.739,0,0,1-5.781.433c-1.939-.015-3.866-.25-5.8-.249a7.664,7.664,0,0,0-2.864.572,3.2,3.2,0,0,0-1.463,4.331,12.856,12.856,0,0,0,3.139,3.821c1,.766,1.99,1.541,2.966,2.334a11.524,11.524,0,0,1,2.4,2.595,7.4,7.4,0,0,1,1.178,3.15,4.7,4.7,0,0,1-2.894,5.05,5.649,5.649,0,0,1-5.232-.091A9.969,9.969,0,0,1,82,259.7a21.707,21.707,0,0,1-3.233-5.515c-.481-1.188-.934-2.389-1.389-3.588a11.512,11.512,0,0,0-1.541-2.843,3.333,3.333,0,0,0-1.108-1.008,1.073,1.073,0,0,0-1.568.375,4.84,4.84,0,0,0-.754,3.243,22.594,22.594,0,0,0,1.059,4.933,24.452,24.452,0,0,1,1.151,5.452,8.035,8.035,0,0,1-.359,2.9,4.554,4.554,0,0,1-7.848,1.734,6.162,6.162,0,0,1-1.526-3.149,13.122,13.122,0,0,1,.249-5.168c.376-1.722.891-3.406,1.4-5.092a14.9,14.9,0,0,0,.647-3.02,3.4,3.4,0,0,0-.265-1.772,1.349,1.349,0,0,0-1.732-.811,2.722,2.722,0,0,0-1.223.715,9.929,9.929,0,0,0-1.573,2.019c-1.027,1.648-1.825,3.417-2.7,5.143a15.4,15.4,0,0,1-2.162,3.264,6.953,6.953,0,0,1-3.691,2.217,5.613,5.613,0,0,1-2.175.08,3.826,3.826,0,0,1-3.366-4.346,6.254,6.254,0,0,1,1.216-3.2,16.312,16.312,0,0,1,2.758-2.885,42.765,42.765,0,0,1,3.511-2.613,12.8,12.8,0,0,0,1.939-1.558,4.577,4.577,0,0,0,1.046-1.464,1.634,1.634,0,0,0-.806-2.288,6.071,6.071,0,0,0-3.089-.522,15.158,15.158,0,0,0-3.4.662,19.327,19.327,0,0,1-3.927.724,8.06,8.06,0,0,1-3.466-.595,5.132,5.132,0,0,1-2.226-1.754,3.893,3.893,0,0,1-.173-4.534,7.017,7.017,0,0,1,7.357-3.338,13.011,13.011,0,0,1,3.083.98,17.94,17.94,0,0,0,3.769,1.308,4.662,4.662,0,0,0,1.5.1,2.195,2.195,0,0,0,1.6-3.5,8.536,8.536,0,0,0-2.172-2.183c-.719-.512-1.478-.959-2.241-1.4a11.558,11.558,0,0,1-3.224-2.583,6.766,6.766,0,0,1-1.282-6.989,5.662,5.662,0,0,1,.7-1.333,4.016,4.016,0,0,1,4.541-1.728,6.686,6.686,0,0,1,3.162,1.826,12.676,12.676,0,0,1,2.911,4.54c.615,1.569,1.18,3.157,1.783,4.73a7.911,7.911,0,0,0,1.7,2.827c1.441,1.453,2.789,1.254,3.712-.573a9.7,9.7,0,0,0,.906-4.17C69.5,223.285,69.443,222.63,69.423,221.977Z" transform="translate(-38.866 -26.788)" fill="#eb4559"/><path d="M55.184,400.19A14.334,14.334,0,0,1,57.713,392a8.126,8.126,0,0,1,4.69-3.436,4.532,4.532,0,0,1,5.788,3.158,14.515,14.515,0,0,1,.484,5.754c-.141,1.672-.268,3.348-.352,5.024A7.27,7.27,0,0,0,69,405.889a2.646,2.646,0,0,0,2.035,1.607,12.582,12.582,0,0,0,2.181.213,11.332,11.332,0,0,1,3.438.493,4.457,4.457,0,0,1,1.809,7.564,10.958,10.958,0,0,1-11.029,2.625,15.6,15.6,0,0,1-9.613-7.722A20.745,20.745,0,0,1,55.184,400.19Z" transform="translate(-38.866 -26.788)" fill="#eb4559"/><path d="M91.045,433.945a20.3,20.3,0,0,0-4.292.393,4.335,4.335,0,0,0-2.34,1.275,14.654,14.654,0,0,0-2.573,3.541,14.823,14.823,0,0,1-1.389,2.327,7.547,7.547,0,0,1-5.038,3.092,4.507,4.507,0,0,1-5.007-2.791,8.764,8.764,0,0,1,.076-6.684,19.745,19.745,0,0,1,6.271-8.543,20.591,20.591,0,0,1,14.728-4.431,15.47,15.47,0,0,1,3.815.615,8.15,8.15,0,0,1,4.034,2.668A4.645,4.645,0,0,1,98.7,432a7.927,7.927,0,0,1-4.353,1.8A17.1,17.1,0,0,1,91.045,433.945Z" transform="translate(-38.866 -26.788)" fill="#eb4559"/><path d="M86.825,403.387a21.422,21.422,0,0,1,1.313-7.873,11.45,11.45,0,0,1,4.052-5.24,6.705,6.705,0,0,1,5.4-1.157,5.571,5.571,0,0,1,4.38,6.575,14.064,14.064,0,0,1-.944,2.809c-.251.6-.516,1.184-.762,1.781a5.459,5.459,0,0,0,.512,5.411c.406.609.779,1.24,1.146,1.874a5.126,5.126,0,0,1-.106,5.845,5.615,5.615,0,0,1-5.625,2.441A10.171,10.171,0,0,1,87.13,407.1,18.456,18.456,0,0,1,86.825,403.387Z" transform="translate(-38.866 -26.788)" fill="#eb4559"/><path d="M85.97,367.642a4.162,4.162,0,0,1,2.769,1.177,2.848,2.848,0,0,1,.839,2.825A9,9,0,0,1,87.3,375.78a20.928,20.928,0,0,0-1.753,2.064,4.219,4.219,0,0,0-.353,4.516c.29.623.643,1.221.9,1.858a5.352,5.352,0,0,1-.689,5.383c-1.8,2.512-5.048,2.727-7.434.5a8.485,8.485,0,0,1-2.494-5.125,10.571,10.571,0,0,1,.074-3.73,22.456,22.456,0,0,1,5.28-10.9,9.29,9.29,0,0,1,3.118-2.25A4.861,4.861,0,0,1,85.97,367.642Z" transform="translate(-38.866 -26.788)" fill="#eb4559"/><path d="M440.827,105.732c-3.46.017-6.867-3.148-6.891-6.53-.033-4.569,4.625-9.069,10.079-6.747a6.549,6.549,0,0,1,4.205,6.57,6.815,6.815,0,0,1-2.591,4.854A7.241,7.241,0,0,1,440.827,105.732Z" transform="translate(-38.866 -26.788)" fill="#eb4559"/><path d="M411.617,78.882a6.743,6.743,0,1,1,13.482-.31,5.7,5.7,0,0,1-.551,2.3,7.28,7.28,0,0,1-9.789,3.52,5.407,5.407,0,0,1-2.411-2.542A7.373,7.373,0,0,1,411.617,78.882Z" transform="translate(-38.866 -26.788)" fill="#eb4559"/><path d="M437.494,87.037a5.308,5.308,0,0,1-.759,2.84,7.19,7.19,0,0,1-6.923,3.8,5.746,5.746,0,0,1-5.07-3.62,5.934,5.934,0,0,1,.785-6.282,7.1,7.1,0,0,1,5.355-3.033A6.3,6.3,0,0,1,437.494,87.037Z" transform="translate(-38.866 -26.788)" fill="#eb4559"/><path d="M395.462,78.321a6.605,6.605,0,0,1,6.362-6.483,6.433,6.433,0,0,1,6.721,6.266,7.106,7.106,0,0,1-6.842,6.809A6.557,6.557,0,0,1,395.462,78.321Z" transform="translate(-38.866 -26.788)" fill="#eb4559"/><path d="M387.341,96.856a6.445,6.445,0,0,1,5.686,3.724,6.533,6.533,0,0,1-2.141,7.722,5.915,5.915,0,0,1-7.668-.229,7.818,7.818,0,0,1-2.139-3.948C380.063,100.674,382.637,96.773,387.341,96.856Z" transform="translate(-38.866 -26.788)" fill="#eb4559"/><path d="M391.7,95.775a5.127,5.127,0,0,1-3.557-1.29c-.179-.147-.347-.308-.518-.464a5.913,5.913,0,0,1-1.643-6.949,6.212,6.212,0,0,1,6.058-4.023,6.017,6.017,0,0,1,5.422,8.495,7.312,7.312,0,0,1-3.645,3.779A4.65,4.65,0,0,1,391.7,95.775Z" transform="translate(-38.866 -26.788)" fill="#eb4559"/><path d="M431.126,360.313a3.944,3.944,0,1,1,7.863-.612c.606,4.487,1.743,8.865,2.7,13.279a6.081,6.081,0,0,1,.217,2.551,3.912,3.912,0,0,1-7.511.7,13.373,13.373,0,0,1-.45-1.748c-.933-4.113-1.907-8.217-2.6-12.38C431.249,361.512,431.2,360.91,431.126,360.313Z" transform="translate(-38.866 -26.788)" fill="#eb4559"/><path d="M428.574,337.6a3.917,3.917,0,0,1,3.793,5.231,9.832,9.832,0,0,1-.6,1.284q-2.954,5.738-5.917,11.469a7.728,7.728,0,0,1-.728,1.214,3.862,3.862,0,0,1-4.645,1.164,3.911,3.911,0,0,1-2.25-4.348,5.712,5.712,0,0,1,.576-1.568q3.1-6.023,6.215-12.041a4.16,4.16,0,0,1,2.909-2.344A4.621,4.621,0,0,1,428.574,337.6Z" transform="translate(-38.866 -26.788)" fill="#eb4559"/><path d="M482.39,325.01a4.087,4.087,0,0,1-.813,2.731c-2.752,3.478-5.152,7.209-7.783,10.774a3.928,3.928,0,0,1-4.363,1.753,3.876,3.876,0,0,1-2.632-5.282,4.628,4.628,0,0,1,.492-.9q3.591-5.046,7.206-10.076a8.059,8.059,0,0,1,1.446-1.643,3.772,3.772,0,0,1,4.227-.534A3.73,3.73,0,0,1,482.39,325.01Z" transform="translate(-38.866 -26.788)" fill="#eb4559"/><path d="M411.944,316.4a3.9,3.9,0,0,1,3.595,5.442,4.925,4.925,0,0,1-.592.994q-3.87,5.16-7.755,10.309a4.486,4.486,0,0,1-2.645,1.93,3.909,3.909,0,0,1-4.378-5.572,4.612,4.612,0,0,1,.473-.767q3.792-5.058,7.594-10.108a6.724,6.724,0,0,1,1.417-1.49A3.745,3.745,0,0,1,411.944,316.4Z" transform="translate(-38.866 -26.788)" fill="#eb4559"/><path d="M459.176,326.911a4.065,4.065,0,0,1-.548,2q-2.791,5.451-5.585,10.9a4,4,0,0,1-3.745,2.5,3.875,3.875,0,0,1-3.694-5.094,6.424,6.424,0,0,1,.4-.951q2.727-5.338,5.472-10.67a7.139,7.139,0,0,1,.824-1.3,3.855,3.855,0,0,1,4.323-1.148A3.926,3.926,0,0,1,459.176,326.911Z" transform="translate(-38.866 -26.788)" fill="#eb4559"/><path d="M442.04,305.33a3.917,3.917,0,0,1,.533-1.886q2.871-5.483,5.755-10.961a4.1,4.1,0,0,1,3.278-2.418,3.893,3.893,0,0,1,4.2,4.8,5.277,5.277,0,0,1-.457,1.2c-1.87,3.582-3.758,7.154-5.632,10.734a4.632,4.632,0,0,1-2.188,2.277A3.917,3.917,0,0,1,442.04,305.33Z" transform="translate(-38.866 -26.788)" fill="#eb4559"/><path d="M430.134,301.173c-.086,2.19-.141,4.383-.266,6.571a3.941,3.941,0,0,1-7.363,1.924,5.063,5.063,0,0,1-.534-2.749c.082-1.8.168-3.608.243-5.412q.118-2.834.218-5.67a9.451,9.451,0,0,1,.2-1.919,3.914,3.914,0,0,1,7.723.426,7.582,7.582,0,0,1,.017,1.158c-.071,1.891-.151,3.781-.227,5.671Z" transform="translate(-38.866 -26.788)" fill="#eb4559"/><path d="M470.393,311.948c.055,1.42.194,2.843.146,4.259a3.841,3.841,0,0,1-5.013,3.546,3.787,3.787,0,0,1-2.774-3.388c-.122-.981-.17-1.973-.223-2.962-.153-2.838-.288-5.677-.44-8.515a7.087,7.087,0,0,1,.115-2.055,3.915,3.915,0,0,1,7.541-.281,5.513,5.513,0,0,1,.233,1.527C470.045,306.706,470.38,309.319,470.393,311.948Z" transform="translate(-38.866 -26.788)" fill="#eb4559"/><path d="M429.058,317.882a3.389,3.389,0,0,1,2.182.683c2.77,2.193,5.863,3.93,8.627,6.129.337.268.692.515,1.01.8a3.923,3.923,0,0,1-4.81,6.195c-.925-.628-1.785-1.351-2.7-1.99-1.695-1.179-3.414-2.325-5.117-3.493A9.644,9.644,0,0,1,426,324.278a3.909,3.909,0,0,1,3.054-6.4Z" transform="translate(-38.866 -26.788)" fill="#eb4559"/><path d="M56.778,59.529c-.281-.222-.516-.38-.718-.572-2.4-2.276-4.685-4.676-7.019-7.023a2.252,2.252,0,0,1-.776-1.646,1.958,1.958,0,0,1,1.043-1.768,1.932,1.932,0,0,1,2.129.078,7.2,7.2,0,0,1,1.046.931c2.257,2.291,4.48,4.615,6.83,6.813.766.716.575.6,1.3.147a26.934,26.934,0,0,1,2.611-1.465c.693-.335.679-.336.47-1.123q-.855-3.21-1.688-6.426c-.148-.574-.251-1.158-.391-1.734a3.557,3.557,0,0,1-.095-1.115,2.036,2.036,0,0,1,3.932-.6,4.43,4.43,0,0,1,.189.722c.554,2.659,1.258,5.28,2,7.891.192.678.21.687.871.547a23.871,23.871,0,0,1,10.676.085c.489.118.642-.016.758-.49.641-2.6,1.321-5.2,1.984-7.8a4.211,4.211,0,0,1,.41-1.14,2.044,2.044,0,0,1,2.341-.94,2.012,2.012,0,0,1,1.449,1.965,4.555,4.555,0,0,1-.168,1.011c-.665,2.663-1.346,5.323-2.007,7.987-.232.932-.215.942.6,1.347a24.109,24.109,0,0,1,5.531,3.817c.579.53.441.612,1.21.039,2.8-2.09,5.6-4.186,8.3-6.4a4.462,4.462,0,0,1,.609-.434,2.037,2.037,0,0,1,2.53,3.153,10.273,10.273,0,0,1-.992.854c-2.409,1.987-4.905,3.861-7.416,5.717-.151.111-.3.222-.448.339-.518.414-.528.422-.178.942a25.089,25.089,0,0,1,2.99,6.121c.215.647.225.645.92.538q3.747-.577,7.493-1.159a2.135,2.135,0,0,1,2.191.724,1.938,1.938,0,0,1,.292,2.029,2.175,2.175,0,0,1-1.8,1.33c-1.231.208-2.468.377-3.7.567-1.265.194-2.526.409-3.794.583-.495.067-.6.3-.544.759a22.726,22.726,0,0,1-.527,7.531c-.152.683-.144.668.512.916a44.317,44.317,0,0,0,8.4,2.209,7.959,7.959,0,0,1,1.447.37,2.03,2.03,0,0,1-.866,3.937c-.555-.047-1.1-.227-1.651-.314a42.565,42.565,0,0,1-8.228-2.136c-.146-.054-.294-.105-.443-.15-.73-.222-.742-.227-1.066.422a24.094,24.094,0,0,1-5.252,7c-.294.271-.48.483-.291.947.827,2.021,1.576,4.073,2.471,6.066a16.593,16.593,0,0,0,1.488,2.7,2.027,2.027,0,0,1-.3,2.785,2.068,2.068,0,0,1-2.808-.129,4.973,4.973,0,0,1-.941-1.275A53.99,53.99,0,0,1,86.588,98.6a3.17,3.17,0,0,0-.457-1.013,1.73,1.73,0,0,0-.846.371A24.644,24.644,0,0,1,79,100.323c-.892.2-.9.2-.925,1.156-.059,2.529-.1,5.057.07,7.584a13.732,13.732,0,0,1,.044,1.684,2.034,2.034,0,0,1-1.835,1.935,2.1,2.1,0,0,1-2.151-1.46,3.94,3.94,0,0,1-.146-1.016c-.192-2.65-.18-5.3-.146-7.958,0-.219.012-.437.008-.656-.012-.646-.013-.657-.683-.673a24.824,24.824,0,0,1-6.092-.926,23.4,23.4,0,0,1-4.1-1.574c-.681-.337-.62-.394-1.057.329q-1.913,3.166-3.832,6.327a7.073,7.073,0,0,1-.69,1,2.066,2.066,0,0,1-2.636.409,2.044,2.044,0,0,1-.778-2.545,6.347,6.347,0,0,1,.449-.82q1.988-3.283,3.979-6.566c.493-.816.452-.68-.167-1.193a24.256,24.256,0,0,1-5.572-6.634c-.381-.662-.392-.666-1.065-.351q-3.009,1.407-6.014,2.826a3.422,3.422,0,0,1-1.24.393,2.027,2.027,0,0,1-1.271-3.737,7.5,7.5,0,0,1,.915-.468q3-1.422,6.008-2.838c.654-.31.666-.32.48-.96a26.449,26.449,0,0,1-.993-6.178c-.031-.682-.043-.7-.774-.679-2.216.053-4.432.12-6.648.179-.374.01-.749.03-1.123.015a2.056,2.056,0,1,1-.073-4.11c2.027-.089,4.056-.131,6.085-.192.78-.024,1.56-.055,2.34-.063a.62.62,0,0,0,.7-.586,19.134,19.134,0,0,1,1.165-3.942.641.641,0,0,0-.293-.922c-1.426-.956-2.837-1.934-4.255-2.9-1.134-.775-2.273-1.543-3.405-2.32a5.36,5.36,0,0,1-.738-.574A2.033,2.033,0,0,1,44.781,58a5.792,5.792,0,0,1,.883.523q3.526,2.391,7.047,4.792c.641.436.653.443,1.071-.169A29.111,29.111,0,0,1,56.778,59.529Zm-3.07,16.949A20,20,0,1,0,74.026,56.77,20.038,20.038,0,0,0,53.708,76.478Z" transform="translate(-38.866 -26.788)" fill="#eb4559"/><path d="M58.691,82.906a9.574,9.574,0,0,1,1.816-5.933,6.578,6.578,0,0,1,6.823-2.7,8.519,8.519,0,0,1,5.858,3.986A7.108,7.108,0,0,1,73.94,84.8a8.392,8.392,0,0,1-7.655,5.772c-3.264.18-6.527-2.5-7.364-6.044A7.163,7.163,0,0,1,58.691,82.906Z" transform="translate(-38.866 -26.788)" fill="#eb4559"/><path d="M74.3,73.04a6.9,6.9,0,0,1-4.927-1.953,5.388,5.388,0,0,1-1.7-5.266,7.873,7.873,0,0,1,2.864-4.8,6.234,6.234,0,0,1,6.6-.939,8.691,8.691,0,0,1,1.716.95,6.155,6.155,0,0,1,1.2,9.321A7.488,7.488,0,0,1,74.3,73.04Z" transform="translate(-38.866 -26.788)" fill="#eb4559"/><path d="M77.631,80.775a6.641,6.641,0,0,1,4.684-6.512,6.813,6.813,0,0,1,6.274,1.585,5.814,5.814,0,0,1,.806,8.617,7.226,7.226,0,0,1-5.657,3.015,5.241,5.241,0,0,1-4.855-2.771A7.391,7.391,0,0,1,77.631,80.775Z" transform="translate(-38.866 -26.788)" fill="#eb4559"/></svg>