<svg xmlns="http://www.w3.org/2000/svg" viewBox="0 0 111.072 111.072"><circle cx="55.536" cy="55.536" r="55.536" transform="matrix(0.999, -0.039, 0.039, 0.999, -2.112, 2.196)" fill="#efca70"/><path d="M62.057,79.889c-18.887,0-34.327,13.64-35.442,30.852H97.5C96.382,93.529,80.942,79.889,62.057,79.889Z" fill="#534259" fill-rule="evenodd"/><path d="M49.039,102.274C54.924,96.091,59.512,94.4,64.8,96.69a33.926,33.926,0,0,1,8.877,5.684s.5-12.367-2.394-14.561-10.472-2.594-11.47-2.2S47.344,90.506,49.039,102.274Z" fill="#534259" fill-rule="evenodd"/><path d="M61.392,91.591c-5.187.4-11.571,8.512-12.1,10.772s-9.842-20.214,1.728-23.672,10.374,1.6,10.374,1.6Z" fill="#423447" fill-rule="evenodd"/><path d="M61.462,91.591c5.186.4,11.57,8.512,12.1,10.772S83.4,82.149,71.835,78.691s-10.373,1.6-10.373,1.6Z" fill="#423447" fill-rule="evenodd"/><path d="M24.341,59.333c-1.378-2.177-3.153-3.792-4.782-4.173-4.189-.978-5.8,2.788-4.754,7.035,1.513,6.174,8.044,12.245,11.85,7.351C28.89,66.674,24.341,59.333,24.341,59.333Z" fill="#e4ae91" fill-rule="evenodd"/><path d="M85.41,57.367a10.007,10.007,0,0,1,5.431-4.122c4.188-.978,5.8,2.788,4.754,7.035-1.514,6.173-8.044,12.244-11.85,7.351C81.511,64.759,85.41,57.367,85.41,57.367Z" fill="#e4ae91" fill-rule="evenodd"/><path d="M22.9,44.65c1.483,22.385,2.552,34.993,8.581,42.812,5.783,7.5,21.63,11.578,30.518,9.692,5.266-1.117,22.343-7.18,24.417-20.426s.16-46.44.16-46.44-16.6-12.767-25.854-13.724S25.936,25.5,25.936,25.5,15.4,29.011,22.9,44.65Z" fill="#e4ae91" fill-rule="evenodd"/><path d="M25.812,56.75c.8-10.134,2-11.011,5.985-13.166a42.235,42.235,0,0,1,7.66-3.191L35.227,45.5s32.4-6.143,37.983-6.143,4.149,4.467,7.021,9.734,6.383,7.182,6.383,7.182.16-22.662-.318-24.9S76.56,25.79,59.644,25.79,24.854,28.185,24.376,31.7,22.3,52.122,25.812,56.75Z" fill="#b77a65" fill-rule="evenodd"/><path d="M79.265,73.106c6.513,0,10.742.416,13.674,1.776,4.914,2.278,7.068,16.833,1.435,21.225a5.825,5.825,0,0,1-6.332.937c-6.649-3.191-3.963-7.873-1.569-6.277,1.24.826,2.561,1.473.619-.167-2.321-1.961-5.489-4.723-5.566-4.861C79.265,81.75,79.265,73.106,79.265,73.106Z" fill="#e4ae91" fill-rule="evenodd"/><path d="M80.938,73.116c1.745.022,3.309.082,4.719.192,0,9.257.119,13.984,4.628,16.436,4.4,2.394-3.894,3.666,4.014,6.42a5.8,5.8,0,0,1-6.257.88c-6.649-3.191-3.963-7.873-1.569-6.277,1.24.826,2.561,1.473.619-.167-2.321-1.961-5.489-4.723-5.566-4.861C79.464,82.1,79.282,74.594,79.267,73.3Q80.028,73.185,80.938,73.116Z" fill="#b77a65" fill-rule="evenodd"/><path d="M18.356,30.128c-4.38,5.279-3.652,9.336-2.234,15.72L17.4,42.816c1.253,3.7,2.263,6.566,3.4,9.3.876,2.107,3.661,10.331,4.14,8.634,2.939-10.42.745-12.374,2.115-17.853.319-1.278,8.218-6.863,8.218-6.863l-5.345,5.824L43.65,37.149l-6.622,7.182S46.2,38.985,60.567,36.91s19.31-1.037,19.31-1.037c-1.136,3.563,5.38,20.935,6.157,21.212.8.286,12.122-24.9,2.94-28.434-.361-.137,6.25,1.662,6.143,1.358-1.96-5.629-4.778-6.44-8.458-6.464a29.638,29.638,0,0,0-1.435-6.383l-1.2-3.512a9.484,9.484,0,0,1-.08,3.832,6.085,6.085,0,0,1-1.2,2.792S79.558,8.863,69.982,5.831C53.093.482,35.05,16.908,19.074,14.888c-.955-.121-1.639-.42-1.647.038-.019,1.218,1.43,3.653,3.013,5.231a8.4,8.4,0,0,0,2.492,1.627c-1.92,2.278-10.122,2.469-11.677,2.24C11.255,24.024,14.048,29.051,18.356,30.128Z" fill="#381c0a" fill-rule="evenodd"/><path d="M82.735,20.226a26.12,26.12,0,0,0-2.127-4.921c-4.442.756-19.528,2.607-30.636-4.63-1.319-.859-2.506-1.646-3.579-2.366-5.694,2.029-11.354,4.424-16.864,5.747,14.4,10.865,33.841,10.952,43.283,9.135C80.235,21.765,82.142,20.873,82.735,20.226Z" fill="#734434" fill-rule="evenodd"/><path d="M42.843,49.139c-6.583-.943-10.209.741-10.209.741l11.937,4.074S45.942,49.261,42.843,49.139Z" fill="#381c0a" fill-rule="evenodd"/><path d="M42.84,49.157c-6.166-.883-9.726.536-10.155.72L44.559,53.93c.088-.319,1.25-4.656-1.717-4.773Zm-10.214.706c.011-.006,3.631-1.686,10.219-.743,3.121.124,1.748,4.826,1.744,4.84l0,.019L32.628,49.9Z" fill="#20201e" fill-rule="evenodd"/><path d="M62.607,46.96c5.9-1.779,9.462-.56,9.462-.56L61.713,51.988S59.784,47.476,62.607,46.96Z" fill="#381c0a" fill-rule="evenodd"/><path d="M62.6,46.942c5.9-1.781,9.461-.562,9.472-.559l.042.014Q66.908,49.205,61.7,52.015L61.7,52c-.006-.013-1.937-4.531.906-5.053Zm9.418-.537c-.413-.128-3.878-1.095-9.408.574h0c-2.7.493-1.017,4.67-.887,4.983Z" fill="#20201e" fill-rule="evenodd"/><path d="M22.983,60.839a5.479,5.479,0,0,0-2.9-2.533c-2.543-.593-3.519,1.693-2.887,4.271.919,3.748,4.884,7.434,7.2,4.463C25.744,65.3,22.983,60.839,22.983,60.839Z" fill="#b77a65" fill-rule="evenodd"/><path d="M87.947,59.044a5.473,5.473,0,0,1,2.9-2.533c2.542-.594,3.517,1.693,2.885,4.271-.919,3.747-4.883,7.434-7.193,4.462C85.186,63.5,87.947,59.044,87.947,59.044Z" fill="#b77a65" fill-rule="evenodd"/><path d="M20.1,70.186c-6.761,8.845-7.04,25.876.051,31.4,8.779,6.833,64.954,2.425,64.927.653l-.05-3.2L84.616,72.21,26.94,78.07l-1.792-7.2C23.577,71.725,21.773,71.327,20.1,70.186Z" fill="#5c4a60" fill-rule="evenodd"/><polygon points="37.216 59.35 45.661 62.83 40.23 67.747 38.972 66.357 42.198 63.435 36.502 61.088 37.216 59.35" fill="#381c0a" fill-rule="evenodd"/><polygon points="70.481 57.258 65.085 60.505 69.132 62.648 68.257 64.312 61.266 60.61 69.517 55.646 70.481 57.258" fill="#381c0a" fill-rule="evenodd"/><path d="M50.812,70.66a20.2,20.2,0,0,0,8.1-.794c-1.317,1.646-2.043,2.579-3.3,2.863C54.321,73.022,52.56,72.487,50.812,70.66Z" fill="#b77a65" fill-rule="evenodd"/><polygon points="6.317 58.462 15.663 66.686 19.677 63.073 28.951 71.919 27.655 73.281 19.642 65.638 15.676 69.206 5.073 59.875 6.317 58.462" fill="#381c0a" fill-rule="evenodd"/><polygon points="3.953 82.494 16.127 83.14 17.165 76.696 29.776 75.989 29.88 77.867 18.778 78.489 17.714 85.107 3.857 84.372 3.953 82.494" fill="#381c0a" fill-rule="evenodd"/><polygon points="100.969 54.556 90.366 63.886 86.401 60.317 78.387 67.962 77.091 66.6 86.365 57.754 90.38 61.366 99.725 53.143 100.969 54.556" fill="#381c0a" fill-rule="evenodd"/><polygon points="102.185 79.053 88.329 79.787 87.264 73.17 76.163 72.547 76.266 70.67 88.878 71.377 89.915 77.82 102.09 77.175 102.185 79.053" fill="#381c0a" fill-rule="evenodd"/><path d="M39.488,70.362c-3.268-.169-5.986,1-6.069,2.6s2.5,3.046,5.768,3.215,5.987-1,6.07-2.6S42.757,70.53,39.488,70.362Z" fill="#dd9989" fill-rule="evenodd"/><path d="M69.614,67.349c-3.248.409-5.717,2.035-5.515,3.632s3,2.558,6.244,2.149S76.06,71.1,75.859,69.5,72.862,66.94,69.614,67.349Z" fill="#dd9989" fill-rule="evenodd"/></svg>