<svg xmlns="http://www.w3.org/2000/svg" viewBox="0 0 450.601 482.325"><path d="M66.33,346.435c-.35-2.178-10.85-12.872-19.6-18.3s-2.45,13.439-2.45,13.439l-3.85,4.861-6.65,4.628v5.951l8.05,10.238h1.75l14.7,3.412,9.8-3.412s2.1-9.188,2.1-10.238S66.68,348.613,66.33,346.435Z" fill="#ebebeb"/><path d="M64.847,345.047a23.925,23.925,0,0,0-4.989.54,20.688,20.688,0,0,0-10.18,6.182,30.71,30.71,0,0,0-6,10.45c-.517,1.468-.87,2.682-1.1,3.523a7.477,7.477,0,0,1-.4,1.3,6.366,6.366,0,0,1,.207-1.348,34.687,34.687,0,0,1,.953-3.593,29.1,29.1,0,0,1,5.959-10.683,20.2,20.2,0,0,1,10.483-6.19,14.834,14.834,0,0,1,3.714-.339,8.846,8.846,0,0,1,1.01.086C64.73,345.005,64.849,345.029,64.847,345.047Z" fill="#e0e0e0"/><path d="M68.045,356.177c.012.087-1.438.313-3.733.875a49.641,49.641,0,0,0-16.7,7.548c-1.938,1.351-3.066,2.29-3.123,2.223a3.985,3.985,0,0,1,.728-.736c.487-.453,1.23-1.067,2.179-1.785a42.587,42.587,0,0,1,16.838-7.609c1.166-.238,2.118-.39,2.78-.456A3.968,3.968,0,0,1,68.045,356.177Z" fill="#e0e0e0"/><path d="M60.265,357.527a5.63,5.63,0,0,1,.23,1.879,22.513,22.513,0,0,1-1.62,8.943,5.622,5.622,0,0,1-.874,1.68c-.149-.063,1.014-2.7,1.627-6.162C60.268,360.41,60.1,357.533,60.265,357.527Z" fill="#e0e0e0"/><path d="M55.505,348.111a28.273,28.273,0,0,0-7.347-1.81,20.891,20.891,0,0,0-5.33.294,4.463,4.463,0,0,0-2.009.809c-.025-.017.07-.229.386-.488a4.019,4.019,0,0,1,1.542-.681,17.563,17.563,0,0,1,10.772.791A6.592,6.592,0,0,1,55.505,348.111Z" fill="#e0e0e0"/><path d="M56.507,337.06a20.923,20.923,0,0,0-6.95,1.3,20.909,20.909,0,0,0-5.848,3.977,5.648,5.648,0,0,1,1.337-1.656,13.97,13.97,0,0,1,9.346-3.854A5.635,5.635,0,0,1,56.507,337.06Z" fill="#e0e0e0"/><path d="M352.377,398.3c-23.01-14.075-29.762-42.39-30.456-68.171-.117-4.3-.864-8.8.949-12.695s6.423-6.757,10.379-5.182c3.28,1.307,4.9,4.932,6.868,7.891a25.159,25.159,0,0,0,10.658,9.006c2.821,1.252,6.257,1.914,8.866.261,3.58-2.27,3.7-7.414,3.418-11.684q-.8-11.939-1.605-23.873c-.287-4.269-.565-8.63.516-12.764s3.787-8.08,7.781-9.466,9.161.651,10.274,4.78c.463,1.718.219,3.545.446,5.311s1.172,3.677,2.886,4.068c1.735.4,3.371-.918,4.571-2.246,4.146-4.581,6.8-10.319,9.258-16.014s4.828-11.517,8.542-16.465,9.019-9.012,15.115-9.731,12.844,2.659,14.755,8.57c1.918,5.927-1.223,12.251-4.749,17.358a95.527,95.527,0,0,1-18.7,20.132c-1.288,1.038-2.685,2.159-3.1,3.772-.754,2.9,2.117,5.568,4.985,6.333,3.248.866,6.683.325,10.037.514s7.052,1.439,8.5,4.51c2.016,4.259-1.356,9.057-4.766,12.273a81.809,81.809,0,0,1-23.322,15.426c-3.072,1.341-6.317,2.552-8.716,4.913s-3.694,6.295-1.981,9.209,5.7,3.643,8.958,2.831,6.09-2.777,9.154-4.151c5.735-2.574,13.34-2.631,17.409,2.213,2.674,3.184,3.175,7.814,2.167,11.865s-3.333,7.629-5.832,10.95c-8.735,11.611-20.237,21.231-33.566,26.782s-25.867,7.6-39.7,3.474" fill="#ebebeb"/><path d="M353.2,417.4a187.883,187.883,0,0,1,4.833-35.627,383.357,383.357,0,0,1,12.682-42.132q1.969-5.505,3.891-10.872c1.285-3.566,2.56-7.1,4.02-10.484a191.642,191.642,0,0,1,9.5-18.951c3.315-5.881,6.675-11.342,9.853-16.424s6.255-9.755,9.229-13.9a151.863,151.863,0,0,1,15.475-18.49c1.99-2.033,3.586-3.558,4.682-4.578l1.253-1.152a3.309,3.309,0,0,1,.445-.372,2.983,2.983,0,0,1-.389.432c-.3.3-.695.7-1.2,1.208-1.059,1.056-2.619,2.616-4.575,4.678a160.827,160.827,0,0,0-15.241,18.6c-2.937,4.152-5.966,8.835-9.127,13.922s-6.488,10.559-9.778,16.435a193.673,193.673,0,0,0-9.425,18.9c-1.447,3.365-2.707,6.872-3.993,10.447s-2.573,7.2-3.886,10.868a392.976,392.976,0,0,0-12.717,42.03,191.118,191.118,0,0,0-4.982,35.481" fill="#e0e0e0"/><path d="M378.851,318.237a8.735,8.735,0,0,1-.528-1.8c-.3-1.166-.669-2.868-1.1-4.977-.863-4.216-1.856-10.079-2.927-16.546s-2.144-12.3-3.069-16.495c-.457-2.1-.843-3.79-1.126-4.957a8.454,8.454,0,0,1-.351-1.84,8.589,8.589,0,0,1,.646,1.758c.374,1.144.844,2.823,1.37,4.91,1.068,4.173,2.234,10.014,3.305,16.491,1.04,6.385,1.98,12.162,2.7,16.576.337,1.992.623,3.67.852,5.017A8.521,8.521,0,0,1,378.851,318.237Z" fill="#e0e0e0"/><path d="M433.14,304.627a11.783,11.783,0,0,1-2.174.4c-1.4.211-3.431.506-5.926.951-5,.849-11.858,2.264-19.359,4.157s-14.214,3.92-19.028,5.517c-2.414.782-4.35,1.467-5.691,1.932a11.921,11.921,0,0,1-2.111.657,11.753,11.753,0,0,1,2-.947c1.311-.555,3.223-1.322,5.62-2.175,4.782-1.739,11.494-3.845,19.017-5.758a193.774,193.774,0,0,1,19.463-3.939c2.515-.375,4.562-.587,5.979-.7A11.724,11.724,0,0,1,433.14,304.627Z" fill="#e0e0e0"/><path d="M358.649,380.718a2.844,2.844,0,0,1-.417-.647l-1.061-1.929c-.913-1.68-2.171-4.145-3.685-7.211-3.033-6.129-6.955-14.728-11.156-24.274s-8.041-18.175-10.941-24.359c-1.42-3-2.589-5.477-3.456-7.314-.373-.8-.679-1.456-.93-2a2.83,2.83,0,0,1-.277-.721,2.879,2.879,0,0,1,.418.648l1.06,1.928c.913,1.68,2.171,4.145,3.685,7.211,3.033,6.129,6.956,14.728,11.158,24.279s8.039,18.17,10.939,24.355c1.421,3,2.589,5.477,3.457,7.313.372.8.678,1.457.93,2A2.877,2.877,0,0,1,358.649,380.718Z" fill="#e0e0e0"/><path d="M430.189,352.752a2.992,2.992,0,0,1-.706.343l-2.076.839c-1.919.754-4.509,1.772-7.66,3.008-6.468,2.543-15.36,6.156-25.18,10.161s-18.758,7.543-25.28,9.951c-3.261,1.206-5.908,2.154-7.751,2.772-.853.28-1.556.511-2.127.7a2.909,2.909,0,0,1-.76.192,3.013,3.013,0,0,1,.706-.344l2.076-.838,7.659-3.009c6.467-2.541,15.361-6.155,25.184-10.162s18.753-7.541,25.275-9.95c3.261-1.205,5.909-2.154,7.753-2.772.853-.28,1.554-.512,2.127-.7A2.848,2.848,0,0,1,430.189,352.752Z" fill="#e0e0e0"/><path d="M27.857,370.8l-7.834,3.282,1.376,9.106-.318,6.035L32.092,391.8l9.106-3.846,6.247,1.059,3.176-4.765L48.5,375.35l-2.541-5.929-6.141-1.694s-4.129-6.459-4.5-6.353-6.512,1.376-6.512,1.376l-1.588,3.918.318,3.6" fill="#f5f5f5"/><path d="M32.17,391.656a13.148,13.148,0,0,1-1.58-2.753c-.887-1.746-1.853-4.294-3.209-6.909a16.741,16.741,0,0,0-2.364-3.386c-.842-.938-1.8-1.619-2.5-2.322-.709-.679-1.26-1.244-1.643-1.634s-.588-.613-.564-.641a16.419,16.419,0,0,1,2.455,2c.711.652,1.691,1.3,2.6,2.267a15.96,15.96,0,0,1,2.47,3.466c1.391,2.683,2.287,5.222,3.087,7C31.692,390.541,32.237,391.619,32.17,391.656Z" fill="#e0e0e0"/><path d="M48.059,380.9c-.069.06-.922-.927-2.492-2.308a29.6,29.6,0,0,0-14.523-6.95c-2.06-.356-3.364-.4-3.36-.493a3.116,3.116,0,0,1,.918-.053,18.771,18.771,0,0,1,2.5.182,26.576,26.576,0,0,1,14.716,7.042,18.859,18.859,0,0,1,1.709,1.831A3.1,3.1,0,0,1,48.059,380.9Z" fill="#e0e0e0"/><path d="M39.586,374.88a8.184,8.184,0,0,1,.227,2.479,23.964,23.964,0,0,1-.764,5.962,13.327,13.327,0,0,1-2.486,5.485,3.24,3.24,0,0,1-2.143,1.277,6.521,6.521,0,0,0,1.863-1.515,14.846,14.846,0,0,0,2.262-5.377,30.649,30.649,0,0,0,.9-5.843A21.126,21.126,0,0,1,39.586,374.88Z" fill="#e0e0e0"/><path d="M35.522,362.805a14.607,14.607,0,0,1-1.384,9c-.145-.055.524-1.991.9-4.468C35.423,364.861,35.367,362.813,35.522,362.805Z" fill="#e0e0e0"/><path d="M45.755,378.35a9.354,9.354,0,0,1-1.178,5.4,9.36,9.36,0,0,1-3.654,4.149,24.23,24.23,0,0,0,3.189-4.384A24.194,24.194,0,0,0,45.755,378.35Z" fill="#e0e0e0"/><path d="M51.208,365.83l8.246-2.041.038-9.208,1.24-5.915-10.486-4.235-9.587,2.4-6.011-2-3.87,4.22.728,9.113,1.6,6.249,5.808,2.617S42,374.044,42.386,374s6.646-.361,6.646-.361l2.17-3.627.239-3.606" fill="#f5f5f5"/><path d="M50.149,344.556a13.25,13.25,0,0,1,1.138,2.963c.608,1.861,1.172,4.528,2.111,7.32a16.8,16.8,0,0,0,1.815,3.709c.689,1.056,1.531,1.876,2.115,2.678.6.779,1.054,1.423,1.373,1.867a2.941,2.941,0,0,1,.459.719,16.369,16.369,0,0,1-2.119-2.355c-.6-.752-1.471-1.541-2.224-2.639a15.944,15.944,0,0,1-1.909-3.8c-.963-2.864-1.458-5.512-1.976-7.394C50.45,345.731,50.077,344.583,50.149,344.556Z" fill="#e0e0e0"/><path d="M32.8,352.748c.078-.049.769,1.058,2.108,2.663a29.623,29.623,0,0,0,13.285,9.1c1.981.668,3.262.912,3.245,1a3.123,3.123,0,0,1-.916-.088,18.741,18.741,0,0,1-2.44-.564,26.567,26.567,0,0,1-13.461-9.217,18.929,18.929,0,0,1-1.408-2.072A3.089,3.089,0,0,1,32.8,352.748Z" fill="#e0e0e0"/><path d="M40.246,360a8.126,8.126,0,0,1,.156-2.484,23.933,23.933,0,0,1,1.67-5.774,13.331,13.331,0,0,1,3.3-5.039,3.243,3.243,0,0,1,2.313-.933,6.537,6.537,0,0,0-2.073,1.212,14.834,14.834,0,0,0-3.06,4.966,30.581,30.581,0,0,0-1.786,5.635A21.4,21.4,0,0,1,40.246,360Z" fill="#e0e0e0"/><path d="M42.408,372.551a14.591,14.591,0,0,1,2.748-8.678c.135.076-.823,1.886-1.571,4.277C42.821,370.535,42.562,372.567,42.408,372.551Z" fill="#e0e0e0"/><path d="M34.682,355.62a9.347,9.347,0,0,1,1.993-5.156,9.339,9.339,0,0,1,4.248-3.539,24.194,24.194,0,0,0-3.825,3.842A24.2,24.2,0,0,0,34.682,355.62Z" fill="#e0e0e0"/><path d="M69.691,354.553l8.246-2.041.037-9.209,1.24-5.915-10.485-4.235-9.588,2.4-6.01-2-3.87,4.221.727,9.113,1.6,6.249L57.4,355.75s3.089,7.016,3.472,6.968,6.645-.36,6.645-.36l2.171-3.628.239-3.606" fill="#fafafa"/><path d="M68.631,333.278a13.188,13.188,0,0,1,1.138,2.964c.609,1.861,1.172,4.527,2.112,7.319A16.718,16.718,0,0,0,73.7,347.27c.689,1.057,1.531,1.877,2.114,2.678.6.78,1.055,1.423,1.374,1.867s.487.7.458.72a16.478,16.478,0,0,1-2.118-2.355c-.6-.753-1.472-1.542-2.224-2.639a15.972,15.972,0,0,1-1.91-3.805c-.962-2.864-1.457-5.511-1.975-7.394C68.932,334.454,68.559,333.305,68.631,333.278Z" fill="#e0e0e0"/><path d="M51.279,341.471c.078-.049.769,1.057,2.108,2.663a29.628,29.628,0,0,0,13.284,9.1c1.981.668,3.263.912,3.246,1a3.078,3.078,0,0,1-.916-.088,18.919,18.919,0,0,1-2.441-.563,26.569,26.569,0,0,1-13.46-9.218,18.886,18.886,0,0,1-1.408-2.071A3.123,3.123,0,0,1,51.279,341.471Z" fill="#e0e0e0"/><path d="M58.728,348.718a8.206,8.206,0,0,1,.156-2.484,24.013,24.013,0,0,1,1.67-5.774,13.355,13.355,0,0,1,3.3-5.04,3.251,3.251,0,0,1,2.314-.933,6.587,6.587,0,0,0-2.073,1.212,14.834,14.834,0,0,0-3.06,4.966,30.564,30.564,0,0,0-1.786,5.636A21.1,21.1,0,0,1,58.728,348.718Z" fill="#e0e0e0"/><path d="M60.89,361.274a14.606,14.606,0,0,1,2.749-8.679c.135.076-.823,1.887-1.571,4.277C61.3,359.257,61.045,361.289,60.89,361.274Z" fill="#e0e0e0"/><path d="M53.165,344.342a11.016,11.016,0,0,1,6.24-8.695,24.2,24.2,0,0,0-3.824,3.843A24.208,24.208,0,0,0,53.165,344.342Z" fill="#e0e0e0"/><path d="M27.587,405.485c-2.162-1.853-6.985-7.727-3.265-14.559,1.363-2.5,4.258-3.744,6.879-4.847s5.375-2.063,7.544-3.908c4.09-3.48,5.218-9.26,7.933-13.9,3.117-5.329,8.934-9.321,15.08-9.042,7.039.32,12.908,6.069,15.569,12.623s2.754,13.832,2.809,20.91c.031,3.914-.143,8.326-3.017,10.969-2.649,2.437-6.638,2.467-10.228,2.357L28.428,404.9" fill="#ebebeb"/><path d="M101.151,299.719H0L18.221,408.365a12.132,12.132,0,0,0,8.636,9.673c.116.037.237.064.354.1.3.077.592.179.9.233a12.649,12.649,0,0,0,2.057.236l.016.1.494-.078H75.763a12.634,12.634,0,0,0,2.477-.247,12.18,12.18,0,0,0,10.234-10.618l8.783-74.86.4-2.976h-.047l3.479-29.647Zm-19.082,69.3H71.689l1.047-31.532H84.763Zm3.7-31.532h9.938l-3.7,31.532H83.076ZM56.115,403.977l-.631-27.393H70.432l-.91,27.393ZM39.954,376.584H54.479l.631,27.393H42.083Zm1.122,27.393H28.9c-1.158-7.4-2.664-17.008-4.294-27.393H38.947Zm-1.71-34.955-2.45-31.532H53.579l.726,31.532Zm15.943,0-.726-31.532H71.731l-1.048,31.532Zm-.9-39.093-.673-29.2H72.952l-.97,29.2Zm-1,0H36.328l-2.269-29.2H52.732Zm-18.083,0H17.254c-.639-4.033-1.246-7.851-1.794-11.286-1.885-11.806-2.594-16.245-2.986-17.916H33.052Zm.587,7.561,2.451,31.532H23.418c-.5-3.2-1.012-6.436-1.521-9.675-1.171-7.443-2.344-14.884-3.446-21.857ZM22.4,369.022H12.641L7.352,337.49H17.434C18.975,347.235,20.683,358.08,22.4,369.022Zm1.187,7.562c1.488,9.479,2.953,18.826,4.293,27.393H18.5l-4.6-27.393Zm46.939,27.393.909-27.393h9.986l-2.34,27.393Zm2.459-74.048.97-29.2H87.9l-2.495,29.2Zm-61.47-29.2c.4,2.112,2.247,13.6,4.72,29.2H6.084l-4.9-29.2Zm76.391,103.25H80.09l2.341-27.393h8.691ZM96.6,329.929H86.417l2.5-29.2h11.11Z" fill="#e0e0e0"/><path d="M54.54,405.169l4.56-8.2L51.684,390l-3.848-5.456-11.319,5.287-5.278,9.56-6.147,3.349.5,6.307,7.915,6.275,6.258,3.411,6.489-2.725s8,2.787,8.247,2.441,4.713-5.643,4.713-5.643l-1.3-4.487-2.735-2.908" fill="#f5f5f5"/><path d="M55.178,405.412a1.013,1.013,0,0,1,.2.171l.541.54,2.069,2.131.015.016.007.024c.364,1.216.815,2.722,1.339,4.474l.021.07-.048.058-4.509,5.465-.161.194a.333.333,0,0,1-.17.1l-.094.008c-.059,0-.1-.006-.15-.009a4.759,4.759,0,0,1-.526-.1c-.342-.077-.681-.168-1.024-.263-.684-.191-1.379-.4-2.087-.626q-2.127-.669-4.416-1.456l.154,0-6.482,2.743-.1.043-.1-.054-6.263-3.4-.019-.011-.017-.013-7.921-6.267-.088-.069-.009-.113c-.16-2.013-.329-4.145-.5-6.306l-.013-.169.148-.08.618-.337,5.53-3.011-.1.1,5.288-9.554.039-.071.073-.034,11.331-5.263.168-.078.1.151,3.829,5.469-.026-.03,7.38,7,.082.079-.055.1c-1.454,2.555-2.609,4.587-3.421,6.015l-.924,1.585a3.714,3.714,0,0,1-.341.532,3.983,3.983,0,0,1,.273-.57l.858-1.622c.784-1.443,1.9-3.5,3.3-6.081l.027.176-7.452-6.927-.015-.013-.012-.017-3.866-5.443.273.073-11.308,5.312.112-.105-5.268,9.565-.036.066-.067.037-5.528,3.013-.618.337.135-.249c.17,2.161.338,4.293.5,6.307l-.1-.182,7.908,6.283-.035-.024,6.251,3.424-.2-.011,6.5-2.707.077-.032.078.027c1.518.531,2.986,1.028,4.394,1.484.7.226,1.395.443,2.071.639.338.1.673.19,1,.267a4.866,4.866,0,0,0,.483.093l.1.007h.033c.011-.014-.01.039,0,.066a.108.108,0,0,0,.024.043l.019.017.011.007c.032.023-.223-.163-.114-.086l.163-.193,4.59-5.432-.027.128c-.493-1.762-.916-3.275-1.257-4.5l.022.039-2-2.2-.5-.573A.962.962,0,0,1,55.178,405.412Z" fill="#263238"/><path d="M36.345,389.777a26.83,26.83,0,0,0,.814,6.417,9.039,9.039,0,0,0,3.631,5.2c2.137,1.334,4.8,1.359,7.3,1.7a3.752,3.752,0,0,1,2.782,1.307,5.542,5.542,0,0,1,.536,2.317,7.314,7.314,0,0,0,7.5,6.06" fill="#f5f5f5"/><path d="M58.9,412.776c0,.018-.125.038-.371.059a5.078,5.078,0,0,1-1.079-.025,7.425,7.425,0,0,1-6.359-6.713,3.659,3.659,0,0,0-.4-1.51,2.305,2.305,0,0,0-1.246-.928,19.427,19.427,0,0,0-3.579-.563,16.3,16.3,0,0,1-3.666-.751,7.356,7.356,0,0,1-2.955-1.911,10.692,10.692,0,0,1-2.54-5.288,23.408,23.408,0,0,1-.389-3.926,7.081,7.081,0,0,1,.029-1.443,8.189,8.189,0,0,1,.173,1.431,29.493,29.493,0,0,0,.547,3.861,10.586,10.586,0,0,0,2.527,5.033,6.948,6.948,0,0,0,2.779,1.763,16.3,16.3,0,0,0,3.555.714,18.956,18.956,0,0,1,3.694.6,2.8,2.8,0,0,1,1.5,1.15,4.09,4.09,0,0,1,.452,1.716,6.947,6.947,0,0,0,2.489,4.9,7.487,7.487,0,0,0,3.423,1.66C58.381,412.77,58.9,412.722,58.9,412.776Z" fill="#263238"/><path d="M49.381,403.45a3.945,3.945,0,0,1-.342,1.045A6.375,6.375,0,0,1,47.357,407a3.55,3.55,0,0,1-1.966.859,8.731,8.731,0,0,1-2.369-.414,2.112,2.112,0,0,0-1.129.051,2.6,2.6,0,0,0-.966.715c-.3.318-.57.688-.9,1.044a6.623,6.623,0,0,1-1.131.953,8.466,8.466,0,0,1-5.343,1.2,13.867,13.867,0,0,1-4.305-1.193,28.063,28.063,0,0,1-2.662-1.363,4.4,4.4,0,0,1-.919-.6c.042-.086,1.415.671,3.723,1.622a14.423,14.423,0,0,0,4.2,1.055,8.164,8.164,0,0,0,5.019-1.156,6.255,6.255,0,0,0,1.039-.871l.907-1.039a3.047,3.047,0,0,1,1.169-.834,2.572,2.572,0,0,1,1.389-.055,9.04,9.04,0,0,0,2.249.454,3.216,3.216,0,0,0,1.765-.715,6.788,6.788,0,0,0,1.729-2.307A5.112,5.112,0,0,1,49.381,403.45Z" fill="#263238"/><path d="M44.881,402.664a9.924,9.924,0,0,1,.177-2.452,49.741,49.741,0,0,1,3.028-11.448,9.955,9.955,0,0,1,1.059-2.219,13.624,13.624,0,0,1-.713,2.346c-.478,1.432-1.109,3.417-1.7,5.64s-1.02,4.261-1.313,5.741A13.588,13.588,0,0,1,44.881,402.664Z" fill="#263238"/><path d="M450.6,418.756c0,.144-99.36.261-221.9.261-122.581,0-221.92-.117-221.92-.261s99.339-.26,221.92-.26C351.241,418.5,450.6,418.613,450.6,418.756Z" fill="#263238"/><path d="M388.292,406.746c-7.707-2.2-10.724,1.931-10.724,1.931s2.465-14.786-5.421-51.256-44.871-68.746-50.27-78.737c-5.2-9.616-11.112-49.485-13.924-70.28a32.26,32.26,0,0,0-16.269-23.939,200.781,200.781,0,0,0-21.247-9.916c1.074-.649-7.865-14.544-15.882-14.556-7.268-.012-44.873-14.041-66.642,8.014-3.019,3.059-7.541,17.411-7.541,17.411s-7.551,7.946-14.023,13.918-30.2,67.914-39.635,84.094-7.285,50.695-7.285,50.695c-22.112,5.394-39.835,15.69-46.437,41.038S88.025,418.7,88.025,418.7l308.4-.154C395.87,412.541,392.169,407.853,388.292,406.746Z" fill="#e8505b"/><g opacity="0.5"><path d="M247.117,167.61c1.083-.32,15.572.3,19.536,20.217l-15.173.777Z"/></g><g opacity="0.5"><path d="M361.8,371.094c-10.116-22-47.2-11.684-55.236-16.918-3.5-2.279-8.69-3.833-13.434-8.623l1.006,12.43,4.213,61.023,71.233-.31S371.912,393.1,361.8,371.094Z"/></g><g opacity="0.5"><path d="M181.484,296.871c-1.265.949-27.516,11.386-27.516,12.335s-3.479,36.056-3.479,36.056l-44.912,6.326L86.6,361.718,79.187,376.4l-4.606,15.352,11.054,19.7,6.1,7.3,109.678.316V336.723s-16.911-39.852-18.418-39.852"/></g><g opacity="0.5"><path d="M181.16,195.041s4.646-10.355,5.4-11.031c.355-.32,1.068-3.534,1.72-6.829a18.075,18.075,0,0,1,2.921-7.106,16.663,16.663,0,0,1,5.112-4.281h0l8.827,20.173-6.936,9.9Z"/></g><path d="M273.4,188.6l-20.926-3.25-61.487,5.235S169,241.128,170.314,242.528c.664.709,18.119,56.34,18.119,56.34l-1.221,45.786s-6.235,7.7-7.3,13.2c-3.354,17.338,111.675,21.493,114.5,11.187v-168Z" fill="#455a64"/><path d="M190.989,190.589S171.6,192.555,166.3,205.542s-21.6,87.171-21.6,87.171-2.421,16.123,4.351,24.78c5.77,7.374,23.411,5.793,33.994.978,17.608-8.012,31.563-61.436,31.563-61.436l7.614-18.5-28.583-9.36-12.987,28.094Z" fill="#455a64"/><path d="M260.726,186.826c1.06.265,34.621,4.969,40.717,10.534s5.368,55.142,5.368,55.142-5.355,62.506-10.39,66.569-27.088,19.048-39.461-9.3c-3.608-8.266-11.533-18.379-16.48-28.844a390.881,390.881,0,0,1-16-39.949l28.183-13.2,21.865,37.028-3.96-53.137Z" fill="#455a64"/><path d="M188.009,146.55a30.036,30.036,0,0,1,22.176-34.171l1.507-.385c16.492-3.2,28.424,9.017,31.168,25.592l13.668,65.772a3.029,3.029,0,0,1-1.045,2.959l-32.156,26.366-7.518-34.431s-16.242,1.56-20.424-14.009C193.365,176.723,190.467,160.9,188.009,146.55Z" fill="#ffbe9d"/><path d="M215.674,198.262a39.1,39.1,0,0,0,18.936-11.216s-1.943,12.469-17.887,15.043Z" fill="#eb996e"/><path d="M203.019,155.792c-.313-.271-1.921,1.186-4.387,1.423-2.46.274-4.4-.815-4.632-.487-.118.147.224.657,1.069,1.153a6.315,6.315,0,0,0,3.745.759,6.057,6.057,0,0,0,3.455-1.506C202.969,156.477,203.172,155.912,203.019,155.792Z" fill="#263238"/><path d="M226.576,153.1c-.362-.2-1.653,1.543-4.021,2.263-2.357.753-4.469.068-4.637.437-.087.167.347.6,1.276.918a6.315,6.315,0,0,0,3.821.006,6.077,6.077,0,0,0,3.09-2.159C226.66,153.779,226.748,153.184,226.576,153.1Z" fill="#263238"/><path d="M213.454,170.26c-.024-.14-1.582-.017-4.078.292-.629.093-1.24.119-1.45-.273a3.214,3.214,0,0,1-.055-1.921q.3-2.445.62-5.13c.821-7.287,1.247-13.216.954-13.247s-1.2,5.852-2.017,13.14q-.282,2.689-.538,5.138a3.666,3.666,0,0,0,.3,2.487,1.589,1.589,0,0,0,1.236.639,4.28,4.28,0,0,0,1.078-.122C211.968,170.773,213.479,170.4,213.454,170.26Z" fill="#263238"/><path d="M225.14,144.062c-.525-.488-2.579.926-5.325,1.941-2.725,1.071-5.2,1.385-5.266,2.1-.021.336.632.713,1.773.86a9.848,9.848,0,0,0,8.069-3.077C225.144,145.014,225.38,144.3,225.14,144.062Z" fill="#263238"/><path d="M202.217,149.847c-.444-.632-2.576-.345-5.045-.668-2.477-.252-4.5-1.022-5.062-.507-.25.252,0,.857.836,1.514a8.176,8.176,0,0,0,3.966,1.5,8.034,8.034,0,0,0,4.178-.548C202.042,150.684,202.409,150.151,202.217,149.847Z" fill="#263238"/><path d="M243.452,149.752c.237-.183,9.921-5.915,12.307,4.85s-8.914,10.94-9,10.635S243.452,149.752,243.452,149.752Z" fill="#ffbe9d"/><path d="M248.2,160.668c.04-.045.217.09.567.165a1.918,1.918,0,0,0,1.408-.282c1.044-.669,1.6-2.687,1.224-4.639a6.355,6.355,0,0,0-1.12-2.569,2.222,2.222,0,0,0-1.73-1.127.977.977,0,0,0-.992.76c-.078.333.038.532-.015.564-.024.033-.271-.13-.283-.593a1.226,1.226,0,0,1,.274-.769,1.455,1.455,0,0,1,.976-.5,2.7,2.7,0,0,1,2.329,1.235,6.524,6.524,0,0,1,1.316,2.857c.411,2.184-.249,4.46-1.706,5.255a2.057,2.057,0,0,1-1.778.1C248.28,160.924,248.17,160.7,248.2,160.668Z" fill="#eb996e"/><path d="M214.415,149.506c.011.06-.415.21-1.125.126a3.819,3.819,0,0,1-3.337-3.885c.024-.715.237-1.113.295-1.093.079.019,0,.434.073,1.079a3.989,3.989,0,0,0,3.038,3.538C213.986,149.437,214.408,149.425,214.415,149.506Z" fill="#eb996e"/><path d="M247.545,132.541c.049.215.118.422.163.64,1.921,9.281-.593,21.323-.593,21.323-6.848,1.663-8.145-11.655-8.145-11.655-9.171-1.347-8.893-14.693-11.436-16.132s-7.963-4.893-23.573,8.132c-6.062,5.058-15.2,7.014-20.435,7.014-.153,0-.305.012-.459.01-.032,0-.074,0-.107,0-.057,0-.1-.022-.159-.026a16.292,16.292,0,0,1-4.963-.894,9.174,9.174,0,0,1-4.672-3.3,5.022,5.022,0,0,1-.229-5.479,11.041,11.041,0,0,1-3.785-5.086,6.361,6.361,0,0,1,1.035-6.062,4.512,4.512,0,0,1,5.8-.865,5.267,5.267,0,0,1,3-7.228c2.7-.8,5.508.746,8.322.871a12.8,12.8,0,0,0,7.641-2.683c2.259-1.565,4.271-3.475,6.58-4.965a22.3,22.3,0,0,1,16.487-3.047c5.61,1.181,10.088,2.59,13.243,7.377,3.415-1.981,8.157-.277,11.306,2.105,0,0,4.338,2.464,4.695,11.092C247.577,131.327,247.545,132.541,247.545,132.541Z" fill="#263238"/><path d="M176.656,117.5c.044-.048.578.526,1.731,1.312a15.649,15.649,0,0,0,5.408,2.244,24.042,24.042,0,0,0,8.689.145,60.715,60.715,0,0,0,10.338-2.9,67.6,67.6,0,0,1,10.4-3.012,24.989,24.989,0,0,1,8.847-.05,15.529,15.529,0,0,1,5.56,2.157,10.863,10.863,0,0,1,1.293.984,2.4,2.4,0,0,1,.408.393c-.041.05-.611-.487-1.808-1.2A16.247,16.247,0,0,0,222,115.6a25.337,25.337,0,0,0-8.7.16,70.753,70.753,0,0,0-10.314,3.032,58.544,58.544,0,0,1-10.437,2.883,23.775,23.775,0,0,1-8.842-.261,15.011,15.011,0,0,1-5.443-2.437,10.6,10.6,0,0,1-1.232-1.061A2.344,2.344,0,0,1,176.656,117.5Z" fill="#455a64"/><path d="M228.693,122.008c-.035.05-.649-.445-1.914-1.048a14.5,14.5,0,0,0-5.743-1.246,24.283,24.283,0,0,0-8.6,1.543c-3.132,1.1-6.4,2.78-9.968,4.27a37.939,37.939,0,0,1-5.355,1.822,26.174,26.174,0,0,1-5.226.738A27.406,27.406,0,0,1,183.051,127a25.992,25.992,0,0,1-5.518-2.35,15.694,15.694,0,0,1-1.381-.867,2.336,2.336,0,0,1-.453-.345c.03-.046.679.391,1.931,1.035a28.726,28.726,0,0,0,5.522,2.173,27.856,27.856,0,0,0,8.709.962,26.234,26.234,0,0,0,5.125-.754,38.433,38.433,0,0,0,5.279-1.808c3.539-1.477,6.828-3.147,10.007-4.241a24.034,24.034,0,0,1,8.775-1.46,14.038,14.038,0,0,1,5.821,1.433,9.813,9.813,0,0,1,1.387.867A2.32,2.32,0,0,1,228.693,122.008Z" fill="#455a64"/><path d="M247.448,122.766a5.116,5.116,0,0,1-1.953,1.264,10.292,10.292,0,0,1-5.565.743,19.5,19.5,0,0,1-5.234-1.99c-1.284-.578-2.16-.671-2.152-.753a4.506,4.506,0,0,1,2.288.411c1.369.464,3.068,1.524,5.174,1.817a11.1,11.1,0,0,0,5.351-.569C246.674,123.206,247.4,122.692,247.448,122.766Z" fill="#455a64"/><path d="M247.7,125.589a6.292,6.292,0,0,1-2.024,1.034,15.122,15.122,0,0,1-10.8-.2,6.288,6.288,0,0,1-1.983-1.109,22.343,22.343,0,0,1,2.112.764,17.323,17.323,0,0,0,10.554.2A22.293,22.293,0,0,1,247.7,125.589Z" fill="#455a64"/><path d="M206.371,146.49a2.923,2.923,0,0,1-.3,2.618c-.709,1.378-1.94,1.876-1.977,1.742-.08-.131.9-.762,1.515-1.983A16.571,16.571,0,0,0,206.371,146.49Z" fill="#eb996e"/><path d="M175.1,269.483s.134-.229.358-.712l.989-2.116,3.707-8.115c3.183-7.051,7.746-17.155,13.3-29.446l.077-.172.179.061,28.717,9.733.244.082-.095.24c-4.284,10.827-8.973,22.676-13.861,35.025-2.843,7.221-5.687,14.238-8.3,21.074a83.7,83.7,0,0,1-4.442,9.838,35.624,35.624,0,0,1-6.129,8.346,33.7,33.7,0,0,1-7.819,6,28.149,28.149,0,0,1-8.783,3.039,38.77,38.77,0,0,1-8.668.406,29.818,29.818,0,0,1-7.892-1.348,15.966,15.966,0,0,1-6.236-3.729,16.727,16.727,0,0,1-3.564-5.419,34.648,34.648,0,0,1-2.319-10.1,45.584,45.584,0,0,1-.1-6.551,22.038,22.038,0,0,1,.219-2.274s0,.2-.023.58-.066.951-.091,1.7a49.08,49.08,0,0,0,.2,6.527,34.842,34.842,0,0,0,2.385,10,16.444,16.444,0,0,0,3.529,5.3,15.639,15.639,0,0,0,6.119,3.616,29.544,29.544,0,0,0,7.8,1.3,38.57,38.57,0,0,0,8.575-.43,27.786,27.786,0,0,0,8.637-3.015,33.377,33.377,0,0,0,7.7-5.933,35.225,35.225,0,0,0,6.033-8.249,83.57,83.57,0,0,0,4.4-9.784c2.6-6.836,5.445-13.862,8.287-21.079l13.889-35.014.149.322-28.693-9.805.256-.111c-5.583,12.293-10.206,22.377-13.461,29.374-1.627,3.5-2.914,6.225-3.809,8.069-.449.922-.8,1.625-1.044,2.092A2.927,2.927,0,0,1,175.1,269.483Z" fill="#263238"/><path d="M183.4,252.217a5.169,5.169,0,0,1,.194-1.169c.193-.849.432-1.9.715-3.141.624-2.647,1.518-6.294,2.524-10.319,1.816-7.183,3.051-12.065,3.68-14.555.309.045-1.164,6.635-3.175,14.682-1.006,4.025-1.957,7.659-2.673,10.283-.357,1.312-.656,2.371-.875,3.1A5.167,5.167,0,0,1,183.4,252.217Z" fill="#263238"/><path d="M206.2,170.274s-3.051-3.169-5.763,0-2.41,10.844,2.73,18.635,3.1,37.066,3.1,37.066l30.4-11.353,2.094,9.317a31.88,31.88,0,0,0,10.151-9.317c3.9-5.926-2.034-13.48-3.22-18.219s-12.2-12.265-15.423-17.217S219.079,164.135,206.2,170.274Z" fill="#fafafa"/><path d="M226.444,239.3s-8.55-18.259-9.738-21.6-6.243-14.537-5.592-16.723c.614-2.061,3.588.02,3.588.02s-5.953-11.5-4.137-13.935a2.047,2.047,0,0,1,3.208-.236s-3.716-6.621-.564-8.611c1.625-1.025,4.389,2.956,4.389,2.956s2.609-2.884,4.978.744,12.244,19.842,12.244,19.842-.582-7.676.809-12.305c.938-3.12,5.48-4.9,5.753,4.59.176,6.134,7.325,34.984,7.325,34.984Z" fill="#ffbe9d"/><path d="M226.444,239.3s.137-.076.4-.2l1.149-.551,4.405-2.08,16.241-7.6-.1.2c-1.823-7.4-3.992-16.25-6.029-26.255-.481-2.508-1.008-5.073-1.289-7.764-.129-1.368-.135-2.682-.369-4.024l-.225-.983c-.079-.328-.213-.634-.316-.953a3.551,3.551,0,0,0-1.109-1.566,1.6,1.6,0,0,0-1.73-.091,3.271,3.271,0,0,0-1.323,1.423,8.274,8.274,0,0,0-.6,1.984c-.151.692-.251,1.4-.334,2.116a51.266,51.266,0,0,0-.138,8.783.259.259,0,0,1-.24.276.263.263,0,0,1-.239-.122l-6.206-10.054-4.65-7.538q-.574-.93-1.144-1.855a5.423,5.423,0,0,0-1.316-1.585,2.19,2.19,0,0,0-1.81-.472,3.344,3.344,0,0,0-1.685.954.261.261,0,0,1-.37.008.243.243,0,0,1-.03-.034,10.588,10.588,0,0,0-2.6-2.668c-.5-.3-1.092-.5-1.5-.169a2.516,2.516,0,0,0-.958,1.371,6.943,6.943,0,0,0,.279,3.534,18.126,18.126,0,0,0,1.381,3.322.246.246,0,0,1-.1.333A.253.253,0,0,1,213.6,187a1.912,1.912,0,0,0-1.98-.513,2.154,2.154,0,0,0-.829.68,1.8,1.8,0,0,0-.317,1,13.567,13.567,0,0,0,.9,4.513A65.762,65.762,0,0,0,214.9,200.9a.22.22,0,0,1-.1.3.224.224,0,0,1-.223-.015,4.822,4.822,0,0,0-2.221-.889.933.933,0,0,0-.884.418,1.092,1.092,0,0,0-.169.5l-.032.269.025.294a22.232,22.232,0,0,0,1.208,4.586c1.031,2.943,2.156,5.685,3.192,8.269,1.921,5.233,4,9.606,5.61,13.257l3.819,8.428,1,2.221.248.571a2.085,2.085,0,0,1,.074.2,1.223,1.223,0,0,1-.1-.182c-.071-.143-.162-.325-.28-.559L225,236.37l-3.93-8.379c-1.645-3.627-3.764-8.012-5.71-13.228-1.051-2.577-2.191-5.316-3.241-8.271a22.4,22.4,0,0,1-1.249-4.691,2.077,2.077,0,0,1,.01-.666,1.519,1.519,0,0,1,.227-.658,1.374,1.374,0,0,1,1.256-.621,5.19,5.19,0,0,1,2.464.96l-.323.283a65.841,65.841,0,0,1-3.581-8.273,13.9,13.9,0,0,1-.929-4.7,2.257,2.257,0,0,1,.414-1.255,2.62,2.62,0,0,1,1.024-.833,2,2,0,0,1,1.357-.061,3.094,3.094,0,0,1,1.154.672l-.386.295a18.575,18.575,0,0,1-1.43-3.421,7.4,7.4,0,0,1-.287-3.809A3.032,3.032,0,0,1,213,178.06a1.386,1.386,0,0,1,1.081-.232,2.738,2.738,0,0,1,.971.387,11.03,11.03,0,0,1,2.756,2.809l-.4-.025a3.828,3.828,0,0,1,1.968-1.117,2.717,2.717,0,0,1,2.216.565,5.93,5.93,0,0,1,1.439,1.715l1.146,1.856,4.655,7.542c2.127,3.447,4.222,6.845,6.208,10.063l-.479.154a51.689,51.689,0,0,1,.149-8.88c.085-.726.187-1.449.343-2.162a8.712,8.712,0,0,1,.648-2.11,3.753,3.753,0,0,1,1.539-1.637,2.108,2.108,0,0,1,2.246.128,4.029,4.029,0,0,1,1.28,1.785c.11.339.252.67.334,1.012l.232,1.026c.238,1.364.244,2.768.366,4.068.27,2.642.79,5.218,1.263,7.717,2.005,9.994,4.136,18.858,5.913,26.26a.173.173,0,0,1-.095.2l-16.414,7.474-4.406,1.987-1.136.5A3.307,3.307,0,0,1,226.444,239.3Z" fill="#eb996e"/><path d="M228.487,203.3c-.129.063-2.671-4.841-5.678-10.952s-5.34-11.118-5.21-11.181,2.67,4.839,5.678,10.952S228.616,203.24,228.487,203.3Z" fill="#eb996e"/><path d="M223.427,207.894c-.131.06-2.4-4.608-5.063-10.425s-4.721-10.583-4.591-10.643,2.4,4.607,5.064,10.426S223.557,207.834,223.427,207.894Z" fill="#eb996e"/><path d="M220.564,214.127a7.541,7.541,0,0,1-1.252-1.715A39.314,39.314,0,0,1,216.9,207.9a38.835,38.835,0,0,1-1.819-4.786,7.519,7.519,0,0,1-.468-2.072c.15-.044,1.108,3.037,2.761,6.642C219.006,211.294,220.7,214.043,220.564,214.127Z" fill="#eb996e"/><path d="M205.642,186.717a2.691,2.691,0,0,0-3.063-1.264c-2.687.746-7.222,2.125-8.463,3.243-1.8,1.618-5.683,5.912-5.679,8.8,0,.886-.89,2.479-1.2,3.967a6.113,6.113,0,0,0,2.454,6.64c1.149,1.019,5.573,11.5,5.573,11.5l2.58,10.536,11.675,4.107,9.629,3.283-5.017-14.315-7.867,2.757.8-18.32,2.3-4.342-.625-2.749-1.893-.583a2.333,2.333,0,0,0,.325-3.194l-1.644-1.391c2.031-.748,2.889-2.074,1.829-4.347-.611-.673-1.7-.772-2.942-.675A4,4,0,0,0,205.642,186.717Z" fill="#ffbe9d"/><path d="M205.106,220.744c-.015.011-.132-.116-.341-.368s-.508-.633-.866-1.145a11.23,11.23,0,0,1-1.131-1.985,5.994,5.994,0,0,1-.5-3.008,7.564,7.564,0,0,1,1.406-3.414,33.811,33.811,0,0,1,2.709-3.2,10.654,10.654,0,0,0,2.38-3.778,3.634,3.634,0,0,0,.076-2.235,1.773,1.773,0,0,0-1.609-1.257,3.543,3.543,0,0,0-1.959,1.172q-.924.823-1.822,1.62L200,206.2c-2.213,1.92-4.18,3.717-5.142,5.7a7.011,7.011,0,0,0-.593,5c.294,1.195.63,1.808.578,1.83a1.874,1.874,0,0,1-.254-.434,8.325,8.325,0,0,1-.52-1.344,7.207,7.207,0,0,1-.3-2.273,7.324,7.324,0,0,1,.759-2.946c.959-2.086,2.967-3.963,5.152-5.9l3.429-3.079q.892-.8,1.816-1.626a3.94,3.94,0,0,1,2.286-1.306,2.28,2.28,0,0,1,2.116,1.607,4.109,4.109,0,0,1-.078,2.555,10.99,10.99,0,0,1-2.509,3.947,35.063,35.063,0,0,0-2.713,3.129,7.255,7.255,0,0,0-1.394,3.21,5.781,5.781,0,0,0,.4,2.854,12.076,12.076,0,0,0,1.031,1.983C204.732,220.162,205.141,220.719,205.106,220.744Z" fill="#eb996e"/><path d="M196.96,208.713c-.01,0-.049-.048-.118-.159a4.237,4.237,0,0,1-.275-.513,3.926,3.926,0,0,1-.284-.921,1.751,1.751,0,0,1,.247-1.339l.007-.01.021-.012,8.052-4.518a6.7,6.7,0,0,0,2.346-1.768,2.414,2.414,0,0,0,.473-1.373,1.8,1.8,0,0,0-.593-1.308,3.208,3.208,0,0,0-3.048-.607,22.33,22.33,0,0,0-3.337,1.358l-9.128,4.142A4.319,4.319,0,0,0,189.668,203a3.112,3.112,0,0,0-.492,1.887,11.734,11.734,0,0,0,.983,3.595,42.4,42.4,0,0,0,2.351,4.972c.629,1.14,1.011,1.752.977,1.775a2.051,2.051,0,0,1-.328-.412c-.2-.283-.483-.7-.824-1.261a35.683,35.683,0,0,1-2.518-4.936,11.851,11.851,0,0,1-1.072-3.715,3.538,3.538,0,0,1,.543-2.161,4.752,4.752,0,0,1,1.814-1.486c2.809-1.334,5.89-2.708,9.134-4.19a22.207,22.207,0,0,1,3.432-1.385,3.7,3.7,0,0,1,3.513.746,2.3,2.3,0,0,1,.738,1.67,2.9,2.9,0,0,1-.574,1.649,7.05,7.05,0,0,1-2.523,1.881l-8.148,4.34.029-.022a1.624,1.624,0,0,0-.236,1.148,4.211,4.211,0,0,0,.217.9A6.472,6.472,0,0,1,196.96,208.713Z" fill="#eb996e"/><path d="M188.451,200.139a4.98,4.98,0,0,1,.489-1.1,17.207,17.207,0,0,1,1.739-2.782,10.05,10.05,0,0,1,3.87-2.976,39.031,39.031,0,0,1,5.65-1.857l2.952-.825a7.146,7.146,0,0,1,2.9-.435,2.562,2.562,0,0,1,1.322.577,2.239,2.239,0,0,1,.688,1.184,2.7,2.7,0,0,1-.53,2.286,4.3,4.3,0,0,1-2.921,1.511,3.361,3.361,0,0,1-1.205.007c0-.043.427-.061,1.172-.207A4.246,4.246,0,0,0,207.236,194a2.329,2.329,0,0,0,.405-1.963,1.836,1.836,0,0,0-1.658-1.389,6.893,6.893,0,0,0-2.694.451l-2.949.835a42.586,42.586,0,0,0-5.593,1.793,10,10,0,0,0-3.783,2.772,21.764,21.764,0,0,0-1.847,2.649A5.683,5.683,0,0,1,188.451,200.139Z" fill="#eb996e"/><path d="M200.333,191.162a8.4,8.4,0,0,1,1.291-.332,6.144,6.144,0,0,0,3.107-1.583,2.774,2.774,0,0,0,.818-2.113,1.958,1.958,0,0,0-1.524-1.842,6.505,6.505,0,0,0-2.934.716c-1.045.373-2.134.717-3.24,1.089a28.783,28.783,0,0,0-3.149,1.215,7.459,7.459,0,0,0-2.2,2.1c-.613.794-1.148,1.594-1.689,2.323a12.225,12.225,0,0,0-1.438,2,9.18,9.18,0,0,0-.832,3.446c-.051.849,0,1.322-.044,1.327a3.912,3.912,0,0,1-.158-1.332,8.625,8.625,0,0,1,.7-3.6,5.127,5.127,0,0,1,.638-1.068c.267-.34.526-.657.783-1.031.519-.729,1.041-1.541,1.657-2.361a7.769,7.769,0,0,1,2.356-2.262,27.519,27.519,0,0,1,3.214-1.254l3.236-1.076a6.7,6.7,0,0,1,3.187-.709,2.131,2.131,0,0,1,1.365.867,2.729,2.729,0,0,1,.507,1.413,3.136,3.136,0,0,1-.984,2.4,6.028,6.028,0,0,1-3.331,1.526A5.4,5.4,0,0,1,200.333,191.162Z" fill="#eb996e"/><path d="M264.511,248.943a2.448,2.448,0,0,1-.236-.357c-.157-.263-.371-.62-.646-1.078l-2.446-4.173-8.954-15.462.233.073L224.306,241.2l.126-.3c3.2,9.2,7.082,19.166,11.736,29.334,4.987,10.944,10.321,21.094,15.425,30.18,2.561,4.536,5.007,8.849,7.4,12.809,2.405,3.937,5.034,7.425,8.166,9.791a17.146,17.146,0,0,0,4.89,2.607,17.868,17.868,0,0,0,4.879.866,18.18,18.18,0,0,0,7.785-1.417,12.49,12.49,0,0,0,4.157-2.8c.806-.825,1.137-1.347,1.17-1.321,0,0-.079.13-.256.37a7.673,7.673,0,0,1-.839,1.024,12.233,12.233,0,0,1-4.15,2.915,18.324,18.324,0,0,1-12.849.681,17.422,17.422,0,0,1-5.008-2.628c-3.2-2.391-5.881-5.913-8.312-9.858-2.419-3.966-4.875-8.265-7.451-12.8-5.132-9.08-10.486-19.238-15.481-30.2-4.661-10.184-8.538-20.176-11.721-29.392l-.071-.207.2-.092,28.209-13.143.151-.07.082.144c3.722,6.564,6.726,11.863,8.812,15.543,1.018,1.818,1.812,3.235,2.364,4.222l.6,1.1A2.79,2.79,0,0,1,264.511,248.943Z" fill="#263238"/><path d="M208.289,182.2a2.8,2.8,0,0,1-1.577-.078,6.3,6.3,0,0,1-4.778-5.489,2.805,2.805,0,0,1,.14-1.572c.083.007.045.6.224,1.519a6.725,6.725,0,0,0,4.517,5.189C207.7,182.076,208.294,182.121,208.289,182.2Z" fill="#e0e0e0"/><path d="M225.339,176.84a3.709,3.709,0,0,1,.616.8c.373.529.87,1.323,1.446,2.326a46.577,46.577,0,0,1,5.689,17.066c.141,1.148.22,2.082.239,2.728a3.708,3.708,0,0,1-.015,1.007c-.084.006-.216-1.414-.589-3.682a55.8,55.8,0,0,0-5.648-16.942C226.015,178.1,225.268,176.885,225.339,176.84Z" fill="#e0e0e0"/><path d="M210.276,185.521a3.7,3.7,0,0,1-1.644-.009,10.689,10.689,0,0,1-6.756-3.914,3.7,3.7,0,0,1-.826-1.422,14.265,14.265,0,0,0,9.226,5.345Z" fill="#e0e0e0"/><path d="M238.091,429.391l34.291,15.545s9.483,3.5,11.96,2.93c2.786-.643,7.329-2.355,5.919-10.816S272.588,418.3,272.588,418.3Z" fill="#e8505b"/><path d="M233.583,402.984,184.414,419c-2.935.986-6.421,4.089-5.378,8.01l19.2,55.3s5.919,1.894,4.82-34.017l41.658-13.728Z" fill="#e8505b"/><path d="M202.993,465.337c-.065.192-2.3-1.128-5.3-1.066-3,.114-5.214,1.428-5.285,1.236a4.1,4.1,0,0,1,1.407-.841,10.291,10.291,0,0,1,3.865-.916,9.514,9.514,0,0,1,3.9.761A3.966,3.966,0,0,1,202.993,465.337Z" fill="#fff"/><path d="M188.017,418.323a1.67,1.67,0,0,1,.89.325,4.379,4.379,0,0,1,1.672,1.972,10.469,10.469,0,0,1,.742,3.749,18.639,18.639,0,0,1-.277,4.655,11.831,11.831,0,0,1-1.739,4.347,9.421,9.421,0,0,1-2.72,2.691,7.192,7.192,0,0,1-2.371,1.006,2.37,2.37,0,0,1-.939.089,10.868,10.868,0,0,0,3.1-1.4,9.593,9.593,0,0,0,2.525-2.651,11.883,11.883,0,0,0,1.628-4.183,19.625,19.625,0,0,0,.309-4.531,10.849,10.849,0,0,0-.6-3.626,4.518,4.518,0,0,0-1.448-1.95C188.324,418.466,188,418.365,188.017,418.323Z" fill="#fff"/><path d="M217.576,443.868a6.214,6.214,0,0,1-.683-1.11c-.41-.729-.983-1.8-1.675-3.122-1.386-2.652-3.237-6.349-5.181-10.48s-3.611-7.916-4.771-10.674c-.58-1.379-1.036-2.5-1.337-3.281a6.252,6.252,0,0,1-.419-1.234,6.283,6.283,0,0,1,.605,1.153c.4.854.894,1.931,1.488,3.214,1.3,2.81,3.013,6.51,4.906,10.6l5.038,10.536c.609,1.276,1.121,2.346,1.526,3.195A6.331,6.331,0,0,1,217.576,443.868Z" fill="#fff"/><path d="M346.72,362.539c-7.071-6.011-8.485-7.071-22.273-8.132s-36.467,1.913-36.467,1.913-43.081,13.29-63.586,10.815-39.286-13.953-39.286-13.953-48.747-1.25-55.465.518-19.445,6.364-21.919,14.142-4.243,16.97,2.828,25.809,42.688,25.1,42.688,25.1l33.51-.522,22.309-7.013,14.646,31.106s103.57-32.767,108.166-33.12,25.1-12.728,25.1-19.092S353.791,368.549,346.72,362.539Z" fill="#263238"/><path d="M231.26,400.2a.9.9,0,0,1-.25-.058l-.718-.219-2.746-.892c-2.383-.777-5.812-1.962-10.031-3.478-8.435-3.033-19.994-7.51-32.483-13.1s-23.524-11.249-31.4-15.526c-3.939-2.139-7.1-3.909-9.271-5.17l-2.493-1.456-.641-.39a.129.129,0,1,1,.026-.046l.667.345,2.54,1.37c2.2,1.206,5.387,2.926,9.346,5.023,7.918,4.191,18.967,9.779,31.442,15.375s24,10.11,32.4,13.229c4.2,1.56,7.608,2.8,9.97,3.633l2.713.983.7.269A.964.964,0,0,1,231.26,400.2Z" fill="#455a64"/><path d="M309.211,365.739a1.617,1.617,0,0,1-.054.35c-.055.258-.126.594-.217,1.019-.21.931-.509,2.25-.893,3.947l-.013.055-.054.021c-8.537,3.388-27.665,10.831-49.889,19.4s-41.4,15.9-50,19.119l.053-.157q1.323,2.25,2.05,3.489c.215.378.385.677.516.906a1.664,1.664,0,0,1,.158.317,1.679,1.679,0,0,1-.207-.287c-.143-.223-.328-.512-.563-.877q-.756-1.216-2.139-3.436l-.068-.109.122-.049c8.537-3.387,27.663-10.829,49.894-19.4s41.4-15.9,50-19.116l-.066.076c.428-1.687.76-3,1-3.923l.27-1.006A1.719,1.719,0,0,1,309.211,365.739Z" fill="#455a64"/><path d="M375.368,399.583,367.8,355.189l-20.655-38.96-25.709-24.095-7.686-32.093-3.976-38.3-2.715-14.785A18.792,18.792,0,0,0,294.133,192.4l-28.046-8.689s.567,6.941-1.773,22.112-1.5,39.91-1.5,39.91,18.841,37.468,18.81,56.441c-.042,25.8,5.359,37.475,11.516,43.692,4.744,4.79,9.936,6.345,13.434,8.623,8.036,5.235,45.12-5.086,55.236,16.918a90.2,90.2,0,0,1,8.023,42.473l9.09-.166Z" fill="#e8505b"/><path d="M191.6,166.712s-3.187,8.573-2.9,15.907c.133,3.463-1.892,6.345-3.852,8.926-2.368,3.12-6.318,7.425-10.406,14.467-1.351,2.328-1.369,5.53-2.584,8.691-5.015,13.046,10.737,37.687,10.237,39.211s-30.087,52.031-24.4,73.579-2.835,27.01-2.835,27.01-17.341,1.974-29.726,1-43.8,2.792-46.82,25.1,13.11,38.01,13.11,38.01H88.3s-18.8-18.445-16.322-33,10.209-29.758,10.209-29.758L109.73,344.5l17.718-2.006-2-29.085,4.68-26.745L151.853,233l10.03-22.264,3.962-10.6,16.5-12.992,5.2-15.63Z" fill="#e8505b"/><path d="M303.159,304.3a4.27,4.27,0,0,1-.149-.76c-.083-.551-.192-1.28-.329-2.193-.278-1.9-.665-4.664-1.223-8.057s-1.307-7.422-2.485-11.807a66.2,66.2,0,0,0-5.271-13.741,44.274,44.274,0,0,0-8.956-11.6,35.352,35.352,0,0,0-10.013-6.542,28.086,28.086,0,0,0-7.8-2.1c-1.9-.208-2.974-.2-2.972-.258a4.194,4.194,0,0,1,.773-.026,18.057,18.057,0,0,1,2.22.083,26.764,26.764,0,0,1,7.925,1.96,35.012,35.012,0,0,1,10.194,6.527,44,44,0,0,1,9.092,11.71,64.966,64.966,0,0,1,5.276,13.863,112.792,112.792,0,0,1,2.384,11.872c.514,3.408.845,6.175,1.061,8.089q.144,1.377.232,2.206A4.27,4.27,0,0,1,303.159,304.3Z" fill="#263238"/><path d="M307.15,265.783c-.043.017-.334-.668-.923-1.871a34.9,34.9,0,0,0-2.91-4.854,33.291,33.291,0,0,0-32.61-13.74,34.862,34.862,0,0,0-5.506,1.308c-1.272.418-1.966.688-1.984.646a2.073,2.073,0,0,1,.483-.246c.327-.136.8-.372,1.434-.591a30.516,30.516,0,0,1,5.513-1.481,32.844,32.844,0,0,1,32.972,13.893,30.506,30.506,0,0,1,2.791,4.979c.288.61.448,1.111.579,1.44A2.091,2.091,0,0,1,307.15,265.783Z" fill="#263238"/><path d="M326.815,299.112a1.863,1.863,0,0,1,.014.5c-.01.325-.025.805-.064,1.422-.072,1.234-.209,3.018-.474,5.215a50,50,0,0,1-4.664,16.6,30.869,30.869,0,0,1-5.614,7.712,24.993,24.993,0,0,1-6.288,4.6,19.609,19.609,0,0,1-4.946,1.761,12.406,12.406,0,0,1-1.409.225,1.748,1.748,0,0,1-.5.032,26.126,26.126,0,0,0,6.682-2.344,25.562,25.562,0,0,0,6.119-4.611,31.274,31.274,0,0,0,5.49-7.609,52.66,52.66,0,0,0,4.762-16.415c.311-2.181.5-3.956.637-5.183.064-.564.117-1.03.161-1.413A1.777,1.777,0,0,1,326.815,299.112Z" fill="#263238"/><path d="M371.65,370.6c-.057.008-.175-.94-.576-2.6a25.916,25.916,0,0,0-2.717-6.69,32.368,32.368,0,0,0-6.827-8.218,40.615,40.615,0,0,0-11.149-6.856,60.765,60.765,0,0,0-12.682-3.486c-4-.675-7.648-1-10.712-1.224s-5.551-.337-7.269-.43l-1.978-.117a3.5,3.5,0,0,1-.688-.076,3.385,3.385,0,0,1,.692-.029l1.981.02c1.721.03,4.211.094,7.286.265a102.917,102.917,0,0,1,10.766,1.117,59.522,59.522,0,0,1,12.8,3.478,40.314,40.314,0,0,1,11.269,6.978,31.937,31.937,0,0,1,6.831,8.4,24.493,24.493,0,0,1,2.593,6.824,16.628,16.628,0,0,1,.32,1.961A3.418,3.418,0,0,1,371.65,370.6Z" fill="#263238"/><path d="M264.4,247.911a10.816,10.816,0,0,1,.439-1.657c.343-1.139.8-2.646,1.344-4.469,1.132-3.773,2.643-9,4.151-14.817S273.054,215.844,273.9,212c.406-1.86.741-3.4,1-4.559a10.66,10.66,0,0,1,.421-1.662,10.916,10.916,0,0,1-.222,1.7c-.174,1.089-.457,2.659-.834,4.595-.751,3.872-1.914,9.2-3.423,15.027s-3.081,11.047-4.3,14.8c-.611,1.875-1.126,3.386-1.5,4.422A10.769,10.769,0,0,1,264.4,247.911Z" fill="#263238"/><path d="M146.818,335.357a.808.808,0,0,1-.079-.216l-.183-.647c-.143-.573-.405-1.407-.627-2.508a63.923,63.923,0,0,1-1.369-9.412,67.856,67.856,0,0,1,.435-14.1,66.939,66.939,0,0,1,13-31.689,67.9,67.9,0,0,1,9.594-10.343,63.936,63.936,0,0,1,7.584-5.738c.931-.628,1.7-1.038,2.208-1.346l.584-.332a.817.817,0,0,1,.208-.1c0,.008-.057.057-.181.144l-.557.376c-.485.336-1.239.772-2.15,1.425a70.687,70.687,0,0,0-7.452,5.844,69.043,69.043,0,0,0-22.906,55.832,70.662,70.662,0,0,0,1.2,9.394c.19,1.1.42,1.945.53,2.525l.132.659A.76.76,0,0,1,146.818,335.357Z" fill="#263238"/><path d="M178.612,256.725a5.337,5.337,0,0,1-.843.2c-.553.125-1.379.252-2.425.5a77.543,77.543,0,0,0-8.762,2.428,66.443,66.443,0,0,0-12.244,5.569,56.658,56.658,0,0,0-12.851,10.219,49.1,49.1,0,0,0-8.91,13.759,44.753,44.753,0,0,0-3.427,12.957,40.057,40.057,0,0,0,.033,9.061c.085,1.071.291,1.884.357,2.446a5.423,5.423,0,0,1,.106.86,5.423,5.423,0,0,1-.209-.839c-.1-.558-.338-1.368-.455-2.441a37.765,37.765,0,0,1-.2-9.123,44.194,44.194,0,0,1,3.351-13.109,48.853,48.853,0,0,1,8.97-13.924A56.2,56.2,0,0,1,154.1,265.008a64.737,64.737,0,0,1,12.369-5.5,68.737,68.737,0,0,1,8.839-2.278c1.055-.218,1.888-.313,2.448-.4A5.4,5.4,0,0,1,178.612,256.725Z" fill="#263238"/><path d="M151.208,263.794a5.51,5.51,0,0,1-1.68-1.346,12.771,12.771,0,0,1-3.437-9.59,5.485,5.485,0,0,1,.443-2.106c.087.017-.064.821-.075,2.121a14.384,14.384,0,0,0,3.344,9.33C150.637,263.2,151.264,263.725,151.208,263.794Z" fill="#263238"/><path d="M88.3,350.767a2.621,2.621,0,0,1,.4-.457l1.216-1.241.889-.889c.335-.314.72-.632,1.123-.986.818-.693,1.711-1.532,2.814-2.315l1.7-1.272c.594-.438,1.254-.833,1.914-1.274,1.309-.906,2.808-1.709,4.364-2.588a59.653,59.653,0,0,1,22.132-6.707c1.783-.133,3.475-.3,5.067-.271.8,0,1.563-.037,2.3,0l2.118.117c1.352.038,2.561.241,3.626.363.532.07,1.028.121,1.481.2l1.233.246,1.7.357a2.579,2.579,0,0,1,.584.159,2.79,2.79,0,0,1-.605-.056l-1.714-.261-1.234-.2c-.453-.061-.949-.1-1.48-.153-1.063-.094-2.267-.27-3.612-.285l-2.1-.082c-.732-.024-1.494.024-2.283.033-1.579-.008-3.258.171-5.025.316a61.34,61.34,0,0,0-21.958,6.655c-1.55.86-3.046,1.642-4.355,2.526-.661.431-1.322.814-1.917,1.24l-1.7,1.237c-1.111.759-2.015,1.573-2.847,2.242-.409.341-.8.647-1.145.949l-.916.852-1.281,1.168A2.708,2.708,0,0,1,88.3,350.767Z" fill="#263238"/><path d="M165.3,227.781a2.735,2.735,0,0,1-.135-.607,17.546,17.546,0,0,1-.236-1.769,28.976,28.976,0,0,1,.189-6.557c.692-5.513,3.307-12.892,7.775-20.07,2.163-3.624,4.305-7.018,5.941-10.269a94.18,94.18,0,0,0,3.853-8.877c.988-2.577,1.783-4.668,2.371-6.1.293-.715.526-1.268.693-1.639a2.747,2.747,0,0,1,.278-.557,2.883,2.883,0,0,1-.18.595c-.157.435-.356.99-.6,1.674-.546,1.516-1.3,3.6-2.216,6.155a86.635,86.635,0,0,1-3.768,8.962c-1.627,3.291-3.766,6.706-5.923,10.32-4.447,7.148-7.076,14.409-7.858,19.857a31.723,31.723,0,0,0-.351,6.49C165.206,226.929,165.358,227.773,165.3,227.781Z" fill="#263238"/><path d="M255.586,160.144a1.348,1.348,0,0,1,.429.058,8.772,8.772,0,0,1,1.2.3,15.587,15.587,0,0,1,4.109,1.981c3.265,2.1,6.9,6.2,9.612,11.427a46.006,46.006,0,0,1,4.447,14.306c.287,1.9.445,3.446.527,4.516a9.516,9.516,0,0,1,.064,1.666,10.873,10.873,0,0,1-.266-1.644c-.143-1.061-.356-2.595-.689-4.477a48.99,48.99,0,0,0-4.545-14.126c-2.678-5.162-6.208-9.231-9.357-11.364A20.594,20.594,0,0,0,255.586,160.144Z" fill="#263238"/><path d="M263.157,217.375a2.575,2.575,0,0,1-.024-.591c0-.388.016-.958.049-1.692.067-1.468.214-3.59.463-6.2s.6-5.723,1.043-9.166c.224-1.722.471-3.528.747-5.4a26.943,26.943,0,0,0,.338-5.77,23.5,23.5,0,0,0-3.212-10.588,23.759,23.759,0,0,0-5.986-6.823,15.526,15.526,0,0,0-5.495-2.685c-1.415-.356-2.232-.4-2.226-.451a2.512,2.512,0,0,1,.592.01,10.836,10.836,0,0,1,1.68.243,14.988,14.988,0,0,1,5.667,2.586,23.86,23.86,0,0,1,9.5,17.678,27.038,27.038,0,0,1-.353,5.876c-.269,1.865-.528,3.666-.776,5.384-.473,3.435-.856,6.535-1.153,9.141s-.5,4.718-.627,6.179c-.059.685-.107,1.242-.146,1.684A2.493,2.493,0,0,1,263.157,217.375Z" fill="#263238"/><path d="M183.772,255.226c-.008,0-.057-.062-.144-.2l-.378-.6-1.4-2.353c-1.2-2.056-2.932-5.032-4.821-8.851a63.025,63.025,0,0,1-5.162-14.031,36.805,36.805,0,0,1,.268-18.219,28.669,28.669,0,0,1,1.779-4.506,33.853,33.853,0,0,1,2.42-4.026c1.753-2.53,3.661-4.791,5.389-7a46.584,46.584,0,0,0,4.46-6.562,21.49,21.49,0,0,0,2.353-6.443,47.452,47.452,0,0,0,.35-5.7,13.83,13.83,0,0,1,1.041-4.227,7.282,7.282,0,0,1,1.428-2.349,2.035,2.035,0,0,1,.79-.544,4.663,4.663,0,0,0-.713.616,7.645,7.645,0,0,0-1.317,2.353,14.02,14.02,0,0,0-.939,4.171,45.546,45.546,0,0,1-.277,5.743,21.64,21.64,0,0,1-2.336,6.585,46.17,46.17,0,0,1-4.462,6.652c-1.724,2.227-3.619,4.489-5.347,7a28.942,28.942,0,0,0-4.12,8.392,36.638,36.638,0,0,0-.3,17.967,64.279,64.279,0,0,0,5.024,13.973c1.84,3.825,3.526,6.826,4.666,8.912l1.316,2.4.333.631A.872.872,0,0,1,183.772,255.226Z" fill="#263238"/><g opacity="0.3"><path d="M175.312,260.089a52.79,52.79,0,0,0-24.365,18.533,63.855,63.855,0,0,0-11.4,28.565c-.252,1.731-.1,4.026,1.579,4.519a2.614,2.614,0,0,0,2.783-1.33,8.278,8.278,0,0,0,.884-3.173,66.926,66.926,0,0,1,30.927-46.714"/></g><path d="M266.91,168.508a9.205,9.205,0,0,0-7.152,4.382c-.056-.022.061-.526.489-1.237a7.058,7.058,0,0,1,5.339-3.271A2.417,2.417,0,0,1,266.91,168.508Z" fill="#fafafa"/><path d="M272.711,214.717a29.429,29.429,0,0,0-4.238-2.571,29.461,29.461,0,0,0-4.777-1.324,10.648,10.648,0,0,1,9.015,3.9Z" fill="#fafafa"/><path d="M307.545,209.375c-.044.016-.2-.448-.65-1.192a9.35,9.35,0,0,0-2.484-2.659,13.593,13.593,0,0,0-4.935-2.186,49.266,49.266,0,0,0-6.651-.942c-4.771-.486-9.087-.956-12.208-1.322l-3.694-.46a6.8,6.8,0,0,1-1.347-.24,7.011,7.011,0,0,1,1.368.038l3.71.3c3.131.272,7.453.683,12.224,1.17a45.482,45.482,0,0,1,6.715,1,13.431,13.431,0,0,1,5.04,2.358,8.8,8.8,0,0,1,2.439,2.853,5.607,5.607,0,0,1,.4.942C307.536,209.25,307.562,209.369,307.545,209.375Z" fill="#fafafa"/><path d="M313.158,258.631c-.047.016-.292-.708-.832-1.967a26.924,26.924,0,0,0-2.874-5.024,30.164,30.164,0,0,0-5.954-6.147,34.222,34.222,0,0,0-9.154-5.079,45.972,45.972,0,0,0-18.856-2.328c-2.449.177-4.421.446-5.779.66l-1.565.246a2.224,2.224,0,0,1-.553.055,2.294,2.294,0,0,1,.532-.158c.354-.081.873-.217,1.551-.343a53.818,53.818,0,0,1,5.784-.827,44.529,44.529,0,0,1,19.065,2.206,33.863,33.863,0,0,1,9.272,5.191,29.488,29.488,0,0,1,5.958,6.312,24.473,24.473,0,0,1,2.76,5.159,15.553,15.553,0,0,1,.511,1.506A2.2,2.2,0,0,1,313.158,258.631Z" fill="#fafafa"/><path d="M307.438,336.436a1.965,1.965,0,0,1-.053-.52c-.013-.4-.029-.89-.049-1.487,0-.645-.051-1.434-.1-2.349s-.1-1.958-.2-3.108c-.337-4.6-1.155-10.932-2.31-17.884s-2.372-13.223-3.205-17.77c-.417-2.274-.745-4.116-.954-5.392-.092-.59-.167-1.076-.228-1.471a1.94,1.94,0,0,1-.045-.52,1.969,1.969,0,0,1,.148.5l.324,1.454c.28,1.341.657,3.153,1.117,5.359.925,4.528,2.189,10.791,3.356,17.755a172.438,172.438,0,0,1,2.165,17.944c.075,1.155.117,2.2.126,3.122s.039,1.711.012,2.359c-.02.6-.036,1.089-.049,1.49A1.982,1.982,0,0,1,307.438,336.436Z" fill="#fafafa"/><g opacity="0.3"><path d="M302.993,299.838c.1,2.689.874,5.27,1.287,7.929s1.976,5.573,4.648,5.894c2.244.27,4.335-1.535,5.1-3.662a12.737,12.737,0,0,0,.058-6.7c-1.863-9.611-6.407-18.468-11.11-27.054-4.133-7.547-8.537-15.136-14.9-20.931s-15.065-9.62-23.552-8.2c0,0,12.661.39,20.658,8.247S302.827,295.38,302.993,299.838Z"/></g><g opacity="0.3"><path d="M265.6,245.406c6.838-20.221,13-44.048,8.576-62.109,7.723,8.835,9.392,22.651,6.487,33.592s-9.993,20.724-16.139,30.23"/></g><path d="M340.387,358.439c-.094,0-.144-1.142-.533-2.932a21.562,21.562,0,0,0-7.286-11.979c-1.412-1.169-2.407-1.741-2.36-1.822a2.443,2.443,0,0,1,.739.332,13.667,13.667,0,0,1,1.849,1.2,19.59,19.59,0,0,1,7.42,12.2,13.824,13.824,0,0,1,.216,2.195A2.463,2.463,0,0,1,340.387,358.439Z" fill="#fafafa"/><path d="M375.53,381.157a4.2,4.2,0,0,1-.176,1.84,10.3,10.3,0,0,1-5.551,6.728,4.165,4.165,0,0,1-1.773.522,14.71,14.71,0,0,1,1.605-.85,11.68,11.68,0,0,0,5.365-6.5A14.853,14.853,0,0,1,375.53,381.157Z" fill="#fafafa"/><path d="M337.306,298.612a1.978,1.978,0,0,1,.211.48c.113.324.313.792.49,1.421a29.971,29.971,0,0,1,1.124,5.414,32.359,32.359,0,0,1-14.966,31.332,29.948,29.948,0,0,1-4.919,2.527c-.6.258-1.09.4-1.412.512a1.993,1.993,0,0,1-.507.138c-.015-.043.657-.305,1.84-.836a34.531,34.531,0,0,0,4.8-2.651,32.841,32.841,0,0,0,14.8-30.983,34.523,34.523,0,0,0-.953-5.4C337.481,299.314,337.263,298.626,337.306,298.612Z" fill="#fafafa"/><g opacity="0.3"><path d="M345.748,340.583a13.473,13.473,0,0,0-5.375-2.589,39.527,39.527,0,0,1-6.28-1.926,7.773,7.773,0,0,1-4.4-4.619c-.507-1.812-.052-3.733.252-5.59a34.62,34.62,0,0,0-1.808-17.844,1.614,1.614,0,0,0-.623-.9,1.13,1.13,0,0,0-1.383.452,3.4,3.4,0,0,0-.453,1.511c-.929,6.634-3.01,13.258-7.129,18.54s-9.748,9.673-16.445,9.561l-.367,1.091a22.39,22.39,0,0,0,11.063,2.925c3.855.149,7.711-.242,11.569-.248a58.12,58.12,0,0,1,23.556,4.969A6.023,6.023,0,0,0,345.748,340.583Z"/></g><path d="M131.377,356.527c-.1.013-.258-1.52-.932-3.889a29.143,29.143,0,0,0-1.5-4.048,28.943,28.943,0,0,0-6.031-8.609,29.1,29.1,0,0,0-3.292-2.791c-2-1.443-3.383-2.115-3.336-2.2a4.249,4.249,0,0,1,1,.418,10.57,10.57,0,0,1,1.12.6c.425.254.924.521,1.429.889a25.953,25.953,0,0,1,3.416,2.747,27.275,27.275,0,0,1,6.134,8.757,25.953,25.953,0,0,1,1.415,4.149c.173.6.254,1.161.348,1.647a10.627,10.627,0,0,1,.177,1.257A4.324,4.324,0,0,1,131.377,356.527Z" fill="#fafafa"/><path d="M157.437,316.357a5.658,5.658,0,0,1-2.094.334,14.171,14.171,0,0,1-9.523-3.311,5.675,5.675,0,0,1-1.436-1.561,17.635,17.635,0,0,0,13.053,4.538Z" fill="#fafafa"/><path d="M148.722,292.308c-.085.049-.545-.8-1.59-1.9a12.457,12.457,0,0,0-2.027-1.718,12.98,12.98,0,0,0-6.064-2.178,12.55,12.55,0,0,0-2.657.035c-1.509.189-2.4.55-2.437.458-.014-.034.2-.143.6-.314a8.159,8.159,0,0,1,1.78-.508,11.18,11.18,0,0,1,2.752-.149,12.311,12.311,0,0,1,6.3,2.262,11.163,11.163,0,0,1,2.027,1.866,8.064,8.064,0,0,1,1.051,1.524C148.659,292.07,148.753,292.291,148.722,292.308Z" fill="#fafafa"/><path d="M128.879,307.319a21.227,21.227,0,0,0-5.4.12,21.206,21.206,0,0,0-5.027,1.971c-.039-.047.4-.5,1.256-1.04a11.223,11.223,0,0,1,7.608-1.527A3.729,3.729,0,0,1,128.879,307.319Z" fill="#fafafa"/><path d="M148.9,267.236a4.456,4.456,0,0,1-1.816,0,12.523,12.523,0,0,1-7.65-4.018,4.437,4.437,0,0,1-1.027-1.5,21.581,21.581,0,0,0,4.737,3.726A21.594,21.594,0,0,0,148.9,267.236Z" fill="#fafafa"/><path d="M168.89,263.813c-.137.074-.785-1.051-2.022-1.985-1.223-.954-2.477-1.29-2.441-1.44a5.009,5.009,0,0,1,4.463,3.425Z" fill="#fafafa"/><path d="M180.128,256.578a1.672,1.672,0,0,1-.473-.015c-.306-.035-.764-.056-1.342-.162a26,26,0,0,1-4.819-1.245,28.236,28.236,0,0,1-18.77-24.867,26.06,26.06,0,0,1,.124-4.975c.056-.584.162-1.031.212-1.335a1.615,1.615,0,0,1,.116-.458,16.349,16.349,0,0,1-.127,1.813,30.315,30.315,0,0,0,.042,4.927,28.663,28.663,0,0,0,18.531,24.55,30.246,30.246,0,0,0,4.727,1.391A16.19,16.19,0,0,1,180.128,256.578Z" fill="#fafafa"/><path d="M171.331,211.739c-.036.051-.374-.095-.8-.5A4.606,4.606,0,0,1,169.312,207c.143-.57.351-.873.409-.849a6.658,6.658,0,0,0,1.61,5.587Z" fill="#fafafa"/><path d="M187.068,185.876c.019.051-.41.284-1.182.312a4.713,4.713,0,0,1-4.492-3.368c-.19-.749-.086-1.227-.031-1.222.087,0,.121.454.381,1.107a5.112,5.112,0,0,0,4.154,3.115C186.6,185.887,187.046,185.791,187.068,185.876Z" fill="#fafafa"/><path d="M85.433,367.21a3.229,3.229,0,0,1-1.466-.669,8.315,8.315,0,0,1-3.587-6.672,3.227,3.227,0,0,1,.25-1.591,10.528,10.528,0,0,1,.117,1.572,9.452,9.452,0,0,0,3.439,6.395C84.931,366.85,85.47,367.132,85.433,367.21Z" fill="#fafafa"/><path d="M77.526,393.71a6.174,6.174,0,0,1-3.52-.646,6.174,6.174,0,0,1-2.895-2.1c.1-.119,1.332.878,3.1,1.625C75.971,393.351,77.542,393.555,77.526,393.71Z" fill="#fafafa"/><path d="M232.076,96.19a43,43,0,0,0-1.792,7.181,43.1,43.1,0,0,0,.006,7.4,6.907,6.907,0,0,1-.5-2.145,21.169,21.169,0,0,1,1.283-10.478A6.827,6.827,0,0,1,232.076,96.19Z" fill="#263238"/><path d="M240.029,101.971a33.763,33.763,0,0,0-5.86,3.885,33.676,33.676,0,0,0-4.531,5.377,6.1,6.1,0,0,1,.913-1.89,17.949,17.949,0,0,1,7.5-6.681A6.088,6.088,0,0,1,240.029,101.971Z" fill="#263238"/><path d="M193.411,99.718a3.808,3.808,0,0,0-2.2-.642,4.51,4.51,0,0,0-2.5.94,3.876,3.876,0,0,0-1.6,3.034,5.6,5.6,0,0,0,1.583,3.906,6.411,6.411,0,0,0,1.939,1.405,7.692,7.692,0,0,0,2.474.634,11.415,11.415,0,0,0,5.419-.977,30.459,30.459,0,0,0,5.21-3.054,41.813,41.813,0,0,1,5.211-3.235,13.493,13.493,0,0,1,5.549-1.476,18.469,18.469,0,0,1,5.156.6,21.921,21.921,0,0,1,4.267,1.479,8.389,8.389,0,0,1,2.953,2.293,5.831,5.831,0,0,1,1.154,2.577,4.239,4.239,0,0,1-.054,1.781,1.987,1.987,0,0,1-.223.579,5.171,5.171,0,0,0,.078-2.322,5.761,5.761,0,0,0-1.183-2.434,8.227,8.227,0,0,0-2.886-2.143,22.2,22.2,0,0,0-4.207-1.39,18.34,18.34,0,0,0-5.034-.541,13.11,13.11,0,0,0-5.345,1.455,42.524,42.524,0,0,0-5.142,3.207,30.4,30.4,0,0,1-5.306,3.094,11.817,11.817,0,0,1-5.661.984,8.084,8.084,0,0,1-2.622-.695,6.822,6.822,0,0,1-2.064-1.528,5.957,5.957,0,0,1-1.634-4.216,4.158,4.158,0,0,1,.568-1.937,4.527,4.527,0,0,1,1.222-1.313,4.649,4.649,0,0,1,2.672-.91,3.273,3.273,0,0,1,1.724.457,2.078,2.078,0,0,1,.373.276C193.38,99.674,193.417,99.711,193.411,99.718Z" fill="#263238"/><path d="M187.992,143.433c.01-.055.622.092,1.744.142a14.387,14.387,0,0,0,4.675-.622,21.8,21.8,0,0,0,6.253-3.144,56.611,56.611,0,0,0,6.505-5.7,59.08,59.08,0,0,1,6.551-5.763,22.064,22.064,0,0,1,6.362-3.235,13.812,13.812,0,0,1,4.774-.613,9.263,9.263,0,0,1,1.3.168,1.478,1.478,0,0,1,.442.115,15.638,15.638,0,0,0-6.4.681A22.581,22.581,0,0,0,214,128.739a62.96,62.96,0,0,0-6.469,5.748,53.658,53.658,0,0,1-6.592,5.715,21.347,21.347,0,0,1-6.427,3.1,13.525,13.525,0,0,1-4.79.471,9.171,9.171,0,0,1-1.293-.214A1.484,1.484,0,0,1,187.992,143.433Z" fill="#263238"/><path d="M248.491,116.2a24.761,24.761,0,0,0-1.537-2.58,10.4,10.4,0,0,0-12.815-3.3,24.606,24.606,0,0,0-2.59,1.518c-.021-.023.166-.25.562-.6a9.059,9.059,0,0,1,1.87-1.248,10.287,10.287,0,0,1,13.273,3.414,9.006,9.006,0,0,1,1.036,1.995A2.173,2.173,0,0,1,248.491,116.2Z" fill="#263238"/><path d="M310.106,212.34a6.857,6.857,0,0,1-.112-1.358c-.029-.975-.067-2.215-.111-3.7-.029-1.594-.062-3.444-.1-5.479a17.68,17.68,0,0,0-.228-3.186,4.066,4.066,0,0,0-1.644-2.741,8.82,8.82,0,0,1-1.419-1.131,2.41,2.41,0,0,1-.6-1.754c.013-.594.124-1.136.106-1.637a1.673,1.673,0,0,0-.533-1.244,20.979,20.979,0,0,0-2.532-1.368,5.023,5.023,0,0,1-1.624-2.065,6.977,6.977,0,0,0-1.082-1.744,3.025,3.025,0,0,0-1.275-.808,1.9,1.9,0,0,0-1.273.107,1.318,1.318,0,0,1,1.322-.3,3.093,3.093,0,0,1,1.43.8,6.943,6.943,0,0,1,1.2,1.777,4.743,4.743,0,0,0,1.531,1.875,18.081,18.081,0,0,1,2.625,1.379,2.167,2.167,0,0,1,.7,1.578c.022.582-.087,1.133-.093,1.663a1.889,1.889,0,0,0,.48,1.4,8.808,8.808,0,0,0,1.342,1.057,4.108,4.108,0,0,1,1.252,1.373,5.653,5.653,0,0,1,.584,1.69,17.507,17.507,0,0,1,.207,3.268c0,2.04-.01,3.894-.014,5.493-.022,1.484-.04,2.725-.054,3.7A6.8,6.8,0,0,1,310.106,212.34Z" fill="#263238"/><path d="M313.791,217.05a2.3,2.3,0,0,1-.453-1,6.413,6.413,0,0,1,.038-2.983c.24-1.246.846-2.629,1.274-4.185.412-1.525.654-3.445-.474-4.916-.268-.375-.576-.739-.831-1.157a3.162,3.162,0,0,1-.473-1.387,13.808,13.808,0,0,1,.213-2.615,6.177,6.177,0,0,0-1.06-4,6.7,6.7,0,0,0-2.061-1.979c-.589-.35-.956-.476-.94-.521a2.722,2.722,0,0,1,1.037.343,6.316,6.316,0,0,1,2.266,1.946,6.41,6.41,0,0,1,1.236,4.251,14.633,14.633,0,0,0-.184,2.521,4.6,4.6,0,0,0,1.22,2.295,4.66,4.66,0,0,1,.9,2.731,8.879,8.879,0,0,1-.388,2.616c-.473,1.608-1.1,2.942-1.379,4.14a6.817,6.817,0,0,0-.2,2.857C313.658,216.682,313.835,217.03,313.791,217.05Z" fill="#263238"/><path d="M134.634,241.232a1.175,1.175,0,0,1-.016-.4,9.971,9.971,0,0,1,.107-1.144,19.635,19.635,0,0,1,1.092-4.079c.629-1.676,1.5-3.594,2.542-5.715a10.968,10.968,0,0,1,2.166-3.055c.94-.887,2.1-1.62,2.5-2.833.4-1.2.212-2.624.75-3.877a18.575,18.575,0,0,1,1.87-3.223l3.45-5.192,2.363-3.475a8.9,8.9,0,0,1,.926-1.236,8.707,8.707,0,0,1-.756,1.347c-.575.921-1.323,2.121-2.225,3.565-.972,1.522-2.105,3.3-3.356,5.253a18.744,18.744,0,0,0-1.8,3.144c-.494,1.13-.3,2.47-.732,3.862-.491,1.436-1.764,2.2-2.642,3.036a10.7,10.7,0,0,0-2.09,2.906c-1.046,2.08-1.962,4-2.623,5.625a22.81,22.81,0,0,0-1.236,3.982C134.728,240.688,134.678,241.235,134.634,241.232Z" fill="#263238"/><path d="M111.958,321.417a1.437,1.437,0,0,0,1.1-.548,2.132,2.132,0,0,0,.432-1.376,3.764,3.764,0,0,0-.764-1.8,13.335,13.335,0,0,1-1.357-2.144,8.2,8.2,0,0,1-.728-2.853,8.474,8.474,0,0,1,.391-3.232,9.205,9.205,0,0,1,1.73-3.019,7.439,7.439,0,0,0,.9-1.407A4,4,0,0,0,114,303.5a15.911,15.911,0,0,0-.411-3.1,8.8,8.8,0,0,1-.1-2.936,8.478,8.478,0,0,1,.771-2.441,8,8,0,0,1,2.309-2.846,5.568,5.568,0,0,1,.838-.541c.2-.1.313-.151.322-.135.024.041-.392.276-1.031.833a8.388,8.388,0,0,0-2.105,2.847,8.011,8.011,0,0,0-.536,5.133,15.715,15.715,0,0,1,.449,3.2,4.477,4.477,0,0,1-.377,1.732,7.9,7.9,0,0,1-.958,1.51,8.837,8.837,0,0,0-1.661,2.863,8.112,8.112,0,0,0-.4,3.041,7.92,7.92,0,0,0,.643,2.707,13.77,13.77,0,0,0,1.271,2.119,3.965,3.965,0,0,1,.747,2,2.3,2.3,0,0,1-.568,1.515,1.345,1.345,0,0,1-.9.473A.621.621,0,0,1,111.958,321.417Z" fill="#263238"/><path d="M346.973,292.451c-.054-.006.063-.547-.06-1.5a6.29,6.29,0,0,0-1.764-3.561,5.783,5.783,0,0,0-2.343-1.429,13.125,13.125,0,0,1-1.506-.6,2.993,2.993,0,0,1-1.32-1.225c-.605-1.17-.317-2.485-.31-3.689a3.82,3.82,0,0,0-.312-1.749,2.721,2.721,0,0,0-1.3-1.208c-2.345-1.077-5.082,0-7.372-1.064a3.437,3.437,0,0,1-1.389-1.131,4.092,4.092,0,0,1-.628-1.551,16.462,16.462,0,0,1-.16-2.887,5.685,5.685,0,0,0-.411-2.24,2.873,2.873,0,0,0-1.113-1.259,2.331,2.331,0,0,0-1.415-.3,1.6,1.6,0,0,1,1.513.127,3,3,0,0,1,1.277,1.309,5.836,5.836,0,0,1,.517,2.353,17.04,17.04,0,0,0,.215,2.812,3.083,3.083,0,0,0,1.793,2.334,8.345,8.345,0,0,0,3.461.457,8.747,8.747,0,0,1,3.936.574,3.23,3.23,0,0,1,1.534,1.445,4.3,4.3,0,0,1,.359,1.99c-.03,1.272-.272,2.507.223,3.455s1.61,1.281,2.554,1.646a6.1,6.1,0,0,1,2.457,1.578,6.272,6.272,0,0,1,1.7,3.8,5.178,5.178,0,0,1-.042,1.139A1.176,1.176,0,0,1,346.973,292.451Z" fill="#263238"/><path d="M261.761,317.716c-8-9.659-13-21.9-21.747-37.778,0,0-16.529,71.814,4.556,73.5,9.781.784,15.511-5.393,12.369-22.684C254.845,319.233,261.761,317.716,261.761,317.716Z" fill="#e8505b"/><path d="M249.37,296.926a2.189,2.189,0,0,1-.041.542c-.058.409-.129.916-.216,1.535-.2,1.406-.467,3.315-.794,5.641-.637,4.767-1.44,11.366-1.984,18.682-.513,7.308-.805,13.991.12,18.7a23.27,23.27,0,0,0,1.642,5.406c.545,1.224.958,1.848.907,1.878a2.1,2.1,0,0,1-.317-.441,12.526,12.526,0,0,1-.773-1.35,21.325,21.325,0,0,1-1.82-5.423c-1.03-4.766-.791-11.492-.279-18.811.546-7.333,1.408-13.936,2.139-18.7.364-2.381.711-4.3.959-5.623.126-.613.229-1.115.313-1.52A2.1,2.1,0,0,1,249.37,296.926Z" fill="#263238"/><path d="M246.5,343.085a12.953,12.953,0,0,1-10.585.939,40.333,40.333,0,0,0,5.347.148A40.189,40.189,0,0,0,246.5,343.085Z" fill="#fafafa"/><path d="M257.258,320.644c-.063.145-2.389-.828-5.41-1.444-3.018-.636-5.538-.668-5.537-.826a19.1,19.1,0,0,1,10.947,2.27Z" fill="#fafafa"/><path d="M248.341,296.75a35.136,35.136,0,0,0-4.705-3.056,35.259,35.259,0,0,0-5.322-1.777,13.191,13.191,0,0,1,10.027,4.833Z" fill="#fafafa"/><g opacity="0.3"><path d="M249.261,297.539s-8.309,51.78,1.976,53.074c0,0,3.1,1.03,4.844-4.84s-.5-12.747-1.022-16.626a12.317,12.317,0,0,1,2.628-9.244c1.965-2.245,4.116-2.551,4.073-2.466C261.586,317.784,249.37,297.747,249.261,297.539Z"/></g><path d="M201.74,164.066c.028.714-1.747,1.362-3.954,1.185s-3.861-1.089-3.721-1.79,1.883-.962,3.925-.806S201.713,163.343,201.74,164.066Z" fill="#eb996e"/><path d="M233.788,159.563c.322.628-2.5,2.694-6.541,3.972-4.039,1.293-7.535,1.238-7.636.539-.112-.723,3.025-1.794,6.846-3.02C230.283,159.847,233.462,158.908,233.788,159.563Z" fill="#eb996e"/><path d="M343.733,122.6s.019-.162.082-.474c.07-.333.167-.791.291-1.38.273-1.235.667-3.015,1.172-5.3l4.41-19.481c3.78-16.468,9-39.207,14.78-64.4l.261-1.137.258,1.138L365.311,33c5.751,25.543,10.956,48.664,14.73,65.426,1.856,8.359,3.359,15.131,4.4,19.84.5,2.326.9,4.141,1.171,5.4.125.6.221,1.068.292,1.407.062.318.081.483.081.483s-.054-.157-.134-.471c-.083-.337-.2-.8-.343-1.4-.3-1.253-.722-3.061-1.269-5.378l-4.569-19.8c-3.813-16.753-9.072-39.862-14.882-65.392-.111-.49-.222-.979-.324-1.431h.518c-5.842,25.176-11.115,47.9-14.935,64.362-1.928,8.2-3.488,14.832-4.573,19.443-.546,2.273-.973,4.045-1.268,5.275-.146.584-.26,1.038-.343,1.368C343.787,122.443,343.733,122.6,343.733,122.6Z" fill="#263238"/><path d="M343.722,141.723V125.556h43.133v16.167a18.821,18.821,0,0,1-18.821,18.821h-5.491A18.82,18.82,0,0,1,343.722,141.723Z" fill="#455a64"/><path d="M343.722,125.556a5.165,5.165,0,0,1,.489.679l1.316,2,4.753,7.417,15.514,24.574.11.175-.453,0L380.5,135.7l4.607-7.45,1.276-2.01a4.861,4.861,0,0,1,.475-.683,4.772,4.772,0,0,1-.384.738q-.444.771-1.19,2.062l-4.463,7.537-14.912,24.789-.223.37-.23-.366-.109-.175-15.382-24.657-4.611-7.507-1.231-2.055A4.857,4.857,0,0,1,343.722,125.556Z" fill="#263238"/><path d="M369.571,31.425a4.71,4.71,0,1,1-4.71-4.71A4.71,4.71,0,0,1,369.571,31.425Z" fill="#263238"/><path d="M367.305,162.3a2.017,2.017,0,1,1-2.017-2.017A2.017,2.017,0,0,1,367.305,162.3Z" fill="#263238"/><path d="M364.4,163.054l.324-.161a4.463,4.463,0,0,0-2.037,3.336,11.715,11.715,0,0,0,.345,4.016c.09.42.311.942.74.916.386-.024.569-.483.634-.864a8.425,8.425,0,0,0,.062-2.42,4.236,4.236,0,0,0,.935,2.854c.127.155.308.315.5.264s.264-.259.312-.443a9.409,9.409,0,0,0,.3-2.071,3.21,3.21,0,0,0,.642,1.684,1.11,1.11,0,0,0,1.606.1,1.526,1.526,0,0,0,.172-1.176,13.9,13.9,0,0,0-2.82-6.624" fill="#263238"/><path d="M346.437,125.556s-19.378-22.338-17.225-23.146,19.378,11.573,19.378,11.573-14.8-33.1-11.842-35.526,18.57,29.336,18.57,29.336-2.422-46.291,0-46.83,11.3,46.292,11.3,46.292,13.188-42.793,16.956-42.793-4.037,41.178-4.037,41.178,15.61-26.375,18.032-22.876-11.035,32.027-11.035,32.027,19.647-16.418,20.455-14.264-21.262,25.029-21.262,25.029Z" fill="#e8505b"/><path d="M343.733,91.914c.134-.06,3.571,7.309,7.677,16.457s7.326,16.616,7.192,16.676-3.571-7.307-7.678-16.458S343.6,91.974,343.733,91.914Z" fill="#263238"/><path d="M359.387,96.031c.147-.01.718,6.485,1.276,14.5s.892,14.533.745,14.543-.717-6.483-1.276-14.506S359.241,96.041,359.387,96.031Z" fill="#263238"/><path d="M380.981,75.3a2.108,2.108,0,0,1-.114.525c-.114.395-.255.881-.426,1.472l-1.62,5.393c-1.367,4.553-3.2,10.858-5.075,17.864s-3.417,13.393-4.5,18.021c-.528,2.258-.961,4.112-1.281,5.483-.147.6-.267,1.089-.365,1.488a2.082,2.082,0,0,1-.162.512,2.029,2.029,0,0,1,.057-.533c.072-.405.16-.9.267-1.509.241-1.309.621-3.2,1.117-5.523.991-4.653,2.483-11.058,4.354-18.076s3.77-13.31,5.229-17.839c.729-2.264,1.34-4.09,1.783-5.345.209-.579.381-1.055.521-1.441A2.011,2.011,0,0,1,380.981,75.3Z" fill="#263238"/><path d="M390.318,99.161c.121.084-3.662,5.724-8.448,12.6s-8.764,12.377-8.884,12.293,3.661-5.723,8.448-12.6S390.2,99.077,390.318,99.161Z" fill="#263238"/><path d="M352.977,125.082a7.347,7.347,0,0,1-1.7-1.21,47.941,47.941,0,0,1-7-7.177,7.36,7.36,0,0,1-1.167-1.725c.123-.1,2.136,2.343,4.859,5.126S353.076,124.962,352.977,125.082Z" fill="#263238"/><path d="M364.746,116.208a20.584,20.584,0,0,1,.687,4.607,20.563,20.563,0,0,1,.158,4.657,20.619,20.619,0,0,1-.688-4.608A20.586,20.586,0,0,1,364.746,116.208Z" fill="#263238"/><path d="M386.855,135.631a10.5,10.5,0,0,1-1.667.345c-1.078.19-2.644.434-4.583.7a150.414,150.414,0,0,1-15.242,1.355,96.935,96.935,0,0,1-15.3-.639c-1.944-.251-3.51-.506-4.582-.736a10.433,10.433,0,0,1-1.656-.394,10.368,10.368,0,0,1,1.691.19c1.079.166,2.649.364,4.59.567a113.166,113.166,0,0,0,15.234.48c5.955-.205,11.329-.757,15.213-1.2l4.6-.535A10.264,10.264,0,0,1,386.855,135.631Z" fill="#fff"/><path d="M386.855,140.443a10.41,10.41,0,0,1-1.667.346c-1.078.19-2.644.434-4.583.7a150.706,150.706,0,0,1-15.242,1.355,97.055,97.055,0,0,1-15.3-.639c-1.944-.251-3.51-.507-4.582-.736a10.346,10.346,0,0,1-1.656-.4,10.514,10.514,0,0,1,1.691.19c1.079.167,2.649.365,4.59.567a112.978,112.978,0,0,0,15.234.481c5.955-.206,11.329-.757,15.213-1.2l4.6-.534A10.5,10.5,0,0,1,386.855,140.443Z" fill="#fff"/><path d="M365.168,0a4.5,4.5,0,0,1,.1,1.1c.031.71.059,1.737.082,3.006.048,2.539.077,6.046.077,9.92s-.029,7.383-.077,9.921c-.023,1.27-.051,2.3-.082,3.007a4.49,4.49,0,0,1-.1,1.1,4.529,4.529,0,0,1-.1-1.1c-.031-.71-.059-1.737-.083-3.007-.047-2.538-.076-6.046-.076-9.921s.029-7.381.076-9.92c.024-1.269.052-2.3.083-3.006A4.543,4.543,0,0,1,365.168,0Z" fill="#263238"/></svg>