<svg xmlns="http://www.w3.org/2000/svg" viewBox="0 0 111.072 122.105"><circle cx="55.536" cy="66.569" r="55.536" transform="translate(-13.628 14.301) rotate(-13.084)" fill="#efca70"/><path d="M54.957,91.251c-18.887,0-34.326,13.642-35.441,30.854H90.4C89.283,104.893,73.843,91.251,54.957,91.251Z" fill="#5c4a60" fill-rule="evenodd"/><path d="M37.3,122.105H90.4c-.813-12.569-9.268-23.233-21.125-28.072C69.154,103.649,65.726,117.422,37.3,122.105Z" fill="#534259" fill-rule="evenodd"/><path d="M41.939,113.638c5.885-6.183,10.473-7.88,15.759-5.585a33.922,33.922,0,0,1,8.877,5.685s.5-12.368-2.393-14.562-10.473-2.594-11.47-2.194S40.244,101.869,41.939,113.638Z" fill="#534259" fill-rule="evenodd"/><path d="M54.292,102.955c-5.187.4-11.57,8.511-12.1,10.772s-9.841-20.214,1.729-23.672,10.373,1.6,10.373,1.6Z" fill="#423447" fill-rule="evenodd"/><path d="M54.362,102.955c5.187.4,11.571,8.511,12.1,10.772s9.842-20.214-1.729-23.672-10.373,1.6-10.373,1.6Z" fill="#423447" fill-rule="evenodd"/><path d="M40.807,82.544c4.628,13.007,5.586,20.109,14.124,20.109S66.182,80.709,66.182,80.709Z" fill="#e4ae91" fill-rule="evenodd"/><path d="M40.807,82.544c2.047,5.751,3.375,10.347,4.959,13.686a31.488,31.488,0,0,0,11.8.26c1.239-.263,2.932-.632,4.856-1.184a63.03,63.03,0,0,0,3.763-14.6Z" fill="#b77a65" fill-rule="evenodd"/><path d="M19.9,54.578c-1.378-2.176-3.152-3.792-4.782-4.172-4.188-.979-5.795,2.788-4.754,7.035,1.514,6.173,8.044,12.244,11.85,7.35C24.449,61.919,19.9,54.578,19.9,54.578Z" fill="#e4ae91" fill-rule="evenodd"/><path d="M81.929,52.613a10,10,0,0,1,5.429-4.122c4.189-.979,5.8,2.788,4.754,7.035C90.6,61.7,84.069,67.77,80.263,62.876,78.028,60,81.929,52.613,81.929,52.613Z" fill="#e4ae91" fill-rule="evenodd"/><path d="M18.465,39.9c1.482,22.385,2.552,34.992,8.58,42.811,5.783,7.5,21.631,11.579,30.518,9.693,5.267-1.117,22.342-7.182,24.417-20.427s.16-46.44.16-46.44-16.6-12.767-25.853-13.724S21.5,20.746,21.5,20.746,10.964,24.256,18.465,39.9Z" fill="#e4ae91" fill-rule="evenodd"/><path d="M18.465,39.9l.032.485a21.448,21.448,0,0,0,3.046,2.841c3.491-8.877,7.381-11.471,10.373-12.967l2.992-1.5-3.39,5.087a156.875,156.875,0,0,1,25.433-4.888c14.961-1.695,15.56-2.592,15.361.6S76,38.633,79.294,43.621,82.685,50.7,82.685,50.7s-2.593-25.933-3.192-26.83a.859.859,0,0,1-.111-.364c-1.575-1.122-3.716-2.595-6.125-4.119a39,39,0,0,0-4.337-.106c-12.268.3-37.2,2-40.295,3.192s-8.977.9-10.174,4.787A34.225,34.225,0,0,0,16.6,35.14,31.908,31.908,0,0,0,18.465,39.9Z" fill="#b77a65" fill-rule="evenodd"/><path d="M13.917,25.373c-4.381,5.28-3.653,9.336-2.234,15.72l1.276-3.033a95.988,95.988,0,0,0,6.424,15.7s3.071-11.071,3.071-15.3-.319-5.266,0-6.543,8.219-6.862,8.219-6.862l-5.346,5.825,13.725-4.708-6.623,7.182s9.175-5.347,23.539-7.421,19.309-1.038,19.309-1.038c-1.726,5.415,2.908,14.118,5.84,23.139.331,1.017,1.9,4.864,2.822,2.4,2.546-6.79,8.493-23.5.594-26.54-.359-.138,6.25,1.66,6.145,1.356-1.961-5.628-4.779-6.438-8.458-6.463a29.638,29.638,0,0,0-1.437-6.383L79.586,8.9a9.485,9.485,0,0,1-.079,3.83,6.121,6.121,0,0,1-1.2,2.793S75.118,4.109,65.543,1.077C48.652-4.272,30.61,12.153,14.635,10.133c-.955-.121-1.641-.42-1.648.038-.019,1.218,1.43,3.654,3.014,5.232a8.386,8.386,0,0,0,2.49,1.626C16.571,19.307,8.37,19.5,6.815,19.269,6.815,19.269,9.608,24.3,13.917,25.373Z" fill="#381c0a" fill-rule="evenodd"/><path d="M78.3,15.471a26.271,26.271,0,0,0-2.127-4.921c-4.443.755-19.528,2.607-30.637-4.631-1.318-.858-2.506-1.644-3.579-2.365C36.259,5.583,30.6,7.979,25.09,9.3c14.4,10.864,33.84,10.951,43.282,9.136C75.8,17.009,77.7,16.119,78.3,15.471Z" fill="#734434" fill-rule="evenodd"/><path d="M35.823,44.261c2.182,0,3.95,2.274,3.95,5.078s-1.768,5.079-3.95,5.079-3.949-2.274-3.949-5.079S33.643,44.261,35.823,44.261Z" fill="#381c0a" fill-rule="evenodd"/><path d="M66.385,42.825c2.18,0,3.949,2.274,3.949,5.079s-1.769,5.078-3.949,5.078-3.95-2.274-3.95-5.078S64.2,42.825,66.385,42.825Z" fill="#381c0a" fill-rule="evenodd"/><path d="M37.538,35.606c-6.491,1.442-9.29,4.3-9.29,4.3L40.855,39.5S40.48,34.624,37.538,35.606Z" fill="#381c0a" fill-rule="evenodd"/><path d="M37.542,35.623c-6.082,1.353-8.91,3.938-9.246,4.262l12.539-.4c-.028-.329-.475-4.8-3.291-3.859Zm-9.307,4.269c.008-.008,2.8-2.86,9.3-4.3,2.964-.987,3.34,3.9,3.342,3.911v.02l-12.627.406Z" fill="#20201e" fill-rule="evenodd"/><path d="M63.183,33.923c6.056,1.117,8.668,3.833,8.668,3.833l-11.765.228S60.437,33.089,63.183,33.923Z" fill="#381c0a" fill-rule="evenodd"/><path d="M63.187,33.905c6.062,1.118,8.669,3.83,8.676,3.838l.032.031L60.065,38l0-.021c0-.014.352-4.916,3.12-4.077Zm8.619,3.834c-.309-.3-2.948-2.75-8.627-3.8h0c-2.625-.8-3.043,3.687-3.071,4.023Z" fill="#20201e" fill-rule="evenodd"/><path d="M18.384,53.094a.939.939,0,0,1,1.127-1.5c.476.359.293.217,1.038.773,4.942,3.684,7.79,5.807,9.517,11.933,1.5,5.308,22.4-.634,22.459-.651.031-.009.061-.016.091-.022L76.2,58.315c1.654-3.836,3.887-7.634,7.717-9.58a.94.94,0,0,1,.847,1.679c-3.485,1.77-5.569,5.549-7.009,9.048a.935.935,0,0,1-.671.579L53.029,65.457c-.233.067-22.767,6.461-24.774-.652-1.552-5.5-4.214-7.488-8.832-10.932Z" fill="#5c968b" fill-rule="evenodd"/><path d="M26.709,82.256C32.374,90.017,48.66,94.289,57.563,92.4c4.764-1.011,16.255-3.585,21.776-12.152-.366-3.954-1.293-23.223-.791-24.478.128-.318-.38-.074-1.823.448-14.72,5.322-16.471.118-25.306.666-10.767.667-10.388,5.026-25.269,1.945C27.8,65.064,27.777,77.12,26.709,82.256Z" fill="#5c968b" fill-rule="evenodd"/><path d="M33.2,68.112a.94.94,0,0,1,.53-1.8c4.928,1.447,11.792,1.779,18.388,1.459,8.081-.394,15.7-1.759,18.848-3.254a.94.94,0,0,1,.8,1.7C68.428,67.8,60.516,69.24,52.2,69.644,45.426,69.974,38.342,69.623,33.2,68.112Z" fill="#467164" fill-rule="evenodd"/><path d="M33.2,74.627a.94.94,0,1,1,.53-1.8c4.928,1.447,11.792,1.779,18.388,1.458,8.081-.394,15.7-1.758,18.848-3.253a.94.94,0,0,1,.8,1.7c-3.337,1.585-11.249,3.024-19.562,3.43C45.426,76.49,38.342,76.138,33.2,74.627Z" fill="#467164" fill-rule="evenodd"/><path d="M34.279,81.79a.941.941,0,0,1,.56-1.8c4.632,1.444,11.084,1.775,17.287,1.455,7.6-.393,14.765-1.753,17.717-3.242a.94.94,0,0,1,.846,1.679c-3.155,1.591-10.626,3.035-18.467,3.441C45.824,83.657,39.138,83.305,34.279,81.79Z" fill="#467164" fill-rule="evenodd"/><path d="M36.8,45.815a1.147,1.147,0,1,1-1.147,1.146A1.146,1.146,0,0,1,36.8,45.815Z" fill="#fff" fill-rule="evenodd"/><path d="M67.723,44.218a1.148,1.148,0,1,1-1.147,1.148A1.148,1.148,0,0,1,67.723,44.218Z" fill="#fff" fill-rule="evenodd"/><path d="M18.543,56.084a5.475,5.475,0,0,0-2.9-2.533c-2.542-.594-3.518,1.694-2.886,4.272.919,3.747,4.884,7.433,7.194,4.462C21.305,60.541,18.543,56.084,18.543,56.084Z" fill="#b77a65" fill-rule="evenodd"/><path d="M84.465,54.29a5.477,5.477,0,0,1,2.9-2.534c2.543-.593,3.519,1.693,2.886,4.271-.918,3.748-4.883,7.433-7.193,4.463C81.7,58.746,84.465,54.29,84.465,54.29Z" fill="#b77a65" fill-rule="evenodd"/></svg>