<?xml version="1.0" encoding="utf-8"?>
<!-- Generator: Adobe Illustrator 24.1.2, SVG Export Plug-In . SVG Version: 6.00 Build 0)  -->
<svg version="1.1" id="Layer_1" xmlns="http://www.w3.org/2000/svg" xmlns:xlink="http://www.w3.org/1999/xlink" x="0px" y="0px"
	 viewBox="0 0 361.6 430.4" style="enable-background:new 0 0 361.6 430.4;" xml:space="preserve">
<style type="text/css">
	.st0{fill:#F5D2E2;}
	.st1{fill:#4B33AF;}
	.st2{fill:#7A5CE5;}
	.st3{fill:#712193;}
	.st4{fill:#FFAC8D;}
	.st5{fill:#F58B6E;}
	.st6{fill:#54116B;}
	.st7{fill:#FFF3FF;}
	.st8{fill:#441B28;}
	.st9{fill:#FF8F8F;}
	.st10{fill:#56136D;}
	.st11{fill:#B49CEF;}
</style>
<g>
	<path class="st0" d="M20.9,366.4C9,368.6,6,384.6,16.2,391.2c4.3,2.8,9,5,13.8,6.6c13.2,4.4,27.2,4.9,41,6.4s27.9,3.9,39.7,11.5
		c8.5,5.5,16,13.7,26,14.6c9.6,0.9,18.3-5.4,27.7-8c11.1-3.1,22.9-0.8,34.3,0.8c15,2.1,30.1,3,45.2,2.8c6.8-0.1,14.7-1.1,18.2-7.1
		c1.7-2.9,2-6.5,3.7-9.3c2.9-4.9,8.9-6.6,14.4-7.7c11.7-2.2,23.6-3.1,35.5-2.7c5.9,0.2,11.9,0.7,17.4-2.1c2.7-1.3,4.9-3.6,6-6.3
		c3.3-8.2-4.1-16-11.2-20.5c-31.7-20.3-71.4-22.4-108.6-19c-30.2,2.8-60.1,8.9-90.4,10.2c-26.5,1.2-52.9-1.2-79.3,1.1
		C40,363.4,30.4,364.7,20.9,366.4z"/>
	<path class="st1" d="M57.8,280.7c-4.6-6.6-7.5-14.3-8.5-22.3c-0.2-1.3-2.2-1.3-2,0c1,8.4,4,16.4,8.8,23.3
		C56.7,282.8,58.5,281.8,57.8,280.7z"/>
	<path class="st1" d="M52.7,281.3c-3.2-4.4-5.7-9.3-7.3-14.6c-0.4-1.3-2.4-0.7-2,0.5c1.6,5.4,4.2,10.5,7.5,15.1
		C51.7,283.4,53.5,282.4,52.7,281.3z"/>
	<path class="st1" d="M78.2,151.5c-5.1,5.4-7.4,12.6-9.6,19.5c-0.4,1.3,1.6,1.8,2,0.5c2-6.6,4.1-13.5,9-18.6
		C80.5,152,79.1,150.5,78.2,151.5z"/>
	<path class="st1" d="M70.2,152.8c-2.3,3.8-4.1,7.8-5.4,12c-0.4,1.3,1.6,1.8,2,0.5c1.3-4,3-7.9,5.2-11.5
		C72.6,152.7,70.8,151.6,70.2,152.8z"/>
	<path class="st1" d="M103.5,85c-4.5-4.8-9.6-8.9-15.3-12.1c-0.5-0.3-1.1-0.1-1.4,0.4c-0.3,0.5-0.1,1.1,0.4,1.4
		c5.5,3.2,10.6,7.2,14.9,11.8C103,87.4,104.4,85.9,103.5,85z"/>
	<path class="st1" d="M97.7,89.9c-4.7-1.2-9.6-1.9-14.5-2.1c-1.3-0.1-1.3,2,0,2c4.7,0.2,9.4,0.9,14,2.1c0.6,0.1,1.1-0.2,1.2-0.8
		C98.5,90.6,98.2,90.1,97.7,89.9z"/>
	<path class="st1" d="M97.1,96.9c-3.1,0-6.2,0.7-9,2.2c-0.5,0.3-0.6,0.9-0.3,1.4c0.3,0.5,0.9,0.6,1.4,0.4c2.5-1.3,5.2-1.9,8-1.9
		c0.6,0,1-0.5,1-1.1C98,97.3,97.6,96.9,97.1,96.9z"/>
	<path class="st1" d="M278.4,144.1c-4.6-7-10-13.5-16.2-19.2c-1-0.9-2.2,0.8-1.2,1.7c6,5.6,11.3,11.9,15.8,18.8
		C277.5,146.5,279.1,145.2,278.4,144.1z"/>
	<path class="st1" d="M279.2,135.7c-2.9-4.1-6.3-7.9-10.1-11.2c-0.5-0.3-1.1-0.2-1.4,0.2c-0.3,0.5-0.2,1.1,0.2,1.4
		c3.7,3.2,6.9,6.9,9.7,10.8C278.4,138,280,136.7,279.2,135.7z"/>
	<path class="st1" d="M303.3,239.7c-0.3,6-3.5,11.5-8.5,14.8c-1.1,0.7-0.1,2.5,1,1.8c5.7-3.6,9.3-9.8,9.5-16.5
		C305.4,238.3,303.4,238.3,303.3,239.7z"/>
	<path class="st1" d="M308.9,245.8c-0.6,0-1,0.5-1,1c-0.3,2.8-1.7,5.4-4,7.1c-0.4,0.4-0.4,1,0,1.4c0.4,0.4,1,0.4,1.4,0
		c2.6-2.1,4.3-5.2,4.6-8.5C309.9,246.3,309.4,245.8,308.9,245.8z"/>
	<path class="st2" d="M245.4,80.7l-0.1,0.1c-1,2.1-1.7,4.4-2.1,6.7c-0.4,2.4,0.1,4.8,1.5,6.8c1.4,2,4,2.9,6.3,2.2
		c2-0.8,3.3-2.8,3.9-4.9c0.7-2.7,0.8-5.6,0.3-8.3c-0.5-2.8-1.3-5.5-2.2-8.1l-1.2-3.8c-0.3-1-1.2-3.6-1.2-3.6s-1.1,2.4-1.3,3
		l-1.3,3.4C247.1,76.4,246.3,78.6,245.4,80.7z"/>
	<path class="st2" d="M237.2,62.1L237.2,62.1c-0.6,1.3-1,2.6-1.2,3.9c-0.2,1.4,0.1,2.8,0.9,4c0.8,1.2,2.3,1.7,3.7,1.2
		c1.1-0.5,2-1.6,2.2-2.8c0.4-1.6,0.5-3.2,0.2-4.8c-0.3-1.6-0.7-3.2-1.3-4.7l-0.7-2.2c-0.2-0.6-0.7-2.1-0.7-2.1s-0.6,1.4-0.8,1.8
		c-0.3,0.6-0.5,1.3-0.8,1.9C238.2,59.6,237.7,60.8,237.2,62.1z"/>
	<path class="st3" d="M280.9,360.2c-17,10.8-32.7,16.6-46.5,19.5c-31.1,6.6-51.8-1.9-51.8-1.9l-3-47.8
		c85.4-82.1,125.3-61.3,138.5-49.4c0.3,0.2,0.5,0.5,0.8,0.7C331.5,293.8,335.2,325.6,280.9,360.2z"/>
	<path class="st0" d="M280.9,360.2c-17,10.8-32.7,16.6-46.5,19.5l-4-3.6l2.3-21.1c0,0,10.8,3.1,16.3,12.7c0,0,82.2-41.1,69.9-86.3
		C331.5,293.8,335.2,325.6,280.9,360.2z"/>
	<path class="st4" d="M168.1,390.1c-13.4-0.1-26.7-2.3-39.4-6.6c-1.9-0.6-3.7-1.3-5.5-2c-1-0.3-2,0-2.6,0.9
		c-1.5,0.4-2.8,1.2-3.8,2.3c-0.8,0.9-1.4,1.9-1.8,3c-0.5,1.4-0.6,3-0.2,4.5c0.2,0.8,0.5,1.7,0.9,2.4c0.4,0.8,0.9,1.4,1.5,2
		c2.4,2.3,5.6,3.5,8.9,3.3c1.2-0.1,2.4-0.2,3.5-0.6c-0.2,1.2,0,2.4,0.6,3.4c1.4,2.2,3.9,2.3,6,1.3c0.5-0.2,1.1-0.5,1.6-0.8
		c-0.2,0.6-0.5,1.2-0.8,1.8c-0.7,2,1.6,3.6,3.4,3.3c1.8-0.3,3.6-0.9,5.3-1.6c-0.3,1-0.1,3,0.8,3.5c1.7,1,3.9,0.7,5.3-0.8
		c0.1,0.5,0.2,0.9,0.3,1.4c0.4,1.7,3.1,2.7,4.3,1.1c3-3.8,7.6-9.4,11.7-14.4c0.8-1,1.6-1.9,2.3-2.9c1.2-1.5,2.3-2.8,3.2-4
		C174.8,388.9,170.5,390.1,168.1,390.1z"/>
	<path class="st5" d="M134.7,394.5c-0.2-0.2-0.5-0.2-0.7,0c-1,1.1-2.1,1.9-3.4,2.6c-0.2,0.1-0.3,0.5-0.2,0.7
		c0.1,0.2,0.4,0.3,0.7,0.2c1.4-0.7,2.6-1.6,3.6-2.7C134.9,395,134.9,394.7,134.7,394.5z"/>
	<path class="st5" d="M142.6,397.8c-0.2-0.1-0.6-0.1-0.7,0.2c-0.9,1.2-2,2.2-3.2,3c-0.2,0.1-0.3,0.5-0.2,0.7
		c0.1,0.2,0.5,0.3,0.7,0.2l0,0c1.4-0.9,2.6-2,3.6-3.4C142.9,398.2,142.9,397.9,142.6,397.8z"/>
	<path class="st5" d="M149.8,401.3c-0.2-0.1-0.6-0.1-0.7,0.2c-0.2,0.3-0.3,0.6-0.5,0.9c0,0.1-0.1,0.1-0.1,0.2c0,0-0.1,0.1-0.1,0.1
		l0,0c-0.1,0.1-0.2,0.3-0.3,0.4c-0.2,0.3-0.5,0.5-0.7,0.7c-0.1,0.1-0.3,0.2-0.4,0.3c0,0,0,0,0,0l-0.1,0.1c-0.1,0.1-0.2,0.1-0.2,0.2
		c-0.2,0.1-0.3,0.5-0.2,0.7s0.5,0.3,0.7,0.2l0,0c1.3-0.8,2.3-2,3-3.3C150.2,401.7,150.1,401.4,149.8,401.3z"/>
	<path class="st5" d="M155.7,404.1c-0.2-0.1-0.6-0.1-0.7,0.2c-0.1,0.1-0.2,0.3-0.3,0.4c0,0.1-0.1,0.1-0.1,0.2c0,0-0.1,0.1,0,0
		l-0.1,0.1c-0.2,0.3-0.4,0.5-0.6,0.7c-0.2,0.2-0.5,0.5-0.7,0.7c-0.1,0.1-0.2,0.2-0.4,0.3l0,0l0,0l-0.1,0.1c-0.1,0.1-0.1,0.1-0.2,0.2
		c-0.2,0.1-0.3,0.5-0.2,0.7c0.1,0.2,0.5,0.3,0.7,0.2c1.2-0.8,2.2-1.8,2.9-3C156,404.6,155.9,404.3,155.7,404.1z"/>
	<path class="st5" d="M173.5,390.6c-0.9,1.2-2,2.5-3.2,4c-19.6,1.5-45.7-1.2-55.6-2.4c-0.3-1.5-0.3-3,0.2-4.5c0.4-1.1,1-2.1,1.8-3
		c1-1.1,2.4-2,3.8-2.3c0.6-0.8,1.7-1.2,2.6-0.9c1.8,0.7,3.7,1.4,5.5,2c12.7,4.3,26,6.5,39.4,6.6
		C170.5,390.1,174.8,388.9,173.5,390.6z"/>
	<path class="st4" d="M258.6,397.5c-0.5-0.7-1.1-1.3-1.8-1.8c-0.6-0.5-1.6-0.8-2-1.6c-0.3-0.8-0.5-1.7-0.6-2.6c-0.3-1-0.7-2-1.2-2.9
		c-0.9-1.7-2.1-3.2-3.6-4.3c-1.5-1.1-3.1-1.9-4.6-3c-1.3-0.9-2.1-2.3-2.2-3.9c-0.1-2.2,0.2-4.4,0-6.6c-0.1-4.2-1.6-8.3-4.1-11.6
		c-2.6-3.2-6.5-5.1-10.6-5.1c-2.3,0-4.6,0.3-6.8,1c-0.8,0.2-1.7,0.6-2.3-0.1c-0.2-0.3-0.4-0.6-0.6-0.9c-0.2-0.5-0.5-1-0.7-1.5
		c-1.3-1.8-3.5-2.8-5.7-2.7c-2.5,0-4.7,1.2-6.8,2.4c-0.4,0.2-0.7,0.5-0.9,0.9c0,0,0,0,0,0c-0.6,0.5-1.2,0.9-1.8,1.4
		c-3.7,3.2-6.4,7.4-8,12c-0.9,2.7-1.4,5.5-1.5,8.4c-0.1,2.5-0.1,5.9,1.8,7.9c0.1,0.1,0.2,0.2,0.3,0.3c1.2,0.8,2.6,1.2,4.1,1.1
		c1.4,0,2.8,0.1,4.1,0.4c2.6,0.7,4.9,2.1,6.8,4c4.2,4.4,4.8,10.9,4.9,16.7c-0.1,1.7,0.3,3.5,1.2,4.9c1,1.5,2.8,2.2,4.5,1.8
		c0.3-0.1,0.7-0.2,1-0.4c0.7,0.6,1.6,1.1,2.5,1.3c1.6,0.3,3.3-0.4,4.3-1.7c1.1,1.2,2.8,1.8,4.4,1.7c1.5-0.1,2.9-0.9,3.7-2.2
		c1.5,1,3.4,1.3,5.1,0.9c1.1-0.2,2-0.8,2.8-1.6c0.8,0.9,1.8,1.5,2.8,2c3.9,1.6,8.2-0.6,10.6-3.8C260.4,405.2,261,400.7,258.6,397.5z
		"/>
	<path class="st5" d="M244.4,406.7c-0.3-0.3-0.6-0.7-0.7-1.1c-0.2-0.5-0.3-1.1-0.4-1.6c-0.2-1.1-0.3-2.3-0.2-3.4c0.1-0.7-1-0.7-1,0
		c-0.1,1.3,0,2.6,0.2,3.9c0.1,1.2,0.7,2.3,1.5,3.1c0.2,0.1,0.6,0.1,0.7-0.2C244.7,407.1,244.6,406.8,244.4,406.7z"/>
	<path class="st5" d="M236.4,408.2c-1.6-2.1-2.1-4.8-1.6-7.4c0.1-0.6-0.9-0.9-1-0.3c-0.6,2.8,0,5.8,1.7,8.2
		C235.9,409.3,236.8,408.8,236.4,408.2z"/>
	<path class="st5" d="M228.3,408.4c-1.1-1.6-1.2-3.7-0.5-5.4c0.1-0.2,0.1-0.6-0.2-0.7c-0.2-0.1-0.6-0.1-0.7,0.2
		c-0.9,2.1-0.8,4.5,0.5,6.5C227.7,409.5,228.6,409,228.3,408.4z"/>
	<path class="st5" d="M221.6,408.9c-0.9-1.9-1-4-0.4-6c0.2-0.6-0.8-0.9-1-0.3c-0.7,2.3-0.5,4.7,0.5,6.8
		C221,410,221.9,409.5,221.6,408.9z"/>
	<path class="st5" d="M207.4,368.3c-1.8,6.2-1.5,12.9,1,18.9c-1.5-1.2-3.3-2-5.2-2.5c-1.3-0.3-2.7-0.5-4.1-0.4
		c-1.5,0.1-2.9-0.2-4.1-1.1v-3.8c0-0.9,3-10.8,3-11.1c0-0.2,2.8-8.5,4.4-13.7c0.6-0.5,1.2-1,1.8-1.4c0,0,0,0,0,0
		c0.2-0.4,0.5-0.7,0.9-0.9c2.1-1.2,4.3-2.4,6.8-2.4c2.2-0.1,4.4,0.9,5.7,2.7c0.3,0.5,0.5,0.9,0.7,1.5
		C213,357.2,209.1,362.3,207.4,368.3z"/>
	<path class="st6" d="M213.8,340c-2.2-3.1-6.1-2.3-9.2-1.3c-6.4,2-9,7.6-11.6,13.8c-2,4.9-3.8,10-5.2,15.1c-1.5,5.4-3,10.9-4,16.4
		c-0.6,2.6-0.6,5.3-0.1,7.9c0.3,1.5,2.2,1.8,3.4,2.5c1.5,0.9,2.6,2.3,4.3,2.9c3.7,1.2,6.6-2.2,7.6-5.3c1.3-4.3,1.2-8.8,2.4-13.1
		c2.4-8.1,4.7-16.4,8.1-24.2c1.2-2.7,2.6-5.4,4-8C214.6,344.5,215.3,342.1,213.8,340z"/>
	<path class="st3" d="M205.2,338.5c-8,12.3-14,25.8-17.8,40c-1.3,4.8-2.4,9.6-3.4,14.4c0,0-83.4,0.3-115.5-9.8
		c-25.6-8-60.4-34.7-50.8-62.7c2.4-7.1,7.8-14.3,16.8-21.3C94.4,252.9,205.2,338.5,205.2,338.5z"/>
	<path class="st0" d="M187.4,378.5c-1.3,4.8-2.4,9.6-3.4,14.4c0,0-83.4,0.3-115.5-9.8c-25.6-8-60.4-34.7-50.8-62.7
		C21.5,339.6,44.7,389.4,187.4,378.5z"/>
	<path class="st6" d="M203.3,335.9c-4.6-3.4-9.4-6.6-14.3-9.6c-1.1-0.7-2.2,1.1-1,1.8c4.9,3,9.6,6.2,14.3,9.6
		C203.3,338.4,204.3,336.6,203.3,335.9z"/>
	<path class="st2" d="M272.8,152.8c-6-9.9-12.8-19.3-20.4-28.2c5.5-19-14.1-16.3-14.1-16.3c-0.2-9.6-9.9-12.7-21.7-13
		c-3.9-2-8-3.7-12.1-5.1c-17.7-5.8-37-3.1-54.1,3.4c-5.9,2.3-11.7,5-17.2,8.2l-8.9,0c-17.7-1.2-17.5,14.4-17.5,14.4
		c-15.2,4.3-14.1,13.2-11.5,18.9c-6,8-119.2,175.1,54.4,169.8l36.2,20.7c20.5-23.6,83.7-54.4,83.7-54.4l-2.3-9.1
		C293,259.1,320,229.6,272.8,152.8z"/>
	<path class="st7" d="M160.2,227.9c3.2-7.8-0.8-15.8-4-22.9c-3.5-7.4-4.4-15.8-2.6-23.9c1-4.4,2.9-8.5,5.5-12.1c0.8-1.1-1-2.1-1.8-1
		c-4.4,6.4-6.8,14-6.7,21.7c0,3.8,0.6,7.6,1.8,11.3c1.4,4.3,3.7,8.3,5.3,12.5c1.6,4.3,2.5,9.2,0.7,13.5c-1.2-0.2-2.3,0.4-2.8,1.5
		c-0.2,0.7,0,1.4,0.4,1.9c0.2,0.3,0.5,0.6,0.9,0.8c1.4,0.9,3.7,0.2,3.9-1.2c0.1-0.6,0-1.2-0.4-1.8
		C160.4,228.1,160.3,228,160.2,227.9z"/>
	<path class="st7" d="M190,215.4c1.1-3.8,1.9-7.8,2.3-11.8c0.7-7.9-0.1-15.8-2.6-23.3c-1.4-4.3-3.2-8.4-5.6-12.2
		c-0.3-0.5-0.9-0.6-1.4-0.3c-0.5,0.3-0.6,0.9-0.4,1.4c4.2,7,6.9,14.8,7.8,22.9c0.4,3.9,0.5,7.9,0.1,11.9c-0.5,4-1.3,8-2.5,11.9
		c-1,3.7-1.7,7.6-0.5,11.2c-0.9,0.7-1.2,1.8-0.8,2.9c0.3,0.6,0.9,1,1.6,1.1c0.4,0.1,0.8,0.1,1.2,0c1.7-0.3,2.9-2.3,2.1-3.6
		c-0.3-0.5-0.8-0.9-1.4-1.1c-0.2,0-0.4-0.1-0.6-0.1C188.1,222.7,189.1,218.8,190,215.4z"/>
	<path class="st7" d="M153.9,292c-15.9,1.5-32.4,3.1-48-1.6c-6.9-2-13.2-5.4-18.6-10c-4.8-4.3-8.6-9.5-11.3-15.3
		C62.8,237.4,74.2,206.7,86,181c7.5-16.3,15.8-32.3,24.8-47.9c-0.9-0.5-1.7-1.1-2.5-1.8c-8.3,14.4-16,29.1-23,44.1
		c-6.9,14.7-13.6,29.7-16.6,45.7c-2.6,13.9-2.3,28.5,3,41.8c2.4,6.2,5.9,11.9,10.4,16.7c4.9,5.2,10.9,9.2,17.6,11.8
		c15.1,6.2,31.8,5.7,47.7,4.3c2.2-0.2,4.4-0.4,6.6-0.6C155.8,294.9,155.8,291.8,153.9,292z"/>
	<path class="st7" d="M151.1,278.5c-7.1,1-14.3,1.4-21.5,1.4c-6.8,0-13.8-0.1-20.4-1.6c-5.7-1.2-10.9-4.1-15-8.2
		c-3.9-4-6.8-8.8-8.6-14.1c-4.4-12.7-2.7-26.7,0.2-39.6c3-12.9,7.3-25.4,12.8-37.5c5.8-13.1,12.6-25.7,19.4-38.4l-0.2-0.3
		c-0.4-0.4-0.8-0.7-1.2-1.1c-0.3-0.2-0.6-0.5-0.8-0.8c-12.8,23.8-25.8,48-32.1,74.5c-3.2,13.4-5.3,27.9-1.6,41.4
		c3.1,11.1,10.5,21.3,21.5,25.6c7.1,2.8,15.2,3.1,22.8,3.2c8.4,0.2,16.7-0.3,25-1.4c0.8,0,1.5-0.7,1.5-1.5
		C152.6,279.2,152,278.5,151.1,278.5z"/>
	<path class="st7" d="M253.8,213.5c5.5,5,11.1,9.9,16.9,14.5c5.3,4.1,11.4,7.7,18.3,7.4c3.3-0.1,6.4-1.3,9-3.4
		c0.3-1.8,0.5-3.5,0.6-5.3c-1.9,3.7-6.5,5.7-10.7,5.6c-6.6-0.2-12.2-4.2-17.1-8.3c-10.6-8.7-20.8-18-30.7-27.5
		c-5.7-5.4-11.3-10.9-16.9-16.5c-1.4-1.4-3.6,0.8-2.2,2.2C231.7,192.9,242.6,203.4,253.8,213.5z"/>
	<path class="st7" d="M294.2,243.9c-3.1,1.8-6.6,2.7-10.2,2.6c-7-0.2-13.3-3.9-18.7-7.9c-6-4.4-11.7-9.4-17.3-14.4
		c-5.6-5.1-11-10.3-16.2-15.8c-5.8-6.2-11.4-12.6-16.6-19.4c-0.4-0.7-1.4-0.9-2.1-0.6c-0.7,0.4-1,1.4-0.6,2.1
		c9.8,12.7,20.7,24.5,32.6,35.2c5.9,5.3,11.9,10.5,18.2,15.3c5.8,4.3,12.5,8.2,19.9,8.6c2.7,0.1,5.5-0.2,8.1-1
		C292.5,247,293.4,245.5,294.2,243.9z"/>
	<path class="st0" d="M210.4,157l-4-3.4c0,0,1.1-1.8,0-7.1c0,0,8.3-6.8,10.9-22.2c0,0,13.6-0.9,12.2-16l-17.1,4.2l-8.2,22.8
		l-6.1,9.2l6.1,9.2v2.6l3,3L210.4,157z"/>
	<path class="st0" d="M246.7,118l4.7,5.1c0,0-24,6.1-36.7,28.6C214.7,151.8,221.3,123.6,246.7,118z"/>
	<path class="st0" d="M117.8,173.5c0,0,9.8,15.2,1.3,35.9c0,0,11.3,2.2,16.2,21.1c0,0,12.2,2,28.5,19.5L146,239.6l-16.7-6l-1.9-9.4
		l-8.7-11l-6.3-1.6c0,0,6.7-9.3,6.8-18.5C119.3,186.6,118.8,180,117.8,173.5z"/>
	<path class="st0" d="M120.5,191.5c0,0-0.7,10.5,11.6,9.4s17.3-7.2,24.3-2s8.4,18.2,23.2,17.4s13.7-16.9,13.7-16.9s5.9,3.7,12.4,1.5
		l-2.8-7.8l-24-8.3c0,0-38.3,1-38.8,1s-13.8,2-13.8,2L120.5,191.5z"/>
	<path class="st0" d="M280.3,190.7c0,0-15.8-21.3-47.2-25.3c0,0-8.2-13.9-18.4-11.2l13.8,15.9C228.5,170.1,251.9,168.7,280.3,190.7z
		"/>
	<path class="st0" d="M269.3,289.3l-1.1-14.5l-26,25.1l-13.6-5.7l-13.1-0.6l-1-3.1c11.1,0.4,6.3-8.9,6.3-8.9
		c2.9-1.9,1.5-5.4,1.5-5.4l-5.2,1.1l-5.9,3.4l-0.7,5.3l-7.7-1l-6.5,10.8l-5.8-1.5l-7.3-3.2l-10.6,1.3c0,0-7.4,9.1-11.6,12
		c-42.9,2.4-70.5-2.6-90-18.7c24.7,33.5,89.3,26.7,90.5,25.8l9.3,1.6c1.3,0.2,2.6,0,3.8-0.6c5.3-3.1,2.4-12.7,2.4-12.7
		s15.5,7.1,24.5,5.7c5.7-0.9,4.1-14.1,4.1-14.1c2.4,7.4,11,9.7,11,9.7c3.9,0.5,7.6,2.1,10.7,4.6c9.8,7.7,19.2,9,26.7,6.4
		c8.1-2.7,14.8-12,15.2-20.6C269.4,290.8,269.4,290,269.3,289.3z"/>
	<path class="st0" d="M96.5,134.6l4.5-5.8c0,0,6.7,1.2,10.9,5.8s12.6,17.5,21,24.5c0,0-12.5-5.6-19.7-14.9
		C109,139.1,103.1,135.6,96.5,134.6z"/>
	<path class="st1" d="M260.5,260.3c-10.4-1.6-19.8-6.9-27.5-14.1c-8.3-7.7-14.3-17.5-19.1-27.7c-2.9-6.1-5.3-12.4-7.7-18.8
		c-0.4-1.2-2.4-0.7-2,0.5c7.9,21.5,18.1,44.1,38.9,56c5.2,3,10.9,5,16.8,6C261.3,262.4,261.8,260.5,260.5,260.3z"/>
	<path class="st1" d="M246.5,117c-17.5,2.9-27.5,19.3-33.8,34.3c-0.5,1.2,1.5,1.7,2,0.5c6-14.4,15.6-30.1,32.4-32.9
		C248.3,118.7,247.8,116.8,246.5,117z"/>
	<path class="st1" d="M165.9,252.1c-9.6-9.7-21.9-16.4-35.3-19.1c0-0.1,0.1-0.3,0.1-0.4c-0.6-6.7-3.8-12.9-8.9-17.3
		c-2.2-1.8-4.7-3.2-7.3-4.2c6.5-11.5,7.7-25.1,3.4-37.6c-0.4-1.2-2.4-0.7-2,0.5c4.2,11.9,3,25-3.2,36c-0.1,0.1-0.1,0.2-0.1,0.3
		c-3.3-0.9-6.7-1.2-10.1-0.8c-1.3,0.2-1.3,2.2,0,2c12.6-1.8,24.3,6.9,26.1,19.5c0.1,0.5,0.1,0.9,0.2,1.4c0,0,0,0,0,0.1
		c-3.5-0.6-7.1-1-10.6-1.1c-5.1-0.1-10.1,0.4-15.1,1.4c-1.3,0.3-0.7,2.2,0.5,2c17.2-3.4,34.9,0,49.7,9.4c4.1,2.6,7.9,5.7,11.3,9.2
		C165.3,254.5,166.8,253.1,165.9,252.1z"/>
	<path class="st1" d="M281.1,191.4c-13.4-13-31-20.9-49.7-22.1c-1.3-0.1-1.3,2,0,2c18.1,1.3,35.2,8.9,48.2,21.5
		C280.6,193.8,282,192.4,281.1,191.4z"/>
	<path class="st1" d="M134,157.4c-13.2-7.2-16.8-26.8-33-29.5c-1.3-0.2-1.8,1.8-0.5,2c7.7,1.3,13,7.4,17.4,13.4
		c4.3,5.9,8.5,12.2,15.1,15.8C134.1,159.8,135.1,158,134,157.4z"/>
	<path class="st8" d="M132.1,108.3c-37.6-37.6,0-70.8,0-70.8s-16.6,2.2-14.3-1.1s25.3-20.9,65.9-14.2c0,0-7.6-5-3.8-8.2
		s20.1,11.3,20.1,11.3s15.6-7.7,19.5-3.9s-10.1,9.3-10.1,9.3s42.8,16.2,9.1,73.8L132.1,108.3z"/>
	<path class="st4" d="M206.4,143.2c-2.8,4.3-6.3,8.1-10.5,11c-6.2,4.2-14,6.8-24,6.8c-57.6,0-35.6-86.8-35.6-86.8
		c50.7-56.9,79.6,1.9,79.6,1.9S222.6,118.3,206.4,143.2z"/>
	<path class="st8" d="M191,116c-0.1,0-0.2,0-0.3,0c-4.8-0.2-7.9-4.5-8.1-4.7c-0.5-0.7-0.3-1.7,0.4-2.1c0.7-0.5,1.6-0.3,2.1,0.3
		c0,0,2.4,3.3,5.7,3.4c2,0.1,4.1-1.1,6.1-3.5c0.5-0.7,1.5-0.8,2.2-0.2s0.8,1.5,0.2,2.2c0,0,0,0,0,0C196.7,114.5,193.9,116,191,116z"
		/>
	<path class="st8" d="M152.9,116c-0.1,0-0.2,0-0.3,0c-4.8-0.2-7.9-4.5-8.1-4.7c-0.5-0.7-0.3-1.7,0.5-2.1c0.7-0.4,1.5-0.3,2,0.3
		c0.1,0.1,2.5,3.3,5.7,3.4c2.1,0.1,4.1-1.1,6.1-3.5c0.5-0.7,1.5-0.8,2.2-0.2s0.8,1.5,0.2,2.2c0,0,0,0,0,0
		C158.5,114.5,155.8,116,152.9,116z"/>
	<path class="st8" d="M187,91.2c0.1,0.3,0.3,0.6,0.5,0.8c0.2,0.3,0.4,0.6,0.6,0.9c0.5,0.6,1,1.1,1.5,1.7c1.1,1.1,2.3,2,3.7,2.6
		c1.4,0.7,2.9,1.2,4.4,1.5c0.8,0.1,1.6,0.2,2.4,0.3c0.8,0,1.6,0,2.4,0h0.1c0.4,0,0.7,0.3,0.7,0.7c0,0.4-0.3,0.7-0.6,0.7
		c-0.9,0.1-1.7,0.3-2.6,0.4c-0.9,0.1-1.8,0.1-2.7,0.1c-3.7-0.1-7.3-1.3-10.3-3.5c-0.8-0.5-1.5-1.1-2.2-1.8c-0.3-0.3-0.7-0.7-1-1
		c-0.4-0.4-0.7-0.8-1-1.2l0-0.1c-0.7-1-0.4-2.4,0.6-3.1c1-0.7,2.4-0.4,3.1,0.6C186.9,91,186.9,91.1,187,91.2z"/>
	<path class="st8" d="M164.7,93.5c-0.3,0.4-0.6,0.8-1,1.2c-0.3,0.4-0.7,0.7-1,1c-0.7,0.6-1.4,1.2-2.2,1.8c-3,2.1-6.6,3.4-10.3,3.5
		c-0.9,0-1.8,0-2.7-0.1c-0.9-0.1-1.7-0.3-2.6-0.4c-0.4-0.1-0.7-0.4-0.6-0.8c0.1-0.4,0.4-0.6,0.7-0.6h0.1c0.8,0,1.6,0,2.4,0
		c0.8,0,1.6-0.1,2.4-0.3c1.5-0.3,3-0.8,4.4-1.5c1.4-0.7,2.6-1.6,3.7-2.6c0.5-0.5,1-1.1,1.5-1.7c0.2-0.3,0.4-0.6,0.6-0.9
		c0.2-0.3,0.3-0.5,0.5-0.8c0.5-1.1,1.8-1.6,3-1.1c1.1,0.5,1.6,1.8,1.1,3C164.9,93.2,164.8,93.3,164.7,93.5L164.7,93.5z"/>
	<path class="st9" d="M160,119.4c-4.7-0.7-9.6-0.6-14.3,0.3c-0.8,0.2-1.3,1.1-1.1,1.9c0.2,0.8,1.1,1.3,1.9,1.1
		c4.2-0.8,8.4-0.9,12.6-0.3c0.8,0.2,1.6-0.3,1.9-1.1C161.3,120.5,160.8,119.6,160,119.4z"/>
	<path class="st9" d="M186.5,119.4c4.7-0.7,9.6-0.6,14.3,0.3c0.8,0.2,1.3,1.1,1.1,1.9c-0.2,0.8-1.1,1.3-1.9,1.1
		c-4.2-0.8-8.4-0.9-12.6-0.3c-0.8,0.2-1.6-0.3-1.9-1.1C185.2,120.5,185.7,119.6,186.5,119.4z"/>
	
		<ellipse transform="matrix(0.7609 -0.6489 0.6489 0.7609 -41.3075 109.2903)" class="st4" cx="127.6" cy="110.7" rx="9.9" ry="12"/>
	<path class="st5" d="M131.7,110c-2.8-1.4-5.3-3.4-7.3-5.9c-0.4-0.4-1-0.4-1.4,0c-0.4,0.4-0.4,1,0,1.4c1.7,2,3.6,3.8,5.9,5.1
		c-1.9,0.9-3.7,2.3-5.1,3.9c-0.4,0.4-0.4,1,0,1.4c0.4,0.4,1,0.4,1.4,0c1.7-1.9,3.8-3.4,6.2-4.2c0.5-0.2,0.9-0.7,0.7-1.3
		C132.1,110.3,131.9,110.1,131.7,110z"/>
	<path class="st4" d="M211.1,103c-4.3,5-4.4,12-0.2,15.6s11,2.3,15.3-2.7s4.4-12,0.2-15.6S215.4,97.9,211.1,103z"/>
	<path class="st5" d="M214.4,110c2.8-1.4,5.3-3.4,7.3-5.9c0.4-0.4,1-0.4,1.4,0c0.4,0.4,0.4,1,0,1.4c-1.7,2-3.6,3.8-5.9,5.1
		c1.9,0.9,3.7,2.3,5.1,3.9c0.4,0.4,0.4,1,0,1.4c-0.4,0.4-1,0.4-1.4,0c-1.7-1.9-3.8-3.4-6.2-4.2c-0.5-0.2-0.9-0.7-0.7-1.3
		C214.1,110.3,214.2,110.1,214.4,110z"/>
	<path class="st5" d="M134.5,79.4c0,0,8.3,7.6,39.1-11.3c0,0-0.1,4.4,0,4.6s-5.1,4.6-5.1,4.6s12.6,1.7,25.4-12.1
		c0,0,1.4,5.2,7.5,9.3L197,54.7c-1.4-0.1-2.9-0.1-4.3,0c-4.1,0.1-21.9,2.7-22.7,3.1s-7.2,3.1-9.3,4.2s-6.5,4.1-7.9,4.9
		S134.5,79.4,134.5,79.4z"/>
	<path class="st8" d="M217.3,87.5c0,0-2.8-1.7-4.7-6.4c0,0,0.5,4.4-1,5.6s-15.2-9.8-16.2-27.9c0,0-14.1,17.1-26.9,18.5
		c-0.6,0.1-1.2-0.4-1.3-1c-0.1-0.4,0.1-0.9,0.5-1.1c3.3-2.5,5.7-5.8,7.1-9.7c0,0-35.9,22.9-42.6,11.8c0,0,15.3-31,47.4-31
		s39.2,34.9,39.2,34.9L217.3,87.5z"/>
	<path class="st3" d="M167.6,125.7c-1-1.2-2.3-2.1-3.8-2.6c-5.4-1.5-11.1,4.2-14,8.1c-3.3,4.3-5.5,9.3-7.9,14.1
		c-6,12.1-10.6,25.6-18,37c-0.5,0.8-1,1.5-1.7,2.2c-6.6,6.9,2.8,16.2,16.8,12s14.3-6.6,27.1,9.3s27.8,0.2,21.8-25.6
		c-2.6-10.6-5.9-21-10.1-31.1c-1.9-4.8-3.4-9.7-5.5-14.4C171.3,132.1,169.8,128.3,167.6,125.7z"/>
	<path class="st10" d="M163.8,157.5c-3.2,7.2-6,14.6-8.3,22.2c-0.4,1.3,1.6,1.8,2,0.5c2.3-7.4,5-14.6,8.1-21.7
		C166.1,157.4,164.3,156.3,163.8,157.5z"/>
	<path class="st10" d="M172.3,183.6c-1.7-8.1-2.3-16.4-1.6-24.6c0.1-1.3-1.9-1.3-2,0c-0.7,8.4-0.2,16.9,1.6,25.2
		C170.6,185.4,172.6,184.9,172.3,183.6z"/>
	<path class="st5" d="M206.4,143.2c-2.8,4.3-6.3,8.1-10.5,11l-16.9-31c0,0,12.5,1.9,21.3,11.6C202.7,137.3,204.7,140.1,206.4,143.2z
		"/>
	<path class="st1" d="M191.7,170.8c-7.1,8.4-10.5,18.6,2.4,26.2c14.9,8.8,32.3-7.5,36.5-18.9c1.9-5.1,0.8-10.8-3.4-15.6
		c-3.4-3.9-9-9.5-14.1-8.4c-1.4,0.4-2.7,0.9-3.8,1.7C202.7,159.9,196.8,164.9,191.7,170.8z"/>
	<path class="st4" d="M213.5,164.9c-2.6-3.5-5.5-6.8-8.5-9.9c0,0-3.8-15.6-8-19.8s-13.9-12-18.9-12s-23.8,4.7-21.5,12.7
		c0,0-8.6,5-3.8,8.1c0,0-5.2,3.7,0,8.1c0,0-2.7,3.7,1.1,4.2s9.3-0.5,12.2,0.4s10.5,19.7,17.8,21.5s10,0.9,10,0.9l2.4,3.3
		C196.3,182.4,211.1,175.2,213.5,164.9z"/>
	<path class="st5" d="M183.9,136.2c-3.6-2-7.5-3.8-11.7-4.1c-3.9-0.3-7.9,0.6-11.3,2.6c-0.2,0.1-0.3,0.5-0.2,0.7
		c0.1,0.2,0.4,0.3,0.7,0.2c3.3-1.9,7-2.7,10.8-2.5c4,0.3,7.7,2,11.2,4C184,137.4,184.5,136.5,183.9,136.2z"/>
	<path class="st5" d="M179.3,144.6c-3.6-1.6-7.3-3.1-11.3-3.4c-3.8-0.3-7.7,0.3-11.2,1.8c-0.6,0.3-0.3,1.2,0.3,1
		c3.4-1.4,7.1-2,10.7-1.8c3.9,0.3,7.5,1.7,11,3.3C179.4,145.8,179.9,144.9,179.3,144.6z"/>
	<path class="st5" d="M175,152.7c-2.8-1.8-6-3-9.3-3.6c-3.6-0.5-6.8,0.6-10.1,1.9c-0.6,0.2-0.3,1.2,0.3,1c3.1-1.2,6.2-2.3,9.6-1.9
		c3.2,0.5,6.3,1.7,9,3.4c0.2,0.1,0.6,0.1,0.7-0.2S175.2,152.8,175,152.7L175,152.7z"/>
	<path class="st11" d="M267.8,259.9c-0.3-2.4-0.5-3.9-0.5-3.9l-41.8-1.3c0,0-0.7,3.2-1.4,8.1c-3.2-0.5-7.9-0.5-11.9,2.3
		c-4.3,3.1-6.5,8.5-6.5,16.1c0,7,2.1,12.1,6.4,14.9c1.2,0.8,2.5,1.4,3.9,1.8c1.6,0.4,3.3,0.7,4.9,0.6c2,0,3.9-0.2,5.9-0.7
		c3.2,7.2,9,12.3,19,12.3C271.3,310.2,269.2,272.3,267.8,259.9z M217.6,291.9c-0.7-0.2-1.4-0.5-2-0.9c-2.4-1.6-3.6-4.9-3.6-9.8
		c0-5.5,1.3-9.2,3.9-11.1c2.4-1.7,5.6-1.6,7.7-1.2c-0.6,6.4-0.4,12.9,0.5,19.3c0.2,1.3,0.5,2.5,0.8,3.8
		C222.5,292.6,220,292.5,217.6,291.9z"/>
	<path class="st0" d="M245.8,310.2c-10,0-15.8-5.2-19-12.3c-1.9,0.4-3.9,0.7-5.9,0.7c-1.7,0-3.3-0.2-4.9-0.6
		c1.1-0.6,1.9-1.6,2.2-2.9c0.2-1.1,0-2.2-0.6-3.1c2.4,0.6,4.9,0.6,7.2,0.1c-0.3-1.2-0.6-2.5-0.8-3.8l0.3,0.1
		c17.5,4.4,35.5-5.2,41.6-22.2c0.8-2.3,1.4-4.4,1.9-6.3C269.2,272.3,271.3,310.2,245.8,310.2z"/>
	<g>
		<path class="st0" d="M252.1,242.5c-1.3,1.5-1.4,3.6-0.3,5.3c1.1,1.6,2.9,2.5,4.8,2.7c2.1,0.3,4.3-0.7,5.5-2.4
			c0.8-1.4,1-3.2,0.6-4.8c-0.5-1.6-1.1-3.1-2-4.5c1.1,0.2,2.2-0.1,2.9-0.9c0.8-0.8,1.3-1.8,1.5-2.9c0.4-1.9-0.1-3.9-1.2-5.4
			c-1.1-1.6-2.9-2.5-4.9-2.5c-1.9,0-3.7,1.1-4.6,2.8c-0.8-1.9-1.9-3.7-3.8-4.5c-1.3-0.5-2.8-0.5-4.1,0c-3.8,1.2-6.5,4.5-7.2,8.4
			c-0.3,1.5,0,3.1,1,4.2c1.3,1,3,1.4,4.5,0.8c-0.5,1.4,0,3,1.2,3.9c0.6,0.4,1.2,0.7,1.9,0.8C249.4,243.6,250.9,243.3,252.1,242.5z"
			/>
		<path class="st0" d="M268.5,237.8c-0.2-1,0.1-2.1,0.7-2.9c0.6-0.8,1.7-1.3,2.7-1.1c1,0.1,1.9,0.9,2.1,1.9c0.1,1.2-0.4,2.3-1.2,3.1
			c-0.6,0.7-1.8,1.8-2.8,1.5C269.1,240.1,268.6,238.6,268.5,237.8z"/>
		<path class="st0" d="M255.4,187.8c-3.6,0.3-6.2,3.4-5.9,6.9c0.2,2.8,2.3,5.2,5.1,5.8c-1.2,1.2-1.9,2.9-1.7,4.6
			c0.1,1.7,1.1,3.2,2.6,4.1c1.5,0.8,3.4,0.7,4.8-0.3c0,3,1.6,5.8,4.2,7.3c2.7,1.4,5.9,1.4,8.5-0.1c1.1-0.7,2.1-1.6,2.7-2.8
			c0.6-1.2,0.7-2.6,0.3-3.8c1.6,1.2,3.8,1.4,5.6,0.6c1.9-0.7,3.4-2.2,4.1-4.1c0.4-1,0.5-2.2,0.3-3.3c-0.3-1.1-1-2-2.1-2.5
			c1.4-1.9,2.8-4.1,3-6.4c0-3.1-2-5.9-4.9-6.9c-2.9-0.9-6.1-0.4-8.7,1.3c0.1-1.3,0.2-2.6,0-3.9c-0.1-1.3-0.6-2.5-1.4-3.5
			c-1.3-1.4-3.3-1.9-5.2-2.1c-2.2-0.4-4.4-0.1-6.5,0.7C256.8,180.8,255,184.2,255.4,187.8z"/>
		<path class="st0" d="M247.8,183.8c-0.2-1,0.3-2,1.1-2.6c0.9-0.5,2-0.5,2.8,0c0.9,0.5,1.4,1.5,1.4,2.5c0,1-0.5,2-1.2,2.6
			c-0.3,0.2-0.6,0.4-0.9,0.4C249.8,187,248.1,184.9,247.8,183.8z"/>
	</g>
	<path class="st7" d="M244.1,241.9c-1.4,1.6-1.5,3.9-0.4,5.6c1.2,1.7,3.1,2.7,5.1,2.8c2.3,0.3,4.6-0.7,5.9-2.6
		c0.9-1.5,1.1-3.4,0.6-5.1c-0.5-1.7-1.2-3.3-2.1-4.8c1.2,0.3,2.4-0.1,3.1-1c0.8-0.9,1.4-1.9,1.6-3.1c0.4-2-0.1-4.1-1.2-5.8
		c-1.2-1.7-3.2-2.7-5.2-2.7c-2.1,0-4,1.2-5,3c-0.8-2-2-4-4-4.8c-1.4-0.5-3-0.5-4.4,0c-4,1.3-7,4.8-7.7,9c-0.4,1.6,0,3.3,1.1,4.6
		c1.4,1.1,3.2,1.5,4.9,0.9c-0.6,1.5,0,3.2,1.2,4.2c0.6,0.4,1.3,0.7,2.1,0.8C241.2,243.1,242.8,242.8,244.1,241.9z"/>
	<path class="st7" d="M261.8,236.9c-0.2-1.1,0.1-2.2,0.8-3.1c0.7-0.9,1.8-1.3,2.9-1.2c1.1,0.2,2,1,2.3,2.1c0.1,1.2-0.4,2.4-1.3,3.3
		c-0.6,0.7-1.9,1.9-3,1.6C262.4,239.3,261.9,237.8,261.8,236.9z"/>
	<path class="st7" d="M247.7,183.2c-3.8,0.3-6.7,3.6-6.4,7.4c0.2,3,2.4,5.6,5.4,6.2c-1.3,1.3-2,3.1-1.9,4.9c0.1,1.8,1.2,3.5,2.8,4.4
		c1.6,0.9,3.6,0.7,5.1-0.3c0,3.2,1.7,6.2,4.5,7.8c2.9,1.6,6.3,1.5,9.1-0.1c1.2-0.7,2.2-1.8,2.9-3c0.6-1.3,0.7-2.8,0.3-4.1
		c1.8,1.3,4.1,1.5,6.1,0.7c2-0.8,3.6-2.4,4.4-4.4c0.4-1.1,0.5-2.3,0.3-3.5c-0.3-1.2-1.1-2.2-2.2-2.6c1.5-2.1,3-4.4,3.2-6.9
		c0-3.3-2.1-6.3-5.3-7.4c-3.1-1-6.6-0.5-9.3,1.4c0.2-1.4,0.2-2.8,0-4.2c-0.1-1.4-0.6-2.7-1.5-3.8c-1.4-1.5-3.5-2-5.5-2.2
		c-2.3-0.4-4.8-0.1-7,0.7C249.2,175.8,247.2,179.4,247.7,183.2z"/>
	<path class="st7" d="M239.6,179c-0.2-1.1,0.3-2.2,1.2-2.7c0.9-0.6,2.1-0.6,3,0c0.9,0.6,1.5,1.6,1.5,2.7c0,1.1-0.5,2.1-1.3,2.8
		c-0.3,0.2-0.6,0.4-1,0.5C241.7,182.4,239.8,180.1,239.6,179z"/>
	<path class="st1" d="M177.6,270.1c-0.8-12.3-5.1-23.1-18.7-19.1c-15.6,4.7-16.6,31.4-11.9,43.8c2.1,5.5,6.5,9.3,12.4,9.9
		c4.8,0.5,12.1,0.5,14.8-4.4c0.7-1.4,1.2-2.9,1.4-4.4C177.4,287.4,178.1,278.7,177.6,270.1z"/>
	<path class="st4" d="M222.6,277.5c-0.6,2.1-2.5,3.5-4.7,3.4c2.1,1.1,3,3.7,2.1,5.9c-1.4,4.1-14.4,0-14.4,0s-2,11.9-5.8,13.4
		c-5.4,2-17-0.2-23.2-5.3c-1.8-1.5-8-1.3-10.9-1c-0.9,0.1-1.5,0.1-1.5,0.1c-8.4-16.5,2-32.6,2-32.6c2.3,0.3,4.6,0.5,6.9,0.5
		c15.4,0.2,22.2-7,27.8-5.7c6.4,1.4,14.4,4.7,20.5,4.1s0.1,9.3-11.9,8.1C209.5,268.4,223.9,273.7,222.6,277.5z"/>
	<path class="st5" d="M207.7,267.3c-3-0.9-6-1.7-9.1-2.4c-0.6-0.1-0.9,0.8-0.3,1c3.1,0.7,6.1,1.5,9.1,2.4
		C208,268.5,208.3,267.5,207.7,267.3z"/>
	<path class="st5" d="M215.3,279.7l-8.9-2.4c-0.3-0.1-0.6,0.1-0.6,0.4c-0.1,0.3,0.1,0.5,0.4,0.6l8.9,2.4c0.3,0.1,0.6-0.1,0.6-0.4
		S215.5,279.8,215.3,279.7L215.3,279.7z"/>
</g>
</svg>
