<svg xmlns="http://www.w3.org/2000/svg" viewBox="0 0 111.072 112.693"><circle cx="55.536" cy="57.157" r="55.536" transform="translate(-24.15 56.011) rotate(-45)" fill="#efca70"/><path d="M86.815,21.386,66.654,41.124,56.006,37.961,44.578,40.919c-2.382,5.618,3.383,5.568,8.271,5.1,1.212-.114,2.8.8,2.2,1.38L39.1,62.645c-2.445,2.336-2.152,3.559-1.407,4.433a2.491,2.491,0,0,0,2.756,1.064,17.3,17.3,0,0,0,5.262-2.978s-5.359,4.226-2.956,6.668,5.9-1.415,7.363-2.5c.915-.678-1.761,1.683-2.071,3.722a2.475,2.475,0,0,0,1.511,2.2c2.8,1.4,7.006-3.527,7.006-3.527s-1.845,2.182-1.4,3.542a2.519,2.519,0,0,0,2.736,1.3c1.17-.1,2.516-.691,4.252-2.348l39.466-37.658Z" fill="#b77a65" fill-rule="evenodd"/><path d="M62.721,64.877a.472.472,0,0,1,.667.667L56.031,72.9a.472.472,0,0,1-.667-.667Z" fill="#b77a65" fill-rule="evenodd"/><path d="M58.284,60.1a.472.472,0,0,1,.667.667l-9.981,9.98a.471.471,0,1,1-.666-.666Z" fill="#b77a65" fill-rule="evenodd"/><path d="M54.294,55.344a.47.47,0,0,1,.671.659L43.427,67.7a.47.47,0,1,1-.67-.659Z" fill="#b77a65" fill-rule="evenodd"/><rect x="45.683" y="27.896" width="8.458" height="36.227" fill="#6898a3"/><path d="M54.141,27.9H49.513V45.69a1.6,1.6,0,0,0,1.595,1.6h3.033Z" fill="#76a5af" fill-rule="evenodd"/><path d="M65.311,37.849A8.647,8.647,0,0,0,57.4,43a8.247,8.247,0,0,0-8.759,4.7A9.179,9.179,0,0,0,33.787,57.944a7.316,7.316,0,0,0-1.028,14.044A11.836,11.836,0,0,0,49.866,87.831a11.174,11.174,0,0,0,21.52.211A11.838,11.838,0,0,0,84.065,69.977,15.839,15.839,0,0,0,72.9,50.631a8.647,8.647,0,0,0-7.59-12.782Z" fill="#97bbc3" fill-rule="evenodd"/><path d="M12.327,20.428a6.6,6.6,0,0,1,0-13.194H40.255a6.6,6.6,0,0,1,6,3.856l9.574,16.584L43.892,32.665a4.968,4.968,0,0,1-1.118-1.334l-6.3-10.9Z" fill="#999a9a" fill-rule="evenodd"/><path d="M8.923,8.18a6.567,6.567,0,0,1,3.4-.946H40.255a6.6,6.6,0,0,1,6,3.856l9.574,16.584-7.145,2.987L39.671,14.843H15.52a6.6,6.6,0,0,1-6.6-6.6C8.922,8.224,8.923,8.2,8.923,8.18Z" fill="#c4c4c4" fill-rule="evenodd"/><rect x="1.954" width="13.565" height="28.194" rx="1.596" fill="#afb0b0"/><path d="M3.551,0h7.886c0,.047.007.1.007.144V19.106a1.214,1.214,0,0,1-1.21,1.21H2.367a1.232,1.232,0,0,1-.413-.072V1.6A1.6,1.6,0,0,1,3.551,0Z" fill="#c4c4c4" fill-rule="evenodd"/><path d="M94.315,29.046,74.154,48.784,63.507,45.621,52.078,48.578c-2.382,5.619,3.384,5.57,8.272,5.106,1.212-.116,2.8.8,2.2,1.379L46.6,70.305c-2.446,2.337-2.152,3.559-1.408,4.433A2.493,2.493,0,0,0,47.948,75.8a17.269,17.269,0,0,0,5.262-2.979s-5.359,4.227-2.957,6.669,5.9-1.415,7.363-2.5c.916-.678-1.76,1.683-2.071,3.722a2.478,2.478,0,0,0,1.511,2.2c2.8,1.4,7.006-3.526,7.006-3.526s-1.844,2.181-1.4,3.541a2.523,2.523,0,0,0,2.737,1.3c1.17-.1,2.516-.691,4.252-2.347l39.465-37.658Z" fill="#d6947c" fill-rule="evenodd"/><path d="M70.222,72.537a.471.471,0,1,1,.666.667l-7.357,7.357a.471.471,0,0,1-.666-.667Z" fill="#b77a65" fill-rule="evenodd"/><path d="M65.785,67.758a.472.472,0,0,1,.667.667l-9.981,9.98a.471.471,0,0,1-.667-.666Z" fill="#b77a65" fill-rule="evenodd"/><path d="M61.8,63a.47.47,0,1,1,.67.659L50.928,75.36a.47.47,0,1,1-.671-.659Z" fill="#b77a65" fill-rule="evenodd"/><path d="M27.61,54.946a2.633,2.633,0,1,0-2.633-2.633A2.638,2.638,0,0,0,27.61,54.946Z" fill="#97bbc3" fill-rule="evenodd"/><path d="M88.812,72.341A2.713,2.713,0,1,0,86.1,69.628,2.718,2.718,0,0,0,88.812,72.341Z" fill="#97bbc3" fill-rule="evenodd"/><path d="M25.615,59.894a1.277,1.277,0,1,0-1.276-1.278A1.281,1.281,0,0,0,25.615,59.894Z" fill="#97bbc3" fill-rule="evenodd"/><path d="M72.943,78.973a10.754,10.754,0,0,1-20.209,1.24,2.511,2.511,0,0,1-2.126-.409A11.392,11.392,0,0,1,35.769,63.523a7.059,7.059,0,0,1-4.355-4.637,7.315,7.315,0,0,0,1.345,13.1A11.836,11.836,0,0,0,49.866,87.831a11.174,11.174,0,0,0,21.52.211A11.845,11.845,0,0,0,85.64,73.427a11.409,11.409,0,0,1-12.7,5.546Z" fill="#76a5af" fill-rule="evenodd"/></svg>